/* XPM */
static char *result[] = {
/* columns rows colors chars-per-pixel */
"31 201 8 1 ",
"  c black",
". c #C28500",
"X c #EFA700",
"o c #EFB011",
"O c #B2A591",
"+ c #BFB4A1",
"@ c #D1C9B9",
"# c None",
/* pixels */
"###############################",
"+++++++++++++++++++++++++++++++",
"@@@@@@@@@@@@@@@@@@@@@@@@@@@@@OO",
"@@@@@@@@@@@@@@@@@@@@@@@@@@@@@OO",
"@@@@@@@@@@@@@@@@@@@@@@@@@@@@@OO",
"@@@@@@@@@@@@@@@@@@@@@@@@@@@@@OO",
"@@@@@@@@@@@@@@@@@@@@@@@@@@@@@OO",
"@@@@@@@@@@@@@@@@@@@@@@@@@@@@@OO",
"@@@@@@@@@@@@@@@@@@@@@@@@@@@@@OO",
"@@@@@@@@@@@@@@@@@@@@@@@@@@@@@OO",
"@@@@@@@@@@@@@@@@@@@@@@@@@@@@@OO",
"+++++++++++++++++++++++++++++++",
"@@@@@@@@@@@@@@@@@@@@@@@@@@@@@OO",
"@@@@@@@@@@@@@@@@@@@@@@@@@@@@@OO",
"@@@@@@@@@@@@@@@@@@@@@@@@@@@@@OO",
"@@@@@@@@@@@@@@@@@@@@@@@@@@@@@OO",
"@@@@@@@@@@@@@@@@@@@@@@@@@@@@@OO",
"@@@@@@@@@@@@@@@@@@@@@@@@@@@@@OO",
"@@@@@@@@@@@@@@@@@@@@@@@@@@@@@OO",
"@@@@@@@@@@@@@@@@@@@@@@@@@@@@@OO",
"@@@@@@@@@@@@@@@@@@@@@@@@@@@@@OO",
"+++++++++++++++++++++++++++++++",
"@@@@@@@@@@@@@@@@@@@@@@@@@@@@@OO",
"@@@@@@@@@@@@@@@@@@@@@@@@@@@@@OO",
"@@@@@@@@@@@@@@@@@@@@@@@@@@@@@OO",
"@@@@@@@@@@@@@@@@@@@@@@@@@@@@@OO",
"@@@@@@@@@@@@@@@@@@@@@@@@@@@@@OO",
"@@@@@@@@@@@@@@@@@@@@@@@@@@@@@OO",
"@@@@@@@@@@@@@@@@@@@@@@@@@@@@@OO",
"@@@@@@@@@@@@@@@@@@@@@@@@@@@@@OO",
"@@@@@@@@@@@@@@@@@@@@@@@@@@@@@OO",
"+++++++++++++++++++++++++++++++",
"@@@@@@@@@@@@@@@@@@@@@@@@@@@@@OO",
"@@@@@@@@@@@@@@@@@@@@@@@@@@@@@OO",
"@@@@@@@@@@@@@@@@@@@@@@@@@@@@@OO",
"@@@@@@@@@@@@@@@@@@@@@@@@@@@@@OO",
"@@@@@@@@@@@@@@@@@@@@@@@@@@@@@OO",
"@@@@@@@@@@@@@@@@@@@@@@@@@@@@@OO",
"@@@@@@@@@@@@@@@@@@@@@@@@@@@@@OO",
"@@@@@@@@@@@@@@@@@@@@@@@@@@@@@OO",
"@@@@@@@@@@@@@@@@@@@@@@@@@@@@@OO",
"+++++++++++++++++++++++++++++++",
"@@@@@@@@@@@@@@@@@@@@@@@@@@@@@OO",
"@@@@@@@@@@@@@@@@@@@@@@@@@@@@@OO",
"@@@@@@@@@@@@@@@@@@@@@@@@@@@@@OO",
"@@@@@@@@@@@@@@@@@@@@@@@@@@@@@OO",
"@@@@@@@@@@@@@@@@@@@@@@@@@@@@@OO",
"@@@@@@@@@@@@@@@@@@@@@@@@@@@@@OO",
"@@@@@@@@@@@@@@@@@@@@@@@@@@@@@OO",
"@@@@@@@@@@@@@@@@@@@@@@@@@@@@@OO",
"@@@@@@@@@@@@@@@@@@@@@@@@@@@@@OO",
"+++++++++++++++++++++++++++++++",
"@@@@@@@@@@@@@@@@@@@@@@@@@@@@@OO",
"@@@@@@@@@@@@@@@@@@@@@@@@@@@@@OO",
"@@@@@@@@@@@@@@@@@@@@@@@@@@@@@OO",
"@@@@@@@@@@@@@@@@@@@@@@@@@@@@@OO",
"@@@@@@@@@@@@@@@@@@@@@@@@@@@@@OO",
"@@@@@@@@@@@@@@@@@@@@@@@@@@@@@OO",
"@@@@@@@@@@@@@@@@@@@@@@@@@@@@@OO",
"@@@@@@@@@@@@@@@@@@@@@@@@@@@@@OO",
"@@@@@@@@@@@@@@@@@@@@@@@@@@@@@OO",
"+++++++++++++++++++++++++++++++",
"@@@@@@@@@@@@@@@@@@@@@@@@@@@@@OO",
"@@@@@@@@@@@@@@@@@@@@@@@@@@@@@OO",
"@@@@@@@@@@@@@@@@@@@@@@@@@@@@@OO",
"@@@@@@@@@@@@@@@@@@@@@@@@@@@@@OO",
"@@@@@@@@@@@@@@@@@@@@@@@@@@@@@OO",
"@@@@@@@@@@@@@@@@@@@@@@@@@@@@@OO",
"@@@@@@@@@@@@@@@@@@@@@@@@@@@@@OO",
"@@@@@@@@@@@@@@@@@@@@@@@@@@@@@OO",
"@@@@@@@@@@@@@@@@@@@@@@@@@@@@@OO",
"+++++++++++++++++++++++++++++++",
"@@@@@@@@@@@@@@@@@@@@@@@@@@@@@OO",
"@@@@@@@@@@@@@@@@@@@@@@@@@@@@@OO",
"@@@@@@@@@@@@@@@@@@@@@@@@@@@@@OO",
"@@@@@@@@@@@@@@@@@@@@@@@@@@@@@OO",
"@@@@@@@@@@@@@@@@@@@@@@@@@@@@@OO",
"@@@@@@@@@@@@@@@@@@@@@@@@@@@@@OO",
"@@@@@@@@@@@@@@@@@@@@@@@@@@@@@OO",
"@@@@@@@@@@@@@@@@@@@@@@@@@@@@@OO",
"@@@@@@@@@@@@@@@@@@@@@@@@@@@@@OO",
"+++++++++++++++++++++++++++++++",
"@@@@@@@@@@@@@@@@@@@@@@@@@@@@@OO",
"@@@@@@@@@@@@@@@@@@@@@@@@@@@@@OO",
"@@@@@@@@@@@@@@@@@@@@@@@@@@@@@OO",
"@@@@@@@@@@@@@@@@@@@@@@@@@@@@@OO",
"@@@@@@@@@@@@@@@@@@@@@@@@@@@@@OO",
"@@@@@@@@@@@@@@@@@@@@@@@@@@@@@OO",
"@@@@@@@@@@@@@@@@@@@@@@@@@@@@@OO",
"@@@@@@@@@@@@@@@@@@@@@@@@@@@@@OO",
"@@@@@@@@@@@@@@@@@@@@@@@@@@@@@OO",
"+++++++++++++++++++++++++++++++",
"@@@@@@@@@@@@@@@@@@@@@@@@@@@@@OO",
"@@@@@@@@@@@@@@@@@@@@@@@@@@@@@OO",
"@@@@@@@@@@@@@@@@@@@@@@@@@@@@@OO",
"@@@@@@@@@@@@@@@@@@@@@@@@@@@@@OO",
"@@@@@@@@@@@@@@@@@@@@@@@@@@@@@OO",
"@@@@@@@@@@@@@@@@@@@@@@@@@@@@@OO",
"@@@@@@@@@@@@@@@@@@@@@@@@@@@@@OO",
"@@@@@@@@@@@@@@@@@@@@@@@@@@@@@OO",
"@@@@@@@@@@@@@@@@@@@@@@@@@@@@@OO",
"+++++++++++++++++++++++++++++++",
"@@@@@@@@@@@@@@@@@@@@@@@@@@@@@OO",
"@@@@@@@@@@@@@@@@@@@@@@@@@@@@@OO",
"@@@@@@@@@@@@@@@@@@@@@@@@@@@@@OO",
"@@@@@@@@@@@@@@@@@@@@@@@@@@@@@OO",
"@@@@@@@@@@@@@@@@@@@@@@@@@@@@@OO",
"@@@@@@@@@@@@@@@@@@@@@@@@@@@@@OO",
"@@@@@@@@@@@@@@@@@@@@@@@@@@@@@OO",
"@@@@@@@@@@@@@@@@@@@@@@@@@@@@@OO",
"@@@@@@@@@@@@@@@@@@@@@@@@@@@@@OO",
"+++++++++++++++++++++++++++++++",
"@@@@@@@@@@@@@@@@@@@@@@@@@@@@@OO",
"@@@@@@@@@@@@@@@@@@@@@@@@@@@@@OO",
"@@@@@@@@@@@@@@@@@@@@@@@@@@@@@OO",
"@@@@@@@@@@@@@@@@@@@@@@@@@@@@@OO",
"@@@@@@@@@@@@@@@@@@@@@@@@@@@@@OO",
"@@@@@@@@@@@@@@@@@@@@@@@@@@@@@OO",
"@@@@@@@@@@@@@@@@@@@@@@@@@@@@@OO",
"@@@@@@@@@@@@@@@@@@@@@@@@@@@@@OO",
"@@@@@@@@@@@@@@@@@@@@@@@@@@@@@OO",
"+++++++++++++++++++++++++++++++",
"@@@@@@@@@@@@@@@@@@@@@@@@@@@@@OO",
"@@@@@@@@@@@@@@@@@@@@@@@@@@@@@OO",
"@@@@@@@@@@@@@@@@@@@@@@@@@@@@@OO",
"@@@@@@@@@@@@@@@@@@@@@@@@@@@@@OO",
"@@@@@@@@@@@@@@@@@@@@@@@@@@@@@OO",
"@@@@@@@@@@@@@@@@@@@@@@@@@@@@@OO",
"@@@@@@@@@@@@@@@@@@@@@@@@@@@@@OO",
"@@@@@@@@@@@@@@@@@@@@@@@@@@@@@OO",
"@@@@@@@@@@@@@@@@@@@@@@@@@@@@@OO",
"+++++++++++++++++++++++++++++++",
"@@@@@@@@@@@@@@@@@@@@@@@@@@@@@OO",
"@@@@@@@@@@@@@@@@@@@@@@@@@@@@@OO",
"@@@@@@@@@@@@@@@@@@@@@@@@@@@@@OO",
"@@@@@@@@@@@@@@@@@@@@@@@@@@@@@OO",
"@@@@@@@@@@@@@@@@@@@@@@@@@@@@@OO",
"@@@@@@@@@@@@@@@@@@@@@@@@@@@@@OO",
"@@@@@@@@@@@@@@@@@@@@@@@@@@@@@OO",
"@@@@@@@@@@@@@@@@@@@@@@@@@@@@@OO",
"@@@@@@@@@@@@@@@@@@@@@@@@@@@@@OO",
"+++++++++++++++++++++++++++++++",
"@@@@@@@@@@@@@@@@@@@@@@@@@@@@@OO",
"@@@@@@@@@@@@@@@@@@@@@@@@@@@@@OO",
"@@@@@@@@@@@@@@@@@@@@@@@@@@@@@OO",
"@@@@@@@@@@@@@@@@@@@@@@@@@@@@@OO",
"@@@@@@@@@@@@@@@@@@@@@@@@@@@@@OO",
"@@@@@@@@@@@@@@@@@@@@@@@@@@@@@OO",
"@@@@@@@@@@@@@@@@@@@@@@@@@@@@@OO",
"@@@@@@@@@@@@@@@@@@@@@@@@@@@@@OO",
"@@@@@@@@@@@@@@@@@@@@@@@@@@@@@OO",
"+++++++++++++++++++++++++++++++",
"@@@@@@@@@@@@@@@@@@@@@@@@@@@@@OO",
"@@@@@@@@@@@@@@@@@@@@@@@@@@@@@OO",
"@@@@@@@@@@@@@@@@@@@@@@@@@@@@@OO",
"@@@@@@@@@@@@@@@@@@@@@@@@@@@@@OO",
"@@@@@@@@@@@@@@@@@@@@@@@@@@@@@OO",
"@@@@@@@@@@@@@@@@@@@@@@@@@@@@@OO",
"@@@@@@@@@@@@@@@@@@@@@@@@@@@@@OO",
"@@@@@@@@@@@@@@@@@@@@@@@@@@@@@OO",
"@@@@@@@@@@@@@@@@@@@@@@@@@@@@@OO",
"+++++++++++++++++++++++++++++++",
"oXoooooooooooooooooooooo       ",
"oooooooooooooooooooooooo       ",
"XXXXXXXXXXXXXXXXXXXXXXXX       ",
"XXXXXXXXXXXXXXXXXXXXXXXX       ",
"XXXXXXXXXXXXXXXXXXXXXXXX       ",
"XXXXXXXXXXXXXXXXXXXXXXXX       ",
"X.XXXXXXXXXXXXXXXXXXXXXX       ",
"XXXXXXXXXXXXXXXXXXXXXXXX       ",
"XXXXXXXXXXXXXXXXXXXXXXXX       ",
"........................       ",
"oXoooooooooooooooooooooo       ",
"oooooooooooooooooooooooo       ",
"XXXXXXXXXXXXXXXXXXXXXXXX       ",
"XXXXXXXXXXXXXXXXXXXXXXXX       ",
"XXXXXXXXXXXXXXXXXXXXXXXX       ",
"XXXXXXXXXXXXXXXXXXXXXXXX       ",
"X.XXXXXXXXXXXXXXXXXXXXXX       ",
"XXXXXXXXXXXXXXXXXXXXXXXX       ",
"XXXXXXXXXXXXXXXXXXXXXXXX       ",
"........................       ",
"oXoooooooooooooooooooooo       ",
"oooooooooooooooooooooooo       ",
"XXXXXXXXXXXXXXXXXXXXXXXX       ",
"XXXXXXXXXXXXXXXXXXXXXXXX       ",
"XXXXXXXXXXXXXXXXXXXXXXXX       ",
"XXXXXXXXXXXXXXXXXXXXXXXX       ",
"X.XXXXXXXXXXXXXXXXXXXXXX       ",
"XXXXXXXXXXXXXXXXXXXXXXXX       ",
"XXXXXXXXXXXXXXXXXXXXXXXX       ",
"........................       ",
"oXoooooooooooooooooooooo       ",
"oooooooooooooooooooooooo       ",
"XXXXXXXXXXXXXXXXXXXXXXXX       ",
"XXXXXXXXXXXXXXXXXXXXXXXX       ",
"XXXXXXXXXXXXXXXXXXXXXXXX       ",
"XXXXXXXXXXXXXXXXXXXXXXXX       ",
"X.XXXXXXXXXXXXXXXXXXXXXX       ",
"XXXXXXXXXXXXXXXXXXXXXXXX       ",
"XXXXXXXXXXXXXXXXXXXXXXXX       "
};
