/* XPM */
static char *result[] = {
/* columns rows colors chars-per-pixel */
"31 201 8 1 ",
"  c #EFA800",
". c black",
"X c #EFB011",
"o c #D1C9B9",
"O c #E99F00",
"+ c #C28500",
"@ c #BFB4A1",
"# c #B2A591",
/* pixels */
"@@@@@@@@@@@@@@@@@@@@@@@@@@@@@@@",
"ooooooooooooooooooooooooooooo##",
"ooooooooooooooooooooooooooooo##",
"ooooooooooooooooooooooooooooo##",
"ooooooooooooooooooooooooooooo##",
"ooooooooooooooooooooooooooooo##",
"ooooooooooooooooooooooooooooo##",
"ooooooooooooooooooooooooooooo##",
"ooooooooooooooooooooooooooooo##",
"ooooooooooooooooooooooooooooo##",
"@@@@@@@@@@@@@@@@@@@@@@@@@@@@@@@",
"ooooooooooooooooooooooooooooo##",
"ooooooooooooooooooooooooooooo##",
"ooooooooooooooooooooooooooooo##",
"ooooooooooooooooooooooooooooo##",
"ooooooooooooooooooooooooooooo##",
"ooooooooooooooooooooooooooooo##",
"ooooooooooooooooooooooooooooo##",
"ooooooooooooooooooooooooooooo##",
"ooooooooooooooooooooooooooooo##",
"@@@@@@@@@@@@@@@@@@@@@@@@@@@@@@@",
"ooooooooooooooooooooooooooooo##",
"ooooooooooooooooooooooooooooo##",
"ooooooooooooooooooooooooooooo##",
"ooooooooooooooooooooooooooooo##",
"ooooooooooooooooooooooooooooo##",
"ooooooooooooooooooooooooooooo##",
"ooooooooooooooooooooooooooooo##",
"ooooooooooooooooooooooooooooo##",
"ooooooooooooooooooooooooooooo##",
"@@@@@@@@@@@@@@@@@@@@@@@@@@@@@@@",
"ooooooooooooooooooooooooooooo##",
"ooooooooooooooooooooooooooooo##",
"ooooooooooooooooooooooooooooo##",
"ooooooooooooooooooooooooooooo##",
"ooooooooooooooooooooooooooooo##",
"ooooooooooooooooooooooooooooo##",
"ooooooooooooooooooooooooooooo##",
"ooooooooooooooooooooooooooooo##",
"ooooooooooooooooooooooooooooo##",
"@@@@@@@@@@@@@@@@@@@@@@@@@@@@@@@",
"ooooooooooooooooooooooooooooo##",
"ooooooooooooooooooooooooooooo##",
"ooooooooooooooooooooooooooooo##",
"ooooooooooooooooooooooooooooo##",
"ooooooooooooooooooooooooooooo##",
"ooooooooooooooooooooooooooooo##",
"ooooooooooooooooooooooooooooo##",
"ooooooooooooooooooooooooooooo##",
"ooooooooooooooooooooooooooooo##",
"@@@@@@@@@@@@@@@@@@@@@@@@@@@@@@@",
"ooooooooooooooooooooooooooooo##",
"ooooooooooooooooooooooooooooo##",
"ooooooooooooooooooooooooooooo##",
"ooooooooooooooooooooooooooooo##",
"ooooooooooooooooooooooooooooo##",
"ooooooooooooooooooooooooooooo##",
"ooooooooooooooooooooooooooooo##",
"ooooooooooooooooooooooooooooo##",
"ooooooooooooooooooooooooooooo##",
"@@@@@@@@@@@@@@@@@@@@@@@@@@@@@@@",
"ooooooooooooooooooooooooooooo##",
"ooooooooooooooooooooooooooooo##",
"ooooooooooooooooooooooooooooo##",
"ooooooooooooooooooooooooooooo##",
"ooooooooooooooooooooooooooooo##",
"ooooooooooooooooooooooooooooo##",
"ooooooooooooooooooooooooooooo##",
"ooooooooooooooooooooooooooooo##",
"ooooooooooooooooooooooooooooo##",
"@@@@@@@@@@@@@@@@@@@@@@@@@@@@@@@",
"ooooooooooooooooooooooooooooo##",
"ooooooooooooooooooooooooooooo##",
"ooooooooooooooooooooooooooooo##",
"ooooooooooooooooooooooooooooo##",
"ooooooooooooooooooooooooooooo##",
"ooooooooooooooooooooooooooooo##",
"ooooooooooooooooooooooooooooo##",
"ooooooooooooooooooooooooooooo##",
"ooooooooooooooooooooooooooooo##",
"@@@@@@@@@@@@@@@@@@@@@@@@@@@@@@@",
"XOXXXXXXXXXXXXXXXXXXXXXX.......",
"XXXXXXXXXXXXXXXXXXXXXXXX.......",
"OOO                     .......",
"OO                      .......",
"OO O O O O O O O O O O  .......",
"OO                      .......",
"OO                      .......",
"OO                      .......",
"OO                      .......",
"++++++++++++++++++++++++.......",
"XOXXXXXXXXXXXXXXXXXXXXXX.......",
"XXXXXXXXXXXXXXXXXXXXXXXX.......",
"OOO                     .......",
"OO                      .......",
"OO O O O O O O O O O O  .......",
"OO                      .......",
"OO                      .......",
"OO                      .......",
"OO                      .......",
"++++++++++++++++++++++++.......",
"XOXXXXXXXXXXXXXXXXXXXXXX.......",
"XXXXXXXXXXXXXXXXXXXXXXXX.......",
"OOO                     .......",
"OO                      .......",
"OO O O O O O O O O O O  .......",
"OO                      .......",
"OO                      .......",
"OO                      .......",
"OO                      .......",
"++++++++++++++++++++++++.......",
"XOXXXXXXXXXXXXXXXXXXXXXX.......",
"XXXXXXXXXXXXXXXXXXXXXXXX.......",
"OOO                     .......",
"OO                      .......",
"OO O O O O O O O O O O  .......",
"OO                      .......",
"OO                      .......",
"OO                      .......",
"OO                      .......",
"++++++++++++++++++++++++.......",
"XOXXXXXXXXXXXXXXXXXXXXXX.......",
"XXXXXXXXXXXXXXXXXXXXXXXX.......",
"OOO                     .......",
"OO                      .......",
"OO O O O O O O O O O O  .......",
"OO                      .......",
"OO                      .......",
"OO                      .......",
"OO                      .......",
"++++++++++++++++++++++++.......",
"XOXXXXXXXXXXXXXXXXXXXXXX.......",
"XXXXXXXXXXXXXXXXXXXXXXXX.......",
"OOO                     .......",
"OO                      .......",
"OO O O O O O O O O O O  .......",
"OO                      .......",
"OO                      .......",
"OO                      .......",
"OO                      .......",
"++++++++++++++++++++++++.......",
"XOXXXXXXXXXXXXXXXXXXXXXX.......",
"XXXXXXXXXXXXXXXXXXXXXXXX.......",
"OOO                     .......",
"OO                      .......",
"OO O O O O O O O O O O  .......",
"OO                      .......",
"OO                      .......",
"OO                      .......",
"OO                      .......",
"++++++++++++++++++++++++.......",
"XOXXXXXXXXXXXXXXXXXXXXXX.......",
"XXXXXXXXXXXXXXXXXXXXXXXX.......",
"OOO                     .......",
"OO                      .......",
"OO O O O O O O O O O O  .......",
"OO                      .......",
"OO                      .......",
"OO                      .......",
"OO                      .......",
"++++++++++++++++++++++++.......",
"XOXXXXXXXXXXXXXXXXXXXXXX.......",
"XXXXXXXXXXXXXXXXXXXXXXXX.......",
"OOO                     .......",
"OO                      .......",
"OO O O O O O O O O O O  .......",
"OO                      .......",
"OO                      .......",
"OO                      .......",
"OO                      .......",
"++++++++++++++++++++++++.......",
"XOXXXXXXXXXXXXXXXXXXXXXX.......",
"XXXXXXXXXXXXXXXXXXXXXXXX.......",
"OOO                     .......",
"OO                      .......",
"OO O O O O O O O O O O  .......",
"OO                      .......",
"OO                      .......",
"OO                      .......",
"OO                      .......",
"++++++++++++++++++++++++.......",
"XOXXXXXXXXXXXXXXXXXXXXXX.......",
"XXXXXXXXXXXXXXXXXXXXXXXX.......",
"OOO                     .......",
"OO                      .......",
"OO O O O O O O O O O O  .......",
"OO                      .......",
"OO                      .......",
"OO                      .......",
"OO                      .......",
"++++++++++++++++++++++++.......",
"XOXXXXXXXXXXXXXXXXXXXXXX.......",
"XXXXXXXXXXXXXXXXXXXXXXXX.......",
"OOO                     .......",
"OO                      .......",
"OO O O O O O O O O O O  .......",
"OO                      .......",
"OO                      .......",
"OO                      .......",
"OO                      .......",
"++++++++++++++++++++++++......."
};
