/* XPM */
static char *result[] = {
/* columns rows colors chars-per-pixel */
"31 201 9 1 ",
"  c black",
". c #C28500",
"X c #E99F00",
"o c #EFA800",
"O c #EFB011",
"+ c #B2A591",
"@ c #BFB4A1",
"# c #D1C9B9",
"$ c None",
/* pixels */
"$$$$$$$$$$$$$$$$$$$$$$$$$$$$$$$",
"@@@@@@@@@@@@@@@@@@@@@@@@@@@@@@@",
"#############################++",
"#############################++",
"#############################++",
"#############################++",
"#############################++",
"#############################++",
"#############################++",
"#############################++",
"#############################++",
"@@@@@@@@@@@@@@@@@@@@@@@@@@@@@@@",
"#############################++",
"#############################++",
"#############################++",
"#############################++",
"#############################++",
"#############################++",
"#############################++",
"#############################++",
"#############################++",
"@@@@@@@@@@@@@@@@@@@@@@@@@@@@@@@",
"#############################++",
"#############################++",
"#############################++",
"#############################++",
"#############################++",
"#############################++",
"#############################++",
"#############################++",
"#############################++",
"@@@@@@@@@@@@@@@@@@@@@@@@@@@@@@@",
"#############################++",
"#############################++",
"#############################++",
"#############################++",
"#############################++",
"#############################++",
"#############################++",
"#############################++",
"#############################++",
"@@@@@@@@@@@@@@@@@@@@@@@@@@@@@@@",
"#############################++",
"#############################++",
"#############################++",
"#############################++",
"#############################++",
"#############################++",
"#############################++",
"#############################++",
"#############################++",
"@@@@@@@@@@@@@@@@@@@@@@@@@@@@@@@",
"#############################++",
"#############################++",
"#############################++",
"#############################++",
"#############################++",
"#############################++",
"#############################++",
"#############################++",
"#############################++",
"@@@@@@@@@@@@@@@@@@@@@@@@@@@@@@@",
"#############################++",
"#############################++",
"#############################++",
"#############################++",
"#############################++",
"#############################++",
"#############################++",
"#############################++",
"#############################++",
"@@@@@@@@@@@@@@@@@@@@@@@@@@@@@@@",
"#############################++",
"#############################++",
"#############################++",
"#############################++",
"#############################++",
"#############################++",
"#############################++",
"#############################++",
"#############################++",
"@@@@@@@@@@@@@@@@@@@@@@@@@@@@@@@",
"#############################++",
"#############################++",
"#############################++",
"#############################++",
"#############################++",
"#############################++",
"#############################++",
"#############################++",
"#############################++",
"@@@@@@@@@@@@@@@@@@@@@@@@@@@@@@@",
"OXOOOOOOOOOOOOOOOOOOOOOO       ",
"OOOOOOOOOOOOOOOOOOOOOOOO       ",
"XXXooooooooooooooooooooo       ",
"XXoooooooooooooooooooooo       ",
"XXoXoXoXoXoXoXoXoXoXoXoo       ",
"XXoooooooooooooooooooooo       ",
"XXoooooooooooooooooooooo       ",
"XXoooooooooooooooooooooo       ",
"XXoooooooooooooooooooooo       ",
"........................       ",
"OXOOOOOOOOOOOOOOOOOOOOOO       ",
"OOOOOOOOOOOOOOOOOOOOOOOO       ",
"XXXooooooooooooooooooooo       ",
"XXoooooooooooooooooooooo       ",
"XXoXoXoXoXoXoXoXoXoXoXoo       ",
"XXoooooooooooooooooooooo       ",
"XXoooooooooooooooooooooo       ",
"XXoooooooooooooooooooooo       ",
"XXoooooooooooooooooooooo       ",
"........................       ",
"OXOOOOOOOOOOOOOOOOOOOOOO       ",
"OOOOOOOOOOOOOOOOOOOOOOOO       ",
"XXXooooooooooooooooooooo       ",
"XXoooooooooooooooooooooo       ",
"XXoXoXoXoXoXoXoXoXoXoXoo       ",
"XXoooooooooooooooooooooo       ",
"XXoooooooooooooooooooooo       ",
"XXoooooooooooooooooooooo       ",
"XXoooooooooooooooooooooo       ",
"........................       ",
"OXOOOOOOOOOOOOOOOOOOOOOO       ",
"OOOOOOOOOOOOOOOOOOOOOOOO       ",
"XXXooooooooooooooooooooo       ",
"XXoooooooooooooooooooooo       ",
"XXoXoXoXoXoXoXoXoXoXoXoo       ",
"XXoooooooooooooooooooooo       ",
"XXoooooooooooooooooooooo       ",
"XXoooooooooooooooooooooo       ",
"XXoooooooooooooooooooooo       ",
"........................       ",
"OXOOOOOOOOOOOOOOOOOOOOOO       ",
"OOOOOOOOOOOOOOOOOOOOOOOO       ",
"XXXooooooooooooooooooooo       ",
"XXoooooooooooooooooooooo       ",
"XXoXoXoXoXoXoXoXoXoXoXoo       ",
"XXoooooooooooooooooooooo       ",
"XXoooooooooooooooooooooo       ",
"XXoooooooooooooooooooooo       ",
"XXoooooooooooooooooooooo       ",
"........................       ",
"OXOOOOOOOOOOOOOOOOOOOOOO       ",
"OOOOOOOOOOOOOOOOOOOOOOOO       ",
"XXXooooooooooooooooooooo       ",
"XXoooooooooooooooooooooo       ",
"XXoXoXoXoXoXoXoXoXoXoXoo       ",
"XXoooooooooooooooooooooo       ",
"XXoooooooooooooooooooooo       ",
"XXoooooooooooooooooooooo       ",
"XXoooooooooooooooooooooo       ",
"........................       ",
"OXOOOOOOOOOOOOOOOOOOOOOO       ",
"OOOOOOOOOOOOOOOOOOOOOOOO       ",
"XXXooooooooooooooooooooo       ",
"XXoooooooooooooooooooooo       ",
"XXoXoXoXoXoXoXoXoXoXoXoo       ",
"XXoooooooooooooooooooooo       ",
"XXoooooooooooooooooooooo       ",
"XXoooooooooooooooooooooo       ",
"XXoooooooooooooooooooooo       ",
"........................       ",
"OXOOOOOOOOOOOOOOOOOOOOOO       ",
"OOOOOOOOOOOOOOOOOOOOOOOO       ",
"XXXooooooooooooooooooooo       ",
"XXoooooooooooooooooooooo       ",
"XXoXoXoXoXoXoXoXoXoXoXoo       ",
"XXoooooooooooooooooooooo       ",
"XXoooooooooooooooooooooo       ",
"XXoooooooooooooooooooooo       ",
"XXoooooooooooooooooooooo       ",
"........................       ",
"OXOOOOOOOOOOOOOOOOOOOOOO       ",
"OOOOOOOOOOOOOOOOOOOOOOOO       ",
"XXXooooooooooooooooooooo       ",
"XXoooooooooooooooooooooo       ",
"XXoXoXoXoXoXoXoXoXoXoXoo       ",
"XXoooooooooooooooooooooo       ",
"XXoooooooooooooooooooooo       ",
"XXoooooooooooooooooooooo       ",
"XXoooooooooooooooooooooo       ",
"........................       ",
"OXOOOOOOOOOOOOOOOOOOOOOO       ",
"OOOOOOOOOOOOOOOOOOOOOOOO       ",
"XXXooooooooooooooooooooo       ",
"XXoooooooooooooooooooooo       ",
"XXoXoXoXoXoXoXoXoXoXoXoo       ",
"XXoooooooooooooooooooooo       ",
"XXoooooooooooooooooooooo       ",
"XXoooooooooooooooooooooo       ",
"XXoooooooooooooooooooooo       ",
"........................       ",
"OXOOOOOOOOOOOOOOOOOOOOOO       ",
"OOOOOOOOOOOOOOOOOOOOOOOO       ",
"XXXooooooooooooooooooooo       ",
"XXoooooooooooooooooooooo       ",
"XXoXoXoXoXoXoXoXoXoXoXoo       ",
"XXoooooooooooooooooooooo       ",
"XXoooooooooooooooooooooo       ",
"XXoooooooooooooooooooooo       ",
"XXoooooooooooooooooooooo       "
};
