/* XPM */
static char *result[] = {
/* columns rows colors chars-per-pixel */
"30 200 8 1 ",
"  c #EFA800",
". c black",
"X c #EFB011",
"o c #BFB4A1",
"O c #D1C9B9",
"+ c #E99F00",
"@ c #C28500",
"# c #B2A591",
/* pixels */
"oooooooooooooooooooooooooooooo",
"OOOOOOOOOOOOOOOOOOOOOOOOOOOOO#",
"OOOOOOOOOOOOOOOOOOOOOOOOOOOOO#",
"OOOOOOOOOOOOOOOOOOOOOOOOOOOOO#",
"OOOOOOOOOOOOOOOOOOOOOOOOOOOOO#",
"OOOOOOOOOOOOOOOOOOOOOOOOOOOOO#",
"OOOOOOOOOOOOOOOOOOOOOOOOOOOOO#",
"OOOOOOOOOOOOOOOOOOOOOOOOOOOOO#",
"OOOOOOOOOOOOOOOOOOOOOOOOOOOOO#",
"OOOOOOOOOOOOOOOOOOOOOOOOOOOOO#",
"oooooooooooooooooooooooooooooo",
"OOOOOOOOOOOOOOOOOOOOOOOOOOOOO#",
"OOOOOOOOOOOOOOOOOOOOOOOOOOOOO#",
"OOOOOOOOOOOOOOOOOOOOOOOOOOOOO#",
"OOOOOOOOOOOOOOOOOOOOOOOOOOOOO#",
"OOOOOOOOOOOOOOOOOOOOOOOOOOOOO#",
"OOOOOOOOOOOOOOOOOOOOOOOOOOOOO#",
"OOOOOOOOOOOOOOOOOOOOOOOOOOOOO#",
"OOOOOOOOOOOOOOOOOOOOOOOOOOOOO#",
"OOOOOOOOOOOOOOOOOOOOOOOOOOOOO#",
"oooooooooooooooooooooooooooooo",
"OOOOOOOOOOOOOOOOOOOOOOOOOOOOO#",
"OOOOOOOOOOOOOOOOOOOOOOOOOOOOO#",
"OOOOOOOOOOOOOOOOOOOOOOOOOOOOO#",
"OOOOOOOOOOOOOOOOOOOOOOOOOOOOO#",
"OOOOOOOOOOOOOOOOOOOOOOOOOOOOO#",
"OOOOOOOOOOOOOOOOOOOOOOOOOOOOO#",
"OOOOOOOOOOOOOOOOOOOOOOOOOOOOO#",
"OOOOOOOOOOOOOOOOOOOOOOOOOOOOO#",
"OOOOOOOOOOOOOOOOOOOOOOOOOOOOO#",
"oooooooooooooooooooooooooooooo",
"OOOOOOOOOOOOOOOOOOOOOOOOOOOOO#",
"OOOOOOOOOOOOOOOOOOOOOOOOOOOOO#",
"OOOOOOOOOOOOOOOOOOOOOOOOOOOOO#",
"OOOOOOOOOOOOOOOOOOOOOOOOOOOOO#",
"OOOOOOOOOOOOOOOOOOOOOOOOOOOOO#",
"OOOOOOOOOOOOOOOOOOOOOOOOOOOOO#",
"OOOOOOOOOOOOOOOOOOOOOOOOOOOOO#",
"OOOOOOOOOOOOOOOOOOOOOOOOOOOOO#",
"OOOOOOOOOOOOOOOOOOOOOOOOOOOOO#",
"oooooooooooooooooooooooooooooo",
"OOOOOOOOOOOOOOOOOOOOOOOOOOOOO#",
"OOOOOOOOOOOOOOOOOOOOOOOOOOOOO#",
"OOOOOOOOOOOOOOOOOOOOOOOOOOOOO#",
"OOOOOOOOOOOOOOOOOOOOOOOOOOOOO#",
"OOOOOOOOOOOOOOOOOOOOOOOOOOOOO#",
"OOOOOOOOOOOOOOOOOOOOOOOOOOOOO#",
"OOOOOOOOOOOOOOOOOOOOOOOOOOOOO#",
"OOOOOOOOOOOOOOOOOOOOOOOOOOOOO#",
"OOOOOOOOOOOOOOOOOOOOOOOOOOOOO#",
"oooooooooooooooooooooooooooooo",
"OOOOOOOOOOOOOOOOOOOOOOOOOOOOO#",
"OOOOOOOOOOOOOOOOOOOOOOOOOOOOO#",
"OOOOOOOOOOOOOOOOOOOOOOOOOOOOO#",
"OOOOOOOOOOOOOOOOOOOOOOOOOOOOO#",
"OOOOOOOOOOOOOOOOOOOOOOOOOOOOO#",
"OOOOOOOOOOOOOOOOOOOOOOOOOOOOO#",
"OOOOOOOOOOOOOOOOOOOOOOOOOOOOO#",
"OOOOOOOOOOOOOOOOOOOOOOOOOOOOO#",
"OOOOOOOOOOOOOOOOOOOOOOOOOOOOO#",
"oooooooooooooooooooooooooooooo",
"OOOOOOOOOOOOOOOOOOOOOOOOOOOOO#",
"OOOOOOOOOOOOOOOOOOOOOOOOOOOOO#",
"OOOOOOOOOOOOOOOOOOOOOOOOOOOOO#",
"OOOOOOOOOOOOOOOOOOOOOOOOOOOOO#",
"OOOOOOOOOOOOOOOOOOOOOOOOOOOOO#",
"OOOOOOOOOOOOOOOOOOOOOOOOOOOOO#",
"OOOOOOOOOOOOOOOOOOOOOOOOOOOOO#",
"OOOOOOOOOOOOOOOOOOOOOOOOOOOOO#",
"OOOOOOOOOOOOOOOOOOOOOOOOOOOOO#",
"oooooooooooooooooooooooooooooo",
"OOOOOOOOOOOOOOOOOOOOOOOOOOOOO#",
"OOOOOOOOOOOOOOOOOOOOOOOOOOOOO#",
"OOOOOOOOOOOOOOOOOOOOOOOOOOOOO#",
"OOOOOOOOOOOOOOOOOOOOOOOOOOOOO#",
"OOOOOOOOOOOOOOOOOOOOOOOOOOOOO#",
"OOOOOOOOOOOOOOOOOOOOOOOOOOOOO#",
"OOOOOOOOOOOOOOOOOOOOOOOOOOOOO#",
"OOOOOOOOOOOOOOOOOOOOOOOOOOOOO#",
"OOOOOOOOOOOOOOOOOOOOOOOOOOOOO#",
"oooooooooooooooooooooooooooooo",
"OOOOOOOOOOOOOOOOOOOOOOOOOOOOO#",
"OOOOOOOOOOOOOOOOOOOOOOOOOOOOO#",
"OOOOOOOOOOOOOOOOOOOOOOOOOOOOO#",
"OOOOOOOOOOOOOOOOOOOOOOOOOOOOO#",
"OOOOOOOOOOOOOOOOOOOOOOOOOOOOO#",
"OOOOOOOOOOOOOOOOOOOOOOOOOOOOO#",
"OOOOOOOOOOOOOOOOOOOOOOOOOOOOO#",
"OOOOOOOOOOOOOOOOOOOOOOOOOOOOO#",
"OOOOOOOOOOOOOOOOOOOOOOOOOOOOO#",
"oooooooooooooooooooooooooooooo",
"OOOOOOOOOOOOOOOOOOOOOOOOOOOOO#",
"OOOOOOOOOOOOOOOOOOOOOOOOOOOOO#",
"OOOOOOOOOOOOOOOOOOOOOOOOOOOOO#",
"OOOOOOOOOOOOOOOOOOOOOOOOOOOOO#",
"OOOOOOOOOOOOOOOOOOOOOOOOOOOOO#",
"OOOOOOOOOOOOOOOOOOOOOOOOOOOOO#",
"OOOOOOOOOOOOOOOOOOOOOOOOOOOOO#",
"OOOOOOOOOOOOOOOOOOOOOOOOOOOOO#",
"OOOOOOOOOOOOOOOOOOOOOOOOOOOOO#",
"oooooooooooooooooooooooooooooo",
"X+XXXXXXXXXXXXXXXXXXXXXX......",
"XXXXXXXXXXXXXXXXXXXXXXXX......",
"+++                     ......",
"++                      ......",
"++ + + + + + + + + + +  ......",
"++                      ......",
"++                      ......",
"++                      ......",
"++                      ......",
"@@@@@@@@@@@@@@@@@@@@@@@@......",
"X+XXXXXXXXXXXXXXXXXXXXXX......",
"XXXXXXXXXXXXXXXXXXXXXXXX......",
"+++                     ......",
"++                      ......",
"++ + + + + + + + + + +  ......",
"++                      ......",
"++                      ......",
"++                      ......",
"++                      ......",
"@@@@@@@@@@@@@@@@@@@@@@@@......",
"X+XXXXXXXXXXXXXXXXXXXXXX......",
"XXXXXXXXXXXXXXXXXXXXXXXX......",
"+++                     ......",
"++                      ......",
"++ + + + + + + + + + +  ......",
"++                      ......",
"++                      ......",
"++                      ......",
"++                      ......",
"@@@@@@@@@@@@@@@@@@@@@@@@......",
"X+XXXXXXXXXXXXXXXXXXXXXX......",
"XXXXXXXXXXXXXXXXXXXXXXXX......",
"+++                     ......",
"++                      ......",
"++ + + + + + + + + + +  ......",
"++                      ......",
"++                      ......",
"++                      ......",
"++                      ......",
"@@@@@@@@@@@@@@@@@@@@@@@@......",
"X+XXXXXXXXXXXXXXXXXXXXXX......",
"XXXXXXXXXXXXXXXXXXXXXXXX......",
"+++                     ......",
"++                      ......",
"++ + + + + + + + + + +  ......",
"++                      ......",
"++                      ......",
"++                      ......",
"++                      ......",
"@@@@@@@@@@@@@@@@@@@@@@@@......",
"X+XXXXXXXXXXXXXXXXXXXXXX......",
"XXXXXXXXXXXXXXXXXXXXXXXX......",
"+++                     ......",
"++                      ......",
"++ + + + + + + + + + +  ......",
"++                      ......",
"++                      ......",
"++                      ......",
"++                      ......",
"@@@@@@@@@@@@@@@@@@@@@@@@......",
"X+XXXXXXXXXXXXXXXXXXXXXX......",
"XXXXXXXXXXXXXXXXXXXXXXXX......",
"+++                     ......",
"++                      ......",
"++ + + + + + + + + + +  ......",
"++                      ......",
"++                      ......",
"++                      ......",
"++                      ......",
"@@@@@@@@@@@@@@@@@@@@@@@@......",
"X+XXXXXXXXXXXXXXXXXXXXXX......",
"XXXXXXXXXXXXXXXXXXXXXXXX......",
"+++                     ......",
"++                      ......",
"++ + + + + + + + + + +  ......",
"++                      ......",
"++                      ......",
"++                      ......",
"++                      ......",
"@@@@@@@@@@@@@@@@@@@@@@@@......",
"X+XXXXXXXXXXXXXXXXXXXXXX......",
"XXXXXXXXXXXXXXXXXXXXXXXX......",
"+++                     ......",
"++                      ......",
"++ + + + + + + + + + +  ......",
"++                      ......",
"++                      ......",
"++                      ......",
"++                      ......",
"@@@@@@@@@@@@@@@@@@@@@@@@......",
"X+XXXXXXXXXXXXXXXXXXXXXX......",
"XXXXXXXXXXXXXXXXXXXXXXXX......",
"+++                     ......",
"++                      ......",
"++ + + + + + + + + + +  ......",
"++                      ......",
"++                      ......",
"++                      ......",
"++                      ......"
};
