/* XPM */
static char *result[] = {
/* columns rows colors chars-per-pixel */
"31 201 8 1 ",
"  c black",
". c #C28500",
"X c #E99F00",
"o c #EFA800",
"O c #EFB011",
"+ c #BCB09D",
"@ c #D1C9B9",
"# c #FF0000",
/* pixels */
"++++++++++++++++++++++++++++++#",
"@@@@@@@@@@@@@@@@@@@@@@@@@@@@++#",
"@@@@@@@@@@@@@@@@@@@@@@@@@@@@++#",
"@@@@@@@@@@@@@@@@@@@@@@@@@@@@++#",
"@@@@@@@@@@@@@@@@@@@@@@@@@@@@++#",
"@@@@@@@@@@@@@@@@@@@@@@@@@@@@++#",
"@@@@@@@@@@@@@@@@@@@@@@@@@@@@++#",
"@@@@@@@@@@@@@@@@@@@@@@@@@@@@++#",
"@@@@@@@@@@@@@@@@@@@@@@@@@@@@++#",
"@@@@@@@@@@@@@@@@@@@@@@@@@@@@++#",
"++++++++++++++++++++++++++++++#",
"@@@@@@@@@@@@@@@@@@@@@@@@@@@@++#",
"@@@@@@@@@@@@@@@@@@@@@@@@@@@@++#",
"@@@@@@@@@@@@@@@@@@@@@@@@@@@@++#",
"@@@@@@@@@@@@@@@@@@@@@@@@@@@@++#",
"@@@@@@@@@@@@@@@@@@@@@@@@@@@@++#",
"@@@@@@@@@@@@@@@@@@@@@@@@@@@@++#",
"@@@@@@@@@@@@@@@@@@@@@@@@@@@@++#",
"@@@@@@@@@@@@@@@@@@@@@@@@@@@@++#",
"@@@@@@@@@@@@@@@@@@@@@@@@@@@@++#",
"++++++++++++++++++++++++++++++#",
"OOOOOOOOOOOOOOOOOOOOOOO       #",
"OOOOOOOOOOOOOOOOOOOOOOO       #",
"ooooooooooooooooooooooo       #",
"oXooooooooooooooooooooo       #",
"ooXoXoXoXoXoXoXoXoXoXoo       #",
"ooooooooooooooooooooooo       #",
"ooooooooooooooooooooooo       #",
"ooooooooooooooooooooooo       #",
"ooooooooooooooooooooooo       #",
".......................       #",
"OOOOOOOOOOOOOOOOOOOOOOO       #",
"OOOOOOOOOOOOOOOOOOOOOOO       #",
"ooooooooooooooooooooooo       #",
"oXooooooooooooooooooooo       #",
"ooXoXoXoXoXoXoXoXoXoXoo       #",
"ooooooooooooooooooooooo       #",
"ooooooooooooooooooooooo       #",
"ooooooooooooooooooooooo       #",
"ooooooooooooooooooooooo       #",
".......................       #",
"OOOOOOOOOOOOOOOOOOOOOOO       #",
"OOOOOOOOOOOOOOOOOOOOOOO       #",
"ooooooooooooooooooooooo       #",
"oXooooooooooooooooooooo       #",
"ooXoXoXoXoXoXoXoXoXoXoo       #",
"ooooooooooooooooooooooo       #",
"ooooooooooooooooooooooo       #",
"ooooooooooooooooooooooo       #",
"ooooooooooooooooooooooo       #",
".......................       #",
"OOOOOOOOOOOOOOOOOOOOOOO       #",
"OOOOOOOOOOOOOOOOOOOOOOO       #",
"ooooooooooooooooooooooo       #",
"oXooooooooooooooooooooo       #",
"ooXoXoXoXoXoXoXoXoXoXoo       #",
"ooooooooooooooooooooooo       #",
"ooooooooooooooooooooooo       #",
"ooooooooooooooooooooooo       #",
"ooooooooooooooooooooooo       #",
".......................       #",
"OOOOOOOOOOOOOOOOOOOOOOO       #",
"OOOOOOOOOOOOOOOOOOOOOOO       #",
"ooooooooooooooooooooooo       #",
"oXooooooooooooooooooooo       #",
"ooXoXoXoXoXoXoXoXoXoXoo       #",
"ooooooooooooooooooooooo       #",
"ooooooooooooooooooooooo       #",
"ooooooooooooooooooooooo       #",
"ooooooooooooooooooooooo       #",
".......................       #",
"OOOOOOOOOOOOOOOOOOOOOOO       #",
"OOOOOOOOOOOOOOOOOOOOOOO       #",
"ooooooooooooooooooooooo       #",
"oXooooooooooooooooooooo       #",
"ooXoXoXoXoXoXoXoXoXoXoo       #",
"ooooooooooooooooooooooo       #",
"ooooooooooooooooooooooo       #",
"ooooooooooooooooooooooo       #",
"ooooooooooooooooooooooo       #",
".......................       #",
"OOOOOOOOOOOOOOOOOOOOOOO       #",
"OOOOOOOOOOOOOOOOOOOOOOO       #",
"ooooooooooooooooooooooo       #",
"oXooooooooooooooooooooo       #",
"ooXoXoXoXoXoXoXoXoXoXoo       #",
"ooooooooooooooooooooooo       #",
"ooooooooooooooooooooooo       #",
"ooooooooooooooooooooooo       #",
"ooooooooooooooooooooooo       #",
".......................       #",
"OOOOOOOOOOOOOOOOOOOOOOO       #",
"OOOOOOOOOOOOOOOOOOOOOOO       #",
"ooooooooooooooooooooooo       #",
"oXooooooooooooooooooooo       #",
"ooXoXoXoXoXoXoXoXoXoXoo       #",
"ooooooooooooooooooooooo       #",
"ooooooooooooooooooooooo       #",
"ooooooooooooooooooooooo       #",
"ooooooooooooooooooooooo       #",
".......................       #",
"OOOOOOOOOOOOOOOOOOOOOOO       #",
"OOOOOOOOOOOOOOOOOOOOOOO       #",
"ooooooooooooooooooooooo       #",
"oXooooooooooooooooooooo       #",
"ooXoXoXoXoXoXoXoXoXoXoo       #",
"ooooooooooooooooooooooo       #",
"ooooooooooooooooooooooo       #",
"ooooooooooooooooooooooo       #",
"ooooooooooooooooooooooo       #",
".......................       #",
"OOOOOOOOOOOOOOOOOOOOOOO       #",
"OOOOOOOOOOOOOOOOOOOOOOO       #",
"ooooooooooooooooooooooo       #",
"oXooooooooooooooooooooo       #",
"ooXoXoXoXoXoXoXoXoXoXoo       #",
"ooooooooooooooooooooooo       #",
"ooooooooooooooooooooooo       #",
"ooooooooooooooooooooooo       #",
"ooooooooooooooooooooooo       #",
".......................       #",
"OOOOOOOOOOOOOOOOOOOOOOO       #",
"OOOOOOOOOOOOOOOOOOOOOOO       #",
"ooooooooooooooooooooooo       #",
"oXooooooooooooooooooooo       #",
"ooXoXoXoXoXoXoXoXoXoXoo       #",
"ooooooooooooooooooooooo       #",
"ooooooooooooooooooooooo       #",
"ooooooooooooooooooooooo       #",
"ooooooooooooooooooooooo       #",
".......................       #",
"OOOOOOOOOOOOOOOOOOOOOOO       #",
"OOOOOOOOOOOOOOOOOOOOOOO       #",
"ooooooooooooooooooooooo       #",
"oXooooooooooooooooooooo       #",
"ooXoXoXoXoXoXoXoXoXoXoo       #",
"ooooooooooooooooooooooo       #",
"ooooooooooooooooooooooo       #",
"ooooooooooooooooooooooo       #",
"ooooooooooooooooooooooo       #",
".......................       #",
"OOOOOOOOOOOOOOOOOOOOOOO       #",
"OOOOOOOOOOOOOOOOOOOOOOO       #",
"ooooooooooooooooooooooo       #",
"oXooooooooooooooooooooo       #",
"ooXoXoXoXoXoXoXoXoXoXoo       #",
"ooooooooooooooooooooooo       #",
"ooooooooooooooooooooooo       #",
"ooooooooooooooooooooooo       #",
"ooooooooooooooooooooooo       #",
".......................       #",
"OOOOOOOOOOOOOOOOOOOOOOO       #",
"OOOOOOOOOOOOOOOOOOOOOOO       #",
"ooooooooooooooooooooooo       #",
"oXooooooooooooooooooooo       #",
"ooXoXoXoXoXoXoXoXoXoXoo       #",
"ooooooooooooooooooooooo       #",
"ooooooooooooooooooooooo       #",
"ooooooooooooooooooooooo       #",
"ooooooooooooooooooooooo       #",
".......................       #",
"OOOOOOOOOOOOOOOOOOOOOOO       #",
"OOOOOOOOOOOOOOOOOOOOOOO       #",
"ooooooooooooooooooooooo       #",
"oXooooooooooooooooooooo       #",
"ooXoXoXoXoXoXoXoXoXoXoo       #",
"ooooooooooooooooooooooo       #",
"ooooooooooooooooooooooo       #",
"ooooooooooooooooooooooo       #",
"ooooooooooooooooooooooo       #",
".......................       #",
"OOOOOOOOOOOOOOOOOOOOOOO       #",
"OOOOOOOOOOOOOOOOOOOOOOO       #",
"ooooooooooooooooooooooo       #",
"oXooooooooooooooooooooo       #",
"ooXoXoXoXoXoXoXoXoXoXoo       #",
"ooooooooooooooooooooooo       #",
"ooooooooooooooooooooooo       #",
"ooooooooooooooooooooooo       #",
"ooooooooooooooooooooooo       #",
".......................       #",
"OOOOOOOOOOOOOOOOOOOOOOO       #",
"OOOOOOOOOOOOOOOOOOOOOOO       #",
"ooooooooooooooooooooooo       #",
"oXooooooooooooooooooooo       #",
"ooXoXoXoXoXoXoXoXoXoXoo       #",
"ooooooooooooooooooooooo       #",
"ooooooooooooooooooooooo       #",
"ooooooooooooooooooooooo       #",
"ooooooooooooooooooooooo       #",
".......................       #",
"OOOOOOOOOOOOOOOOOOOOOOO       #",
"OOOOOOOOOOOOOOOOOOOOOOO       #",
"ooooooooooooooooooooooo       #",
"oXooooooooooooooooooooo       #",
"ooXoXoXoXoXoXoXoXoXoXoo       #",
"ooooooooooooooooooooooo       #",
"ooooooooooooooooooooooo       #",
"ooooooooooooooooooooooo       #",
"ooooooooooooooooooooooo       #",
".......................       #"
};
