/* XPM */
static char *result[] = {
/* columns rows colors chars-per-pixel */
"31 200 6 1 ",
"  c black",
". c #C28500",
"X c #E99F00",
"o c #EFA800",
"O c #EFB011",
"+ c None",
/* pixels */
"+OOOOOOOOOOOOOOOOOOOOOOOO      ",
"+OOOOOOOOOOOOOOOOOOOOOOOO      ",
"+XXXooooooooooooooooooooo      ",
"+XXoooooooooooooooooooooo      ",
"+XXoXoXoXoXoXoXoXoXoXoXoo      ",
"+XXoooooooooooooooooooooo      ",
"+XXoooooooooooooooooooooo      ",
"+XXoooooooooooooooooooooo      ",
"+XXoooooooooooooooooooooo      ",
"+........................      ",
"+OXOOOOOOOOOOOOOOOOOOOOOO      ",
"+OOOOOOOOOOOOOOOOOOOOOOOO      ",
"+XXXooooooooooooooooooooo      ",
"+XXoooooooooooooooooooooo      ",
"+XXoXoXoXoXoXoXoXoXoXoXoo      ",
"+XXoooooooooooooooooooooo      ",
"+XXoooooooooooooooooooooo      ",
"+XXoooooooooooooooooooooo      ",
"+XXoooooooooooooooooooooo      ",
"+........................      ",
"+OXOOOOOOOOOOOOOOOOOOOOOO      ",
"+OOOOOOOOOOOOOOOOOOOOOOOO      ",
"+XXXooooooooooooooooooooo      ",
"+XXoooooooooooooooooooooo      ",
"+XXoXoXoXoXoXoXoXoXoXoXoo      ",
"+XXoooooooooooooooooooooo      ",
"+XXoooooooooooooooooooooo      ",
"+XXoooooooooooooooooooooo      ",
"+XXoooooooooooooooooooooo      ",
"+........................      ",
"+OXOOOOOOOOOOOOOOOOOOOOOO      ",
"+OOOOOOOOOOOOOOOOOOOOOOOO      ",
"+XXXooooooooooooooooooooo      ",
"+XXoooooooooooooooooooooo      ",
"+XXoXoXoXoXoXoXoXoXoXoXoo      ",
"+XXoooooooooooooooooooooo      ",
"+XXoooooooooooooooooooooo      ",
"+XXoooooooooooooooooooooo      ",
"+XXoooooooooooooooooooooo      ",
"+........................      ",
"+OXOOOOOOOOOOOOOOOOOOOOOO      ",
"+OOOOOOOOOOOOOOOOOOOOOOOO      ",
"+XXXooooooooooooooooooooo      ",
"+XXoooooooooooooooooooooo      ",
"+XXoXoXoXoXoXoXoXoXoXoXoo      ",
"+XXoooooooooooooooooooooo      ",
"+XXoooooooooooooooooooooo      ",
"+XXoooooooooooooooooooooo      ",
"+XXoooooooooooooooooooooo      ",
"+........................      ",
"+OXOOOOOOOOOOOOOOOOOOOOOO      ",
"+OOOOOOOOOOOOOOOOOOOOOOOO      ",
"+XXXooooooooooooooooooooo      ",
"+XXoooooooooooooooooooooo      ",
"+XXoXoXoXoXoXoXoXoXoXoXoo      ",
"+XXoooooooooooooooooooooo      ",
"+XXoooooooooooooooooooooo      ",
"+XXoooooooooooooooooooooo      ",
"+XXoooooooooooooooooooooo      ",
"+........................      ",
"+OXOOOOOOOOOOOOOOOOOOOOOO      ",
"+OOOOOOOOOOOOOOOOOOOOOOOO      ",
"+XXXooooooooooooooooooooo      ",
"+XXoooooooooooooooooooooo      ",
"+XXoXoXoXoXoXoXoXoXoXoXoo      ",
"+XXoooooooooooooooooooooo      ",
"+XXoooooooooooooooooooooo      ",
"+XXoooooooooooooooooooooo      ",
"+XXoooooooooooooooooooooo      ",
"+........................      ",
"+OXOOOOOOOOOOOOOOOOOOOOOO      ",
"+OOOOOOOOOOOOOOOOOOOOOOOO      ",
"+XXXooooooooooooooooooooo      ",
"+XXoooooooooooooooooooooo      ",
"+XXoXoXoXoXoXoXoXoXoXoXoo      ",
"+XXoooooooooooooooooooooo      ",
"+XXoooooooooooooooooooooo      ",
"+XXoooooooooooooooooooooo      ",
"+XXoooooooooooooooooooooo      ",
"+........................      ",
"+OXOOOOOOOOOOOOOOOOOOOOOO      ",
"+OOOOOOOOOOOOOOOOOOOOOOOO      ",
"+XXXooooooooooooooooooooo      ",
"+XXoooooooooooooooooooooo      ",
"+XXoXoXoXoXoXoXoXoXoXoXoo      ",
"+XXoooooooooooooooooooooo      ",
"+XXoooooooooooooooooooooo      ",
"+XXoooooooooooooooooooooo      ",
"+XXoooooooooooooooooooooo      ",
"+........................      ",
"+OXOOOOOOOOOOOOOOOOOOOOOO      ",
"+OOOOOOOOOOOOOOOOOOOOOOOO      ",
"+XXXooooooooooooooooooooo      ",
"+XXoooooooooooooooooooooo      ",
"+XXoXoXoXoXoXoXoXoXoXoXoo      ",
"+XXoooooooooooooooooooooo      ",
"+XXoooooooooooooooooooooo      ",
"+XXoooooooooooooooooooooo      ",
"+XXoooooooooooooooooooooo      ",
"+........................      ",
"+OXOOOOOOOOOOOOOOOOOOOOOO      ",
"+OOOOOOOOOOOOOOOOOOOOOOOO      ",
"+XXXooooooooooooooooooooo      ",
"+XXoooooooooooooooooooooo      ",
"+XXoXoXoXoXoXoXoXoXoXoXoo      ",
"+XXoooooooooooooooooooooo      ",
"+XXoooooooooooooooooooooo      ",
"+XXoooooooooooooooooooooo      ",
"+XXoooooooooooooooooooooo      ",
"+........................      ",
"+OXOOOOOOOOOOOOOOOOOOOOOO      ",
"+OOOOOOOOOOOOOOOOOOOOOOOO      ",
"+XXXooooooooooooooooooooo      ",
"+XXoooooooooooooooooooooo      ",
"+XXoXoXoXoXoXoXoXoXoXoXoo      ",
"+XXoooooooooooooooooooooo      ",
"+XXoooooooooooooooooooooo      ",
"+XXoooooooooooooooooooooo      ",
"+XXoooooooooooooooooooooo      ",
"+........................      ",
"+OXOOOOOOOOOOOOOOOOOOOOOO      ",
"+OOOOOOOOOOOOOOOOOOOOOOOO      ",
"+XXXooooooooooooooooooooo      ",
"+XXoooooooooooooooooooooo      ",
"+XXoXoXoXoXoXoXoXoXoXoXoo      ",
"+XXoooooooooooooooooooooo      ",
"+XXoooooooooooooooooooooo      ",
"+XXoooooooooooooooooooooo      ",
"+XXoooooooooooooooooooooo      ",
"+........................      ",
"+OXOOOOOOOOOOOOOOOOOOOOOO      ",
"+OOOOOOOOOOOOOOOOOOOOOOOO      ",
"+XXXooooooooooooooooooooo      ",
"+XXoooooooooooooooooooooo      ",
"+XXoXoXoXoXoXoXoXoXoXoXoo      ",
"+XXoooooooooooooooooooooo      ",
"+XXoooooooooooooooooooooo      ",
"+XXoooooooooooooooooooooo      ",
"+XXoooooooooooooooooooooo      ",
"+........................      ",
"+OXOOOOOOOOOOOOOOOOOOOOOO      ",
"+OOOOOOOOOOOOOOOOOOOOOOOO      ",
"+XXXooooooooooooooooooooo      ",
"+XXoooooooooooooooooooooo      ",
"+XXoXoXoXoXoXoXoXoXoXoXoo      ",
"+XXoooooooooooooooooooooo      ",
"+XXoooooooooooooooooooooo      ",
"+XXoooooooooooooooooooooo      ",
"+XXoooooooooooooooooooooo      ",
"+........................      ",
"+OXOOOOOOOOOOOOOOOOOOOOOO      ",
"+OOOOOOOOOOOOOOOOOOOOOOOO      ",
"+XXXooooooooooooooooooooo      ",
"+XXoooooooooooooooooooooo      ",
"+XXoXoXoXoXoXoXoXoXoXoXoo      ",
"+XXoooooooooooooooooooooo      ",
"+XXoooooooooooooooooooooo      ",
"+XXoooooooooooooooooooooo      ",
"+XXoooooooooooooooooooooo      ",
"+........................      ",
"+OXOOOOOOOOOOOOOOOOOOOOOO      ",
"+OOOOOOOOOOOOOOOOOOOOOOOO      ",
"+XXXooooooooooooooooooooo      ",
"+XXoooooooooooooooooooooo      ",
"+XXoXoXoXoXoXoXoXoXoXoXoo      ",
"+XXoooooooooooooooooooooo      ",
"+XXoooooooooooooooooooooo      ",
"+XXoooooooooooooooooooooo      ",
"+XXoooooooooooooooooooooo      ",
"+........................      ",
"+OXOOOOOOOOOOOOOOOOOOOOOO      ",
"+OOOOOOOOOOOOOOOOOOOOOOOO      ",
"+XXXooooooooooooooooooooo      ",
"+XXoooooooooooooooooooooo      ",
"+XXoXoXoXoXoXoXoXoXoXoXoo      ",
"+XXoooooooooooooooooooooo      ",
"+XXoooooooooooooooooooooo      ",
"+XXoooooooooooooooooooooo      ",
"+XXoooooooooooooooooooooo      ",
"+........................      ",
"+OXOOOOOOOOOOOOOOOOOOOOOO      ",
"+OOOOOOOOOOOOOOOOOOOOOOOO      ",
"+XXXooooooooooooooooooooo      ",
"+XXoooooooooooooooooooooo      ",
"+XXoXoXoXoXoXoXoXoXoXoXoo      ",
"+XXoooooooooooooooooooooo      ",
"+XXoooooooooooooooooooooo      ",
"+XXoooooooooooooooooooooo      ",
"+XXoooooooooooooooooooooo      ",
"+........................      ",
"+OXOOOOOOOOOOOOOOOOOOOOOO      ",
"+OOOOOOOOOOOOOOOOOOOOOOOO      ",
"+XXXooooooooooooooooooooo      ",
"+XXoooooooooooooooooooooo      ",
"+XXoXoXoXoXoXoXoXoXoXoXoo      ",
"+XXoooooooooooooooooooooo      ",
"+XXoooooooooooooooooooooo      ",
"+XXoooooooooooooooooooooo      ",
"+XXoooooooooooooooooooooo      ",
"+........................      "
};
