/* XPM */
static char *result[] = {
/* columns rows colors chars-per-pixel */
"31 201 7 1 ",
"  c #EFA700",
". c black",
"X c #BFB4A1",
"o c #D1C9B9",
"O c #B2A591",
"+ c #EFB011",
"@ c #C28500",
/* pixels */
"XXXXXXXXXXXXXXXXXXXXXXXXXXXXXXX",
"oooooooooooooooooooooooooooooOO",
"oooooooooooooooooooooooooooooOO",
"oooooooooooooooooooooooooooooOO",
"oooooooooooooooooooooooooooooOO",
"oooooooooooooooooooooooooooooOO",
"oooooooooooooooooooooooooooooOO",
"oooooooooooooooooooooooooooooOO",
"oooooooooooooooooooooooooooooOO",
"oooooooooooooooooooooooooooooOO",
"XXXXXXXXXXXXXXXXXXXXXXXXXXXXXXX",
"oooooooooooooooooooooooooooooOO",
"oooooooooooooooooooooooooooooOO",
"oooooooooooooooooooooooooooooOO",
"oooooooooooooooooooooooooooooOO",
"oooooooooooooooooooooooooooooOO",
"oooooooooooooooooooooooooooooOO",
"oooooooooooooooooooooooooooooOO",
"oooooooooooooooooooooooooooooOO",
"oooooooooooooooooooooooooooooOO",
"XXXXXXXXXXXXXXXXXXXXXXXXXXXXXXX",
"oooooooooooooooooooooooooooooOO",
"oooooooooooooooooooooooooooooOO",
"oooooooooooooooooooooooooooooOO",
"oooooooooooooooooooooooooooooOO",
"oooooooooooooooooooooooooooooOO",
"oooooooooooooooooooooooooooooOO",
"oooooooooooooooooooooooooooooOO",
"oooooooooooooooooooooooooooooOO",
"oooooooooooooooooooooooooooooOO",
"XXXXXXXXXXXXXXXXXXXXXXXXXXXXXXX",
"oooooooooooooooooooooooooooooOO",
"oooooooooooooooooooooooooooooOO",
"oooooooooooooooooooooooooooooOO",
"oooooooooooooooooooooooooooooOO",
"oooooooooooooooooooooooooooooOO",
"oooooooooooooooooooooooooooooOO",
"oooooooooooooooooooooooooooooOO",
"oooooooooooooooooooooooooooooOO",
"oooooooooooooooooooooooooooooOO",
"XXXXXXXXXXXXXXXXXXXXXXXXXXXXXXX",
"oooooooooooooooooooooooooooooOO",
"oooooooooooooooooooooooooooooOO",
"oooooooooooooooooooooooooooooOO",
"oooooooooooooooooooooooooooooOO",
"oooooooooooooooooooooooooooooOO",
"oooooooooooooooooooooooooooooOO",
"oooooooooooooooooooooooooooooOO",
"oooooooooooooooooooooooooooooOO",
"oooooooooooooooooooooooooooooOO",
"XXXXXXXXXXXXXXXXXXXXXXXXXXXXXXX",
"oooooooooooooooooooooooooooooOO",
"oooooooooooooooooooooooooooooOO",
"oooooooooooooooooooooooooooooOO",
"oooooooooooooooooooooooooooooOO",
"oooooooooooooooooooooooooooooOO",
"oooooooooooooooooooooooooooooOO",
"oooooooooooooooooooooooooooooOO",
"oooooooooooooooooooooooooooooOO",
"oooooooooooooooooooooooooooooOO",
"XXXXXXXXXXXXXXXXXXXXXXXXXXXXXXX",
"oooooooooooooooooooooooooooooOO",
"oooooooooooooooooooooooooooooOO",
"oooooooooooooooooooooooooooooOO",
"oooooooooooooooooooooooooooooOO",
"oooooooooooooooooooooooooooooOO",
"oooooooooooooooooooooooooooooOO",
"oooooooooooooooooooooooooooooOO",
"oooooooooooooooooooooooooooooOO",
"oooooooooooooooooooooooooooooOO",
"XXXXXXXXXXXXXXXXXXXXXXXXXXXXXXX",
"oooooooooooooooooooooooooooooOO",
"oooooooooooooooooooooooooooooOO",
"oooooooooooooooooooooooooooooOO",
"oooooooooooooooooooooooooooooOO",
"oooooooooooooooooooooooooooooOO",
"oooooooooooooooooooooooooooooOO",
"oooooooooooooooooooooooooooooOO",
"oooooooooooooooooooooooooooooOO",
"oooooooooooooooooooooooooooooOO",
"XXXXXXXXXXXXXXXXXXXXXXXXXXXXXXX",
"oooooooooooooooooooooooooooooOO",
"oooooooooooooooooooooooooooooOO",
"oooooooooooooooooooooooooooooOO",
"oooooooooooooooooooooooooooooOO",
"oooooooooooooooooooooooooooooOO",
"oooooooooooooooooooooooooooooOO",
"oooooooooooooooooooooooooooooOO",
"oooooooooooooooooooooooooooooOO",
"oooooooooooooooooooooooooooooOO",
"XXXXXXXXXXXXXXXXXXXXXXXXXXXXXXX",
"oooooooooooooooooooooooooooooOO",
"oooooooooooooooooooooooooooooOO",
"oooooooooooooooooooooooooooooOO",
"oooooooooooooooooooooooooooooOO",
"oooooooooooooooooooooooooooooOO",
"oooooooooooooooooooooooooooooOO",
"oooooooooooooooooooooooooooooOO",
"oooooooooooooooooooooooooooooOO",
"oooooooooooooooooooooooooooooOO",
"XXXXXXXXXXXXXXXXXXXXXXXXXXXXXXX",
"oooooooooooooooooooooooooooooOO",
"oooooooooooooooooooooooooooooOO",
"oooooooooooooooooooooooooooooOO",
"oooooooooooooooooooooooooooooOO",
"oooooooooooooooooooooooooooooOO",
"oooooooooooooooooooooooooooooOO",
"oooooooooooooooooooooooooooooOO",
"oooooooooooooooooooooooooooooOO",
"oooooooooooooooooooooooooooooOO",
"XXXXXXXXXXXXXXXXXXXXXXXXXXXXXXX",
"oooooooooooooooooooooooooooooOO",
"oooooooooooooooooooooooooooooOO",
"oooooooooooooooooooooooooooooOO",
"oooooooooooooooooooooooooooooOO",
"oooooooooooooooooooooooooooooOO",
"oooooooooooooooooooooooooooooOO",
"oooooooooooooooooooooooooooooOO",
"oooooooooooooooooooooooooooooOO",
"oooooooooooooooooooooooooooooOO",
"XXXXXXXXXXXXXXXXXXXXXXXXXXXXXXX",
"oooooooooooooooooooooooooooooOO",
"oooooooooooooooooooooooooooooOO",
"oooooooooooooooooooooooooooooOO",
"oooooooooooooooooooooooooooooOO",
"oooooooooooooooooooooooooooooOO",
"oooooooooooooooooooooooooooooOO",
"oooooooooooooooooooooooooooooOO",
"oooooooooooooooooooooooooooooOO",
"oooooooooooooooooooooooooooooOO",
"XXXXXXXXXXXXXXXXXXXXXXXXXXXXXXX",
"oooooooooooooooooooooooooooooOO",
"oooooooooooooooooooooooooooooOO",
"oooooooooooooooooooooooooooooOO",
"oooooooooooooooooooooooooooooOO",
"oooooooooooooooooooooooooooooOO",
"oooooooooooooooooooooooooooooOO",
"oooooooooooooooooooooooooooooOO",
"oooooooooooooooooooooooooooooOO",
"oooooooooooooooooooooooooooooOO",
"XXXXXXXXXXXXXXXXXXXXXXXXXXXXXXX",
"oooooooooooooooooooooooooooooOO",
"oooooooooooooooooooooooooooooOO",
"oooooooooooooooooooooooooooooOO",
"oooooooooooooooooooooooooooooOO",
"oooooooooooooooooooooooooooooOO",
"oooooooooooooooooooooooooooooOO",
"oooooooooooooooooooooooooooooOO",
"oooooooooooooooooooooooooooooOO",
"oooooooooooooooooooooooooooooOO",
"XXXXXXXXXXXXXXXXXXXXXXXXXXXXXXX",
"+ ++++++++++++++++++++++.......",
"++++++++++++++++++++++++.......",
"                        .......",
"                        .......",
"                        .......",
"                        .......",
"@                       .......",
"                        .......",
"                        .......",
"@@@@@@@@@@@@@@@@@@@@@@@@.......",
"+ ++++++++++++++++++++++.......",
"++++++++++++++++++++++++.......",
"                        .......",
"                        .......",
"                        .......",
"                        .......",
"@                       .......",
"                        .......",
"                        .......",
"@@@@@@@@@@@@@@@@@@@@@@@@.......",
"+ ++++++++++++++++++++++.......",
"++++++++++++++++++++++++.......",
"                        .......",
"                        .......",
"                        .......",
"                        .......",
"@                       .......",
"                        .......",
"                        .......",
"@@@@@@@@@@@@@@@@@@@@@@@@.......",
"+ ++++++++++++++++++++++.......",
"++++++++++++++++++++++++.......",
"                        .......",
"                        .......",
"                        .......",
"                        .......",
"@                       .......",
"                        .......",
"                        .......",
"@@@@@@@@@@@@@@@@@@@@@@@@.......",
"+ ++++++++++++++++++++++.......",
"++++++++++++++++++++++++.......",
"                        .......",
"                        .......",
"                        .......",
"                        .......",
"@                       .......",
"                        .......",
"                        .......",
"@@@@@@@@@@@@@@@@@@@@@@@@......."
};
