/* XPM */
static char *result[] = {
/* columns rows colors chars-per-pixel */
"31 201 8 1 ",
"  c #E99F00",
". c #EFA800",
"X c #C28500",
"o c black",
"O c #EFB011",
"+ c #D1C9B9",
"@ c #BFB4A1",
"# c #B2A591",
/* pixels */
"@@@@@@@@@@@@@@@@@@@@@@@@@@@@@@@",
"+++++++++++++++++++++++++++++##",
"+++++++++++++++++++++++++++++##",
"+++++++++++++++++++++++++++++##",
"+++++++++++++++++++++++++++++##",
"+++++++++++++++++++++++++++++##",
"+++++++++++++++++++++++++++++##",
"+++++++++++++++++++++++++++++##",
"+++++++++++++++++++++++++++++##",
"+++++++++++++++++++++++++++++##",
"@@@@@@@@@@@@@@@@@@@@@@@@@@@@@@@",
"+++++++++++++++++++++++++++++##",
"+++++++++++++++++++++++++++++##",
"+++++++++++++++++++++++++++++##",
"+++++++++++++++++++++++++++++##",
"+++++++++++++++++++++++++++++##",
"+++++++++++++++++++++++++++++##",
"+++++++++++++++++++++++++++++##",
"+++++++++++++++++++++++++++++##",
"+++++++++++++++++++++++++++++##",
"@@@@@@@@@@@@@@@@@@@@@@@@@@@@@@@",
"+++++++++++++++++++++++++++++##",
"+++++++++++++++++++++++++++++##",
"+++++++++++++++++++++++++++++##",
"+++++++++++++++++++++++++++++##",
"+++++++++++++++++++++++++++++##",
"+++++++++++++++++++++++++++++##",
"+++++++++++++++++++++++++++++##",
"+++++++++++++++++++++++++++++##",
"+++++++++++++++++++++++++++++##",
"@@@@@@@@@@@@@@@@@@@@@@@@@@@@@@@",
"+++++++++++++++++++++++++++++##",
"+++++++++++++++++++++++++++++##",
"+++++++++++++++++++++++++++++##",
"+++++++++++++++++++++++++++++##",
"+++++++++++++++++++++++++++++##",
"+++++++++++++++++++++++++++++##",
"+++++++++++++++++++++++++++++##",
"+++++++++++++++++++++++++++++##",
"+++++++++++++++++++++++++++++##",
"@@@@@@@@@@@@@@@@@@@@@@@@@@@@@@@",
"+++++++++++++++++++++++++++++##",
"+++++++++++++++++++++++++++++##",
"+++++++++++++++++++++++++++++##",
"+++++++++++++++++++++++++++++##",
"+++++++++++++++++++++++++++++##",
"+++++++++++++++++++++++++++++##",
"+++++++++++++++++++++++++++++##",
"+++++++++++++++++++++++++++++##",
"+++++++++++++++++++++++++++++##",
"@@@@@@@@@@@@@@@@@@@@@@@@@@@@@@@",
"+++++++++++++++++++++++++++++##",
"+++++++++++++++++++++++++++++##",
"+++++++++++++++++++++++++++++##",
"+++++++++++++++++++++++++++++##",
"+++++++++++++++++++++++++++++##",
"+++++++++++++++++++++++++++++##",
"+++++++++++++++++++++++++++++##",
"+++++++++++++++++++++++++++++##",
"+++++++++++++++++++++++++++++##",
"@@@@@@@@@@@@@@@@@@@@@@@@@@@@@@@",
"OOOOOOOOOOOOOOOOOOOOOOOOooooooo",
"O OOOOOOOOOOOOOOOOOOOOOOooooooo",
"  ......................ooooooo",
"  ......................ooooooo",
"   . . . . . . . . . . .ooooooo",
"  ......................ooooooo",
"  ......................ooooooo",
"  ......................ooooooo",
"  ......................ooooooo",
"XXXXXXXXXXXXXXXXXXXXXXXXooooooo",
"OOOOOOOOOOOOOOOOOOOOOOOOooooooo",
"O OOOOOOOOOOOOOOOOOOOOOOooooooo",
"  ...... ...............ooooooo",
"  ... ..... . ..........ooooooo",
"   . .. ........ . . . .ooooooo",
"  ....... ... ..........ooooooo",
"  ......................ooooooo",
"  ......................ooooooo",
"  ......................ooooooo",
"XXXXXXXXXXXXXXXXXXXXXXXXooooooo",
"OOOOOOOOOOOOOOOOOOOOOOOOooooooo",
"O OOOOOOOOOOOOOOOOOOOOOOooooooo",
"  ...... ...............ooooooo",
"  ... ..... . ..........ooooooo",
"   . .. ........ . . . .ooooooo",
"  ....... ... ..........ooooooo",
"  ......................ooooooo",
"  ......................ooooooo",
"  ......................ooooooo",
"XXXXXXXXXXXXXXXXXXXXXXXXooooooo",
"OOOOOOOOOOOOOOOOOOOOOOOOooooooo",
"O OOOOOOOOOOOOOOOOOOOOOOooooooo",
"  ...... ...............ooooooo",
"  ... ..... . ..........ooooooo",
"   . .. ........ . . . .ooooooo",
"  ....... ... ..........ooooooo",
"  ......................ooooooo",
"  ......................ooooooo",
"  ......................ooooooo",
"XXXXXXXXXXXXXXXXXXXXXXXXooooooo",
"OOOOOOOOOOOOOOOOOOOOOOOOooooooo",
"O OOOOOOOOOOOOOOOOOOOOOOooooooo",
"  ...... ...............ooooooo",
"  ... ..... . ..........ooooooo",
"   . .. ........ . . . .ooooooo",
"  ....... ... ..........ooooooo",
"  ......................ooooooo",
"  ......................ooooooo",
"  ......................ooooooo",
"XXXXXXXXXXXXXXXXXXXXXXXXooooooo",
"OOOOOOOOOOOOOOOOOOOOOOOOooooooo",
"O OOOOOOOOOOOOOOOOOOOOOOooooooo",
"  ...... ...............ooooooo",
"  ... ..... . ..........ooooooo",
"   . .. ........ . . . .ooooooo",
"  ....... ... ..........ooooooo",
"  ......................ooooooo",
"  ......................ooooooo",
"  ......................ooooooo",
"XXXXXXXXXXXXXXXXXXXXXXXXooooooo",
"OOOOOOOOOOOOOOOOOOOOOOOOooooooo",
"O OOOOOOOOOOOOOOOOOOOOOOooooooo",
"  ...... ...............ooooooo",
"  ... ..... . ..........ooooooo",
"   . .. ........ . . . .ooooooo",
"  ....... ... ..........ooooooo",
"  ......................ooooooo",
"  ......................ooooooo",
"  ......................ooooooo",
"XXXXXXXXXXXXXXXXXXXXXXXXooooooo",
"OOOOOOOOOOOOOOOOOOOOOOOOooooooo",
"O OOOOOOOOOOOOOOOOOOOOOOooooooo",
"  ...... ...............ooooooo",
"  ... ..... . ..........ooooooo",
"   . .. ........ . . . .ooooooo",
"  ....... ... ..........ooooooo",
"  ......................ooooooo",
"  ......................ooooooo",
"  ......................ooooooo",
"XXXXXXXXXXXXXXXXXXXXXXXXooooooo",
"OOOOOOOOOOOOOOOOOOOOOOOOooooooo",
"O OOOOOOOOOOOOOOOOOOOOOOooooooo",
"  ...... ...............ooooooo",
"  ... ..... . ..........ooooooo",
"   . .. ........ . . . .ooooooo",
"  ....... ... ..........ooooooo",
"  ......................ooooooo",
"  ......................ooooooo",
"  ......................ooooooo",
"XXXXXXXXXXXXXXXXXXXXXXXXooooooo",
"OOOOOOOOOOOOOOOOOOOOOOOOooooooo",
"O OOOOOOOOOOOOOOOOOOOOOOooooooo",
"  ...... ...............ooooooo",
"  ... ..... . ..........ooooooo",
"   . .. ........ . . . .ooooooo",
"  ....... ... ..........ooooooo",
"  ......................ooooooo",
"  ......................ooooooo",
"  ......................ooooooo",
"XXXXXXXXXXXXXXXXXXXXXXXXooooooo",
"OOOOOOOOOOOOOOOOOOOOOOOOooooooo",
"O OOOOOOOOOOOOOOOOOOOOOOooooooo",
"  ...... ...............ooooooo",
"  ... ..... . ..........ooooooo",
"   . .. ........ . . . .ooooooo",
"  ....... ... ..........ooooooo",
"  ......................ooooooo",
"  ......................ooooooo",
"  ......................ooooooo",
"XXXXXXXXXXXXXXXXXXXXXXXXooooooo",
"OOOOOOOOOOOOOOOOOOOOOOOOooooooo",
"O OOOOOOOOOOOOOOOOOOOOOOooooooo",
"  ...... ...............ooooooo",
"  ... ..... . ..........ooooooo",
"   . .. ........ . . . .ooooooo",
"  ....... ... ..........ooooooo",
"  ......................ooooooo",
"  ......................ooooooo",
"  ......................ooooooo",
"XXXXXXXXXXXXXXXXXXXXXXXXooooooo",
"OOOOOOOOOOOOOOOOOOOOOOOOooooooo",
"O OOOOOOOOOOOOOOOOOOOOOOooooooo",
"  ...... ...............ooooooo",
"  ... ..... . ..........ooooooo",
"   . .. ........ . . . .ooooooo",
"  ....... ... ..........ooooooo",
"  ......................ooooooo",
"  ......................ooooooo",
"  ......................ooooooo",
"XXXXXXXXXXXXXXXXXXXXXXXXooooooo",
"OOOOOOOOOOOOOOOOOOOOOOOOooooooo",
"O OOOOOOOOOOOOOOOOOOOOOOooooooo",
"  ......................ooooooo",
"  ......................ooooooo",
"   . . . . . . . . . . .ooooooo",
"  ......................ooooooo",
"  ......................ooooooo",
"  ......................ooooooo",
"  ......................ooooooo",
"XXXXXXXXXXXXXXXXXXXXXXXXooooooo"
};
