/* XPM */
static char *result[] = {
/* columns rows colors chars-per-pixel */
"31 201 7 1 ",
"  c #EEA700",
". c #B2A591",
"X c #BFB4A1",
"o c #D1C9B9",
"O c black",
"+ c #EFB011",
"@ c #C28500",
/* pixels */
"XXXXXXXXXXXXXXXXXXXXXXXXXXXXXXX",
"ooooooooooooooooooooooooooooo..",
"ooooooooooooooooooooooooooooo..",
"ooooooooooooooooooooooooooooo..",
"ooooooooooooooooooooooooooooo..",
"ooooooooooooooooooooooooooooo..",
"ooooooooooooooooooooooooooooo..",
"ooooooooooooooooooooooooooooo..",
"ooooooooooooooooooooooooooooo..",
"ooooooooooooooooooooooooooooo..",
"XXXXXXXXXXXXXXXXXXXXXXXXXXXXXXX",
"ooooooooooooooooooooooooooooo..",
"ooooooooooooooooooooooooooooo..",
"ooooooooooooooooooooooooooooo..",
"ooooooooooooooooooooooooooooo..",
"ooooooooooooooooooooooooooooo..",
"ooooooooooooooooooooooooooooo..",
"ooooooooooooooooooooooooooooo..",
"ooooooooooooooooooooooooooooo..",
"ooooooooooooooooooooooooooooo..",
"XXXXXXXXXXXXXXXXXXXXXXXXXXXXXXX",
"ooooooooooooooooooooooooooooo..",
"ooooooooooooooooooooooooooooo..",
"ooooooooooooooooooooooooooooo..",
"ooooooooooooooooooooooooooooo..",
"ooooooooooooooooooooooooooooo..",
"ooooooooooooooooooooooooooooo..",
"ooooooooooooooooooooooooooooo..",
"ooooooooooooooooooooooooooooo..",
"ooooooooooooooooooooooooooooo..",
"XXXXXXXXXXXXXXXXXXXXXXXXXXXXXXX",
"ooooooooooooooooooooooooooooo..",
"ooooooooooooooooooooooooooooo..",
"ooooooooooooooooooooooooooooo..",
"ooooooooooooooooooooooooooooo..",
"ooooooooooooooooooooooooooooo..",
"ooooooooooooooooooooooooooooo..",
"ooooooooooooooooooooooooooooo..",
"ooooooooooooooooooooooooooooo..",
"ooooooooooooooooooooooooooooo..",
"XXXXXXXXXXXXXXXXXXXXXXXXXXXXXXX",
"ooooooooooooooooooooooooooooo..",
"ooooooooooooooooooooooooooooo..",
"ooooooooooooooooooooooooooooo..",
"ooooooooooooooooooooooooooooo..",
"ooooooooooooooooooooooooooooo..",
"ooooooooooooooooooooooooooooo..",
"ooooooooooooooooooooooooooooo..",
"ooooooooooooooooooooooooooooo..",
"ooooooooooooooooooooooooooooo..",
"XXXXXXXXXXXXXXXXXXXXXXXXXXXXXXX",
"ooooooooooooooooooooooooooooo..",
"ooooooooooooooooooooooooooooo..",
"ooooooooooooooooooooooooooooo..",
"ooooooooooooooooooooooooooooo..",
"ooooooooooooooooooooooooooooo..",
"ooooooooooooooooooooooooooooo..",
"ooooooooooooooooooooooooooooo..",
"ooooooooooooooooooooooooooooo..",
"ooooooooooooooooooooooooooooo..",
"XXXXXXXXXXXXXXXXXXXXXXXXXXXXXXX",
"ooooooooooooooooooooooooooooo..",
"ooooooooooooooooooooooooooooo..",
"ooooooooooooooooooooooooooooo..",
"ooooooooooooooooooooooooooooo..",
"ooooooooooooooooooooooooooooo..",
"ooooooooooooooooooooooooooooo..",
"ooooooooooooooooooooooooooooo..",
"ooooooooooooooooooooooooooooo..",
"ooooooooooooooooooooooooooooo..",
"XXXXXXXXXXXXXXXXXXXXXXXXXXXXXXX",
"ooooooooooooooooooooooooooooo..",
"ooooooooooooooooooooooooooooo..",
"ooooooooooooooooooooooooooooo..",
"ooooooooooooooooooooooooooooo..",
"ooooooooooooooooooooooooooooo..",
"ooooooooooooooooooooooooooooo..",
"ooooooooooooooooooooooooooooo..",
"ooooooooooooooooooooooooooooo..",
"ooooooooooooooooooooooooooooo..",
"XXXXXXXXXXXXXXXXXXXXXXXXXXXXXXX",
"ooooooooooooooooooooooooooooo..",
"ooooooooooooooooooooooooooooo..",
"ooooooooooooooooooooooooooooo..",
"ooooooooooooooooooooooooooooo..",
"ooooooooooooooooooooooooooooo..",
"ooooooooooooooooooooooooooooo..",
"ooooooooooooooooooooooooooooo..",
"ooooooooooooooooooooooooooooo..",
"ooooooooooooooooooooooooooooo..",
"XXXXXXXXXXXXXXXXXXXXXXXXXXXXXXX",
"ooooooooooooooooooooooooooooo..",
"ooooooooooooooooooooooooooooo..",
"ooooooooooooooooooooooooooooo..",
"ooooooooooooooooooooooooooooo..",
"ooooooooooooooooooooooooooooo..",
"ooooooooooooooooooooooooooooo..",
"ooooooooooooooooooooooooooooo..",
"ooooooooooooooooooooooooooooo..",
"ooooooooooooooooooooooooooooo..",
"XXXXXXXXXXXXXXXXXXXXXXXXXXXXXXX",
"ooooooooooooooooooooooooooooo..",
"ooooooooooooooooooooooooooooo..",
"ooooooooooooooooooooooooooooo..",
"ooooooooooooooooooooooooooooo..",
"ooooooooooooooooooooooooooooo..",
"ooooooooooooooooooooooooooooo..",
"ooooooooooooooooooooooooooooo..",
"ooooooooooooooooooooooooooooo..",
"ooooooooooooooooooooooooooooo..",
"XXXXXXXXXXXXXXXXXXXXXXXXXXXXXXX",
"ooooooooooooooooooooooooooooo..",
"ooooooooooooooooooooooooooooo..",
"ooooooooooooooooooooooooooooo..",
"ooooooooooooooooooooooooooooo..",
"ooooooooooooooooooooooooooooo..",
"ooooooooooooooooooooooooooooo..",
"ooooooooooooooooooooooooooooo..",
"ooooooooooooooooooooooooooooo..",
"ooooooooooooooooooooooooooooo..",
"XXXXXXXXXXXXXXXXXXXXXXXXXXXXXXX",
"ooooooooooooooooooooooooooooo..",
"ooooooooooooooooooooooooooooo..",
"ooooooooooooooooooooooooooooo..",
"ooooooooooooooooooooooooooooo..",
"ooooooooooooooooooooooooooooo..",
"ooooooooooooooooooooooooooooo..",
"ooooooooooooooooooooooooooooo..",
"ooooooooooooooooooooooooooooo..",
"ooooooooooooooooooooooooooooo..",
"XXXXXXXXXXXXXXXXXXXXXXXXXXXXXXX",
"ooooooooooooooooooooooooooooo..",
"ooooooooooooooooooooooooooooo..",
"ooooooooooooooooooooooooooooo..",
"ooooooooooooooooooooooooooooo..",
"ooooooooooooooooooooooooooooo..",
"ooooooooooooooooooooooooooooo..",
"ooooooooooooooooooooooooooooo..",
"ooooooooooooooooooooooooooooo..",
"ooooooooooooooooooooooooooooo..",
"XXXXXXXXXXXXXXXXXXXXXXXXXXXXXXX",
"ooooooooooooooooooooooooooooo..",
"ooooooooooooooooooooooooooooo..",
"ooooooooooooooooooooooooooooo..",
"ooooooooooooooooooooooooooooo..",
"ooooooooooooooooooooooooooooo..",
"ooooooooooooooooooooooooooooo..",
"ooooooooooooooooooooooooooooo..",
"ooooooooooooooooooooooooooooo..",
"ooooooooooooooooooooooooooooo..",
"XXXXXXXXXXXXXXXXXXXXXXXXXXXXXXX",
"ooooooooooooooooooooooooooooo..",
"ooooooooooooooooooooooooooooo..",
"ooooooooooooooooooooooooooooo..",
"ooooooooooooooooooooooooooooo..",
"ooooooooooooooooooooooooooooo..",
"ooooooooooooooooooooooooooooo..",
"ooooooooooooooooooooooooooooo..",
"ooooooooooooooooooooooooooooo..",
"ooooooooooooooooooooooooooooo..",
"XXXXXXXXXXXXXXXXXXXXXXXXXXXXXXX",
"ooooooooooooooooooooooooooooo..",
"ooooooooooooooooooooooooooooo..",
"ooooooooooooooooooooooooooooo..",
"ooooooooooooooooooooooooooooo..",
"ooooooooooooooooooooooooooooo..",
"ooooooooooooooooooooooooooooo..",
"ooooooooooooooooooooooooooooo..",
"ooooooooooooooooooooooooooooo..",
"ooooooooooooooooooooooooooooo..",
"XXXXXXXXXXXXXXXXXXXXXXXXXXXXXXX",
"ooooooooooooooooooooooooooooo..",
"ooooooooooooooooooooooooooooo..",
"ooooooooooooooooooooooooooooo..",
"ooooooooooooooooooooooooooooo..",
"ooooooooooooooooooooooooooooo..",
"ooooooooooooooooooooooooooooo..",
"ooooooooooooooooooooooooooooo..",
"ooooooooooooooooooooooooooooo..",
"ooooooooooooooooooooooooooooo..",
"XXXXXXXXXXXXXXXXXXXXXXXXXXXXXXX",
"ooooooooooooooooooooooooooooo..",
"ooooooooooooooooooooooooooooo..",
"ooooooooooooooooooooooooooooo..",
"ooooooooooooooooooooooooooooo..",
"ooooooooooooooooooooooooooooo..",
"ooooooooooooooooooooooooooooo..",
"ooooooooooooooooooooooooooooo..",
"ooooooooooooooooooooooooooooo..",
"ooooooooooooooooooooooooooooo..",
"XXXXXXXXXXXXXXXXXXXXXXXXXXXXXXX",
"ooooooooooooooooooooooooooooo..",
"ooooooooooooooooooooooooooooo..",
"ooooooooooooooooooooooooooooo..",
"ooooooooooooooooooooooooooooo..",
"ooooooooooooooooooooooooooooo..",
"ooooooooooooooooooooooooooooo..",
"ooooooooooooooooooooooooooooo..",
"ooooooooooooooooooooooooooooo..",
"ooooooooooooooooooooooooooooo..",
"ooooooooooooooooooooooooooooo.."
};
