/* XPM */
static char *result[] = {
/* columns rows colors chars-per-pixel */
"30 200 7 1 ",
"  c #EFA700",
". c black",
"X c #BFB4A1",
"o c #D1C9B9",
"O c #EFB011",
"+ c #B2A591",
"@ c #C28500",
/* pixels */
"XXXXXXXXXXXXXXXXXXXXXXXXXXXXXX",
"ooooooooooooooooooooooooooooo+",
"ooooooooooooooooooooooooooooo+",
"ooooooooooooooooooooooooooooo+",
"ooooooooooooooooooooooooooooo+",
"ooooooooooooooooooooooooooooo+",
"ooooooooooooooooooooooooooooo+",
"ooooooooooooooooooooooooooooo+",
"ooooooooooooooooooooooooooooo+",
"ooooooooooooooooooooooooooooo+",
"XXXXXXXXXXXXXXXXXXXXXXXXXXXXXX",
"ooooooooooooooooooooooooooooo+",
"ooooooooooooooooooooooooooooo+",
"ooooooooooooooooooooooooooooo+",
"ooooooooooooooooooooooooooooo+",
"ooooooooooooooooooooooooooooo+",
"ooooooooooooooooooooooooooooo+",
"ooooooooooooooooooooooooooooo+",
"ooooooooooooooooooooooooooooo+",
"ooooooooooooooooooooooooooooo+",
"XXXXXXXXXXXXXXXXXXXXXXXXXXXXXX",
"ooooooooooooooooooooooooooooo+",
"ooooooooooooooooooooooooooooo+",
"ooooooooooooooooooooooooooooo+",
"ooooooooooooooooooooooooooooo+",
"ooooooooooooooooooooooooooooo+",
"ooooooooooooooooooooooooooooo+",
"ooooooooooooooooooooooooooooo+",
"ooooooooooooooooooooooooooooo+",
"ooooooooooooooooooooooooooooo+",
"XXXXXXXXXXXXXXXXXXXXXXXXXXXXXX",
"ooooooooooooooooooooooooooooo+",
"ooooooooooooooooooooooooooooo+",
"ooooooooooooooooooooooooooooo+",
"ooooooooooooooooooooooooooooo+",
"ooooooooooooooooooooooooooooo+",
"ooooooooooooooooooooooooooooo+",
"ooooooooooooooooooooooooooooo+",
"ooooooooooooooooooooooooooooo+",
"ooooooooooooooooooooooooooooo+",
"XXXXXXXXXXXXXXXXXXXXXXXXXXXXXX",
"ooooooooooooooooooooooooooooo+",
"ooooooooooooooooooooooooooooo+",
"ooooooooooooooooooooooooooooo+",
"ooooooooooooooooooooooooooooo+",
"ooooooooooooooooooooooooooooo+",
"ooooooooooooooooooooooooooooo+",
"ooooooooooooooooooooooooooooo+",
"ooooooooooooooooooooooooooooo+",
"ooooooooooooooooooooooooooooo+",
"XXXXXXXXXXXXXXXXXXXXXXXXXXXXXX",
"ooooooooooooooooooooooooooooo+",
"ooooooooooooooooooooooooooooo+",
"ooooooooooooooooooooooooooooo+",
"ooooooooooooooooooooooooooooo+",
"ooooooooooooooooooooooooooooo+",
"ooooooooooooooooooooooooooooo+",
"ooooooooooooooooooooooooooooo+",
"ooooooooooooooooooooooooooooo+",
"ooooooooooooooooooooooooooooo+",
"XXXXXXXXXXXXXXXXXXXXXXXXXXXXXX",
"ooooooooooooooooooooooooooooo+",
"ooooooooooooooooooooooooooooo+",
"ooooooooooooooooooooooooooooo+",
"ooooooooooooooooooooooooooooo+",
"ooooooooooooooooooooooooooooo+",
"ooooooooooooooooooooooooooooo+",
"ooooooooooooooooooooooooooooo+",
"ooooooooooooooooooooooooooooo+",
"ooooooooooooooooooooooooooooo+",
"XXXXXXXXXXXXXXXXXXXXXXXXXXXXXX",
"ooooooooooooooooooooooooooooo+",
"ooooooooooooooooooooooooooooo+",
"ooooooooooooooooooooooooooooo+",
"ooooooooooooooooooooooooooooo+",
"ooooooooooooooooooooooooooooo+",
"ooooooooooooooooooooooooooooo+",
"ooooooooooooooooooooooooooooo+",
"ooooooooooooooooooooooooooooo+",
"ooooooooooooooooooooooooooooo+",
"XXXXXXXXXXXXXXXXXXXXXXXXXXXXXX",
"ooooooooooooooooooooooooooooo+",
"ooooooooooooooooooooooooooooo+",
"ooooooooooooooooooooooooooooo+",
"ooooooooooooooooooooooooooooo+",
"ooooooooooooooooooooooooooooo+",
"ooooooooooooooooooooooooooooo+",
"ooooooooooooooooooooooooooooo+",
"ooooooooooooooooooooooooooooo+",
"ooooooooooooooooooooooooooooo+",
"XXXXXXXXXXXXXXXXXXXXXXXXXXXXXX",
"ooooooooooooooooooooooooooooo+",
"ooooooooooooooooooooooooooooo+",
"ooooooooooooooooooooooooooooo+",
"ooooooooooooooooooooooooooooo+",
"ooooooooooooooooooooooooooooo+",
"ooooooooooooooooooooooooooooo+",
"ooooooooooooooooooooooooooooo+",
"ooooooooooooooooooooooooooooo+",
"ooooooooooooooooooooooooooooo+",
"XXXXXXXXXXXXXXXXXXXXXXXXXXXXXX",
"ooooooooooooooooooooooooooooo+",
"ooooooooooooooooooooooooooooo+",
"ooooooooooooooooooooooooooooo+",
"ooooooooooooooooooooooooooooo+",
"ooooooooooooooooooooooooooooo+",
"ooooooooooooooooooooooooooooo+",
"ooooooooooooooooooooooooooooo+",
"ooooooooooooooooooooooooooooo+",
"ooooooooooooooooooooooooooooo+",
"XXXXXXXXXXXXXXXXXXXXXXXXXXXXXX",
"ooooooooooooooooooooooooooooo+",
"ooooooooooooooooooooooooooooo+",
"ooooooooooooooooooooooooooooo+",
"ooooooooooooooooooooooooooooo+",
"ooooooooooooooooooooooooooooo+",
"ooooooooooooooooooooooooooooo+",
"ooooooooooooooooooooooooooooo+",
"ooooooooooooooooooooooooooooo+",
"ooooooooooooooooooooooooooooo+",
"XXXXXXXXXXXXXXXXXXXXXXXXXXXXXX",
"ooooooooooooooooooooooooooooo+",
"ooooooooooooooooooooooooooooo+",
"ooooooooooooooooooooooooooooo+",
"ooooooooooooooooooooooooooooo+",
"ooooooooooooooooooooooooooooo+",
"ooooooooooooooooooooooooooooo+",
"ooooooooooooooooooooooooooooo+",
"ooooooooooooooooooooooooooooo+",
"ooooooooooooooooooooooooooooo+",
"XXXXXXXXXXXXXXXXXXXXXXXXXXXXXX",
"ooooooooooooooooooooooooooooo+",
"ooooooooooooooooooooooooooooo+",
"ooooooooooooooooooooooooooooo+",
"ooooooooooooooooooooooooooooo+",
"ooooooooooooooooooooooooooooo+",
"ooooooooooooooooooooooooooooo+",
"ooooooooooooooooooooooooooooo+",
"ooooooooooooooooooooooooooooo+",
"ooooooooooooooooooooooooooooo+",
"XXXXXXXXXXXXXXXXXXXXXXXXXXXXXX",
"O OOOOOOOOOOOOOOOOOOOOOO......",
"OOOOOOOOOOOOOOOOOOOOOOOO......",
"                        ......",
"                        ......",
"                        ......",
"                        ......",
"@                       ......",
"                        ......",
"                        ......",
"@@@@@@@@@@@@@@@@@@@@@@@@......",
"O OOOOOOOOOOOOOOOOOOOOOO......",
"OOOOOOOOOOOOOOOOOOOOOOOO......",
"                        ......",
"                        ......",
"                        ......",
"                        ......",
"@                       ......",
"                        ......",
"                        ......",
"@@@@@@@@@@@@@@@@@@@@@@@@......",
"O OOOOOOOOOOOOOOOOOOOOOO......",
"OOOOOOOOOOOOOOOOOOOOOOOO......",
"                        ......",
"                        ......",
"                        ......",
"                        ......",
"@                       ......",
"                        ......",
"                        ......",
"@@@@@@@@@@@@@@@@@@@@@@@@......",
"O OOOOOOOOOOOOOOOOOOOOOO......",
"OOOOOOOOOOOOOOOOOOOOOOOO......",
"                        ......",
"                        ......",
"                        ......",
"                        ......",
"@                       ......",
"                        ......",
"                        ......",
"@@@@@@@@@@@@@@@@@@@@@@@@......",
"O OOOOOOOOOOOOOOOOOOOOOO......",
"OOOOOOOOOOOOOOOOOOOOOOOO......",
"                        ......",
"                        ......",
"                        ......",
"                        ......",
"@                       ......",
"                        ......",
"                        ......",
"@@@@@@@@@@@@@@@@@@@@@@@@......",
"O OOOOOOOOOOOOOOOOOOOOOO......",
"OOOOOOOOOOOOOOOOOOOOOOOO......",
"                        ......",
"                        ......",
"                        ......",
"                        ......",
"@                       ......",
"                        ......",
"                        ......"
};
