/* XPM */
static char *bbffeab468ae404fafeb60b21cc06b74kK1EYXmaliFtABYm[] = {
/* columns rows colors chars-per-pixel */
"64 64 256 2 ",
"   c black",
".  c #1C1408",
"X  c #140C04",
"o  c #494949",
"O  c white",
"+  c #181818",
"@  c #101010",
"#  c gray3",
"$  c #040404",
"%  c #2C341C",
"&  c #20280C",
"*  c #141C04",
"=  c #0C1400",
"-  c #4D3828",
";  c #453020",
":  c #3C2818",
">  c #FFB6B6",
",  c #F7AAAA",
"<  c #F3A2A2",
"1  c #EB9696",
"2  c #E78E8E",
"3  c #DF8686",
"4  c #DB7979",
"5  c #D37171",
"6  c #CB6969",
"7  c #C76161",
"8  c #BE5959",
"9  c #BA5555",
"0  c #B24D4D",
"q  c #AE4545",
"w  c #A63C3C",
"e  c #A23838",
"r  c #9A3030",
"t  c #962C2C",
"y  c #8E2828",
"u  c #8A2020",
"i  c #821C1C",
"p  c #7D1818",
"a  c #751414",
"s  c #711010",
"d  c #690C0C",
"f  c #650808",
"g  c #5D0404",
"h  c #590404",
"j  c #510404",
"k  c #4D0000",
"l  c #450000",
"z  c #410000",
"x  c #FFEBDF",
"c  c #FFE3D3",
"v  c #FFDBC7",
"b  c #FFD3BA",
"n  c #FFCFB2",
"m  c #FFC7A6",
"M  c #FFBE9A",
"N  c #FFBA92",
"B  c #FFB282",
"V  c #F7AA79",
"C  c #EFA271",
"Z  c #E79A69",
"A  c #DF9261",
"S  c #D78A59",
"D  c #CF8251",
"F  c #CB7D4D",
"G  c #BE7949",
"H  c #B27145",
"J  c #AA6D41",
"K  c #A2693C",
"L  c #9A6138",
"P  c #8E5D34",
"I  c #865530",
"U  c #7D512C",
"Y  c #754D28",
"T  c #694524",
"R  c #5D4120",
"E  c #513C1C",
"W  c #493418",
"Q  c #3C2C14",
"!  c #302810",
"~  c #28200C",
"^  c #EFEFEF",
"/  c #E7E7E7",
"(  c #DFDFDF",
")  c gray86",
"_  c LightGray",
"`  c #CBCBCB",
"'  c gray78",
"]  c gray",
"[  c #B6B6B6",
"{  c #B2B2B2",
"}  c #AAAAAA",
"|  c gray65",
" . c #FFD780",
".. c gray59",
"X. c #929292",
"o. c gray54",
"O. c gray51",
"+. c gray49",
"@. c gray46",
"#. c #6D6D6D",
"$. c DimGray",
"%. c gray38",
"&. c gray35",
"*. c #555555",
"=. c gray30",
"-. c #ffa500",
";. c #ddffa0",
":. c #FFD230",
">. c #FFFFFF",
",. c #8C8C8C",
"<. c #FFD780",
"1. c #FFD700",
"2. c #75FF6D",
"3. c #6DEF65",
"4. c #65DF5D",
"5. c #5DCF55",
"6. c #59BE4D",
"7. c #51AE45",
"8. c #499E3C",
"9. c #419234",
"0. c #3C822C",
"q. c #347128",
"w. c #2C6120",
"e. c #245118",
"r. c #1C4114",
"t. c #14300C",
"y. c #102008",
"u. c #081404",
"i. c #BEA68E",
"p. c #B69E86",
"a. c #AE967D",
"s. c #A68E75",
"d. c #9E866D",
"f. c #9A7D69",
"g. c #927961",
"h. c #8A7159",
"j. c #826955",
"k. c #79614D",
"l. c #755D49",
"z. c #6D5541",
"x. c #65513C",
"c. c #5D4934",
"v. c #554130",
"b. c #513C2C",
"n. c #9E8261",
"m. c #8E7551",
"M. c #826949",
"N. c #755D3C",
"B. c #655130",
"V. c #594528",
"C. c #4D3820",
"Z. c #413018",
"A. c #797D61",
"S. c #6D7155",
"D. c #65694D",
"F. c #596145",
"G. c #515538",
"H. c #454D30",
"J. c #3C4528",
"K. c #343C24",
"L. c #FFFF71",
"P. c #EBDB55",
"I. c #D7BA41",
"U. c #C39A2C",
"Y. c #AE791C",
"T. c #9A5910",
"R. c #864104",
"E. c #712800",
"W. c white",
"Q. c #FFDBDB",
"!. c #FFBABA",
"~. c #FF9A9A",
"^. c #FF7979",
"/. c #FF5D5D",
"(. c #FF3C3C",
"). c #FF1C1C",
"_. c red",
"`. c #EF0000",
"'. c #E30000",
"]. c #D70000",
"[. c #CB0000",
"{. c #BE0000",
"}. c #B20000",
"|. c #A60000",
" X c #9A0000",
".X c #8A0000",
"XX c #7D0000",
"oX c #710000",
"OX c #650000",
"+X c #590000",
"@X c #4D0000",
"#X c #410000",
"$X c #E7E7FF",
"%X c #C7C7FF",
"&X c #AAAAFF",
"*X c #8E8EFF",
"=X c #7171FF",
"-X c #5151FF",
";X c #3434FF",
":X c #1818FF",
">X c blue",
",X c #0000E3",
"<X c #0000CB",
"1X c #0000B2",
"2X c #00009A",
"3X c #000082",
"4X c #000069",
"5X c #000051",
"6X c white",
"7X c #FFEBDB",
"8X c #FFD7BA",
"9X c #FFC79A",
"0X c #FFB279",
"qX c #FFA259",
"wX c #FF8E38",
"eX c #FF7D18",
"rX c #F37114",
"tX c #EB6D0C",
"yX c #DF650C",
"uX c #D75D08",
"iX c #CB5504",
"pX c #C34D00",
"aX c #B64500",
"sX c #AE4100",
"dX c white",
"fX c #FFFFD7",
"gX c #FFFFB2",
"hX c #FFFF8E",
"jX c #FFFF69",
"kX c #FFFF45",
"lX c #FFFF20",
"zX c yellow",
"xX c #A63C00",
"cX c #9E3400",
"vX c #922C00",
"bX c #862000",
"nX c #4D3824",
"mX c #412C18",
"MX c #342010",
"NX c #2C1808",
"BX c #000051",
"VX c #000045",
"CX c #000038",
"ZX c #00002C",
"AX c #000020",
"SX c #000014",
"DX c #000008",
"FX c black",
"GX c #FF9E41",
"HX c #FFE749",
"JX c #FF79FF",
"KX c #FF0000",
"LX c #CF00CF",
"PX c #9E009A",
"IX c #6D0069",
"UX c black",
/* pixels */
"UXUXUXUXUXUXUXUXUXUXUXUXUXUXUXUXUXUXUXUXUXUXUXUXUXUXUXUXUXUXUXUXUXUXUXUXUXUXUXUXUXUXUXUXUXUXUXUXUXUXUXUXUXUXUXUXUXUXUXUXUXUXUXUX",
"UXUXUXUXUXUXUXUXUXUXUXUXUXUXUXUXUXUXUXUXUXUXUXUXUXUXUXUXUXUXUXUXUXUXUXUXUXUXUXUXUXUXUXUXUXUXUXUXUXUXUXUXUXUXUXUXUXUXUXUXUXUXUXUX",
"UXUXUXUXUXUXUXUXUXUXUXUXUXUXUXUXUXUXUXUXUXUXUXUXUXUXUXUXUXUXUXUXUXUXUXUXUXUXUXUXUXUXUXUXUXUXUXUXUXUXUXUXUXUXUXUXUXUXUXUXUXUXUXUX",
"UXUXUXUXUXUXUXUXUXUXUXUXUXUXUXUXUXUXUXUXUXUXUXUXUXUXUXUXUXUXUXUXUXUXUXUXUXUXUXUXUXUXUXUXUXUXUXUXUXUXUXUXUXUXUXUXUXUXUXUXUXUXUXUX",
"UXUXUXUXUXUXUXUXUXUXUXUXUXUXUXUXUXUXUXUXUXUXUXUXUXUXUXUXUXUXUXUXUXUXUXUXUXUXUXUXUXUXUXUXUXUXUXUXUXUXUXUXUXUXUXUXUXUXUXUXUXUXUXUX",
"UXUXUXUXUXUXUXUXUXUXUXUXUXUXUXUXUXUXUXUXUXUXUXUXUXUXUXUXUXUXUXUXUXUXUXUXUXUXUXUXUXUXUXUXUXUXUXUXUXUXUXUXUXUXUXUXUXUXUXUXUXUXUXUX",
"UXUXUXUXUXUXUXUXUXUXUXUXUXUXUXUXUXUXUXUXUXUXUXUXUXUXUXUXUXUXUXUXUXUXUXUXUXUXUXUXUXUXUXUXUXUXUXUXUXUXUXUXUXUXUXUXUXUXUXUXUXUXUXUX",
"UXUXUXUXUXUXUXUXUXUXUXUXUXUXUXUXUXUXUXUXUXUXUXUXUXUXUXUXUXUXUXUXUXUXUXUXUXUXUXUXUXUXUXUXUXUXUXUXUXUXUXUXUXUXUXUXUXUXUXUXUXUXUXUX",
"UXUXUXUXUXUXUXUXUXUXUXUXUXUXUXUXUXUXUXUXUXUXUXUXUXUXUXUXUXUXUXUXUXUXUXUXUXUXUXUXUXUXUXUXUXUXUXUXUXUXUXUXUXUXUXUXUXUXUXUXUXUXUXUX",
"UXUXUXUXUXUXUXUXUXUXUXUXUXUXUXUXUXUXUXUXUXUXUXUXUXUXUXUXUXUXUXUXUXUXUXUXUXUXUXUXUXUXUXUXUXUXUXUXUXUXUXUXUXUXUXUXUXUXUXUXUXUXUXUX",
"UXUXUXUXUXUXUXUXUXUXUXUXUXUXUXUXUXUXUXUXUXUXUXUXUXUXUXUXUXUXUXUXUXUXUXUXUXUXUXUXUXUXUXUXUXUXUXUXUXUXUXUXUXUXUXUXUXUXUXUXUXUXUXUX",
"UXUXUXUXUXUXUXUXUXUXUXUXUXUXUXUXUXUXUXUXUXUXUXUXUXUXUXUXUXUXUXUXUXUXUXUXUXUXUXUXUXUXUXUXUXUXUXUXUXUXUXUXUXUXUXUXUXUXUXUXUXUXUXUX",
"UXUXUXUXUXUXUXUXUXUXUXUXUXUXUXUXUXUXUXUXUXUXUXUXUXUXUXUXUXUXUXUXUXUXUXUXUXUXUXUXUXUXUXUXUXUXUXUXUXUXUXUXUXUXUXUXUXUXUXUXUXUXUXUX",
"UXUXUXUXUXUXUXUXUXUXUXUXUXUXUXUXUXUXUXUXUXUXUXUXUXUXUXUXUXUXUXUXUXUXUXUXUXUXUXUXUXKXUXUXUXUXUXUXUXUXUXUXUXUXUXUXUXUXUXUXUXUXUXUX",
"UXUXUXUXUXUXUXUXUXUXUXUXUXUXUXUXUXUXUXUXUXUXUXUXUXUXUXUXUXUXUXUXKXUXUXUXUXUXUXUXUXKXUXUXUXUXUXUXUXUXUXUXUXUXUXUXUXUXUXUXUXUXUXUX",
"UXUXUXUXUXUXUXUXUXUXUXUXUXUXUXUXUXUXUXUXUXKXUXUXUXUXUXUXUXUXUXKXKXUXUXUXUXUXUXUXUXKXKXUXUXUXUXUXUXUXUXUXUXUXUXUXUXUXUXUXUXUXUXUX",
"UXUXUXUXUXUXUXUXUXUXUXUXUXUXUXUXUXUXUXUXUXKXUXUXUXUXUXUXUXUXO   O ) UXUXUXUXUXUXO   O ) UXUXUXUXUXUXUXUXUXUXUXUXUXUXUXUXUXUXUXUX",
"UXUXUXUXUXUXUXUXUXUXUXUXUXUXUXUXUXUXUXUXUXKXUXUXUXUXUXUXUX] ^ O ^ _ UXUXUXUXUX] ^ O ^ _ UXUXUXUXUXUXUXUXUXUXUXUXUXUXUXUXUXUXUXUX",
"UXUXUXUXUXUXUXUXUXUXUXUXUXUXUXUXUXUXUXUXO   O ) UXUXUXUXUX{ ^ ) ^ ] UXUXUXUXUX{ ^ ) ^ ] UXUXUXUXUXUXUXUXUXUXUXUXUXUXUXUXUXUXUXUX",
"UXUXUXUXUXUXUXUXUXUXUXUXUXUXUXUXUXUXUX] ^ O ^ _ UXUXUXUXUX-.{ ^ { 1.UXUXUXUXUX{ ^ ) ^ ] UXUXUXUXUXUXUXUXUXUXUXUXUXUXUXUXUXUXUXUX",
"UXUXUXUXUXUXUXUXUXUXUXUXUXUXUXUXUXUXUX{ ^ ) ^ ] UXUXUXUXUX;.>.^ >.<.UXUXUXUXUX{ ^ ) ^ ] UXUXUXUXUXUXUXUXUXUXUXUXUXUXUXUXUXUXUXUX",
"UXUXUXUXUXUXUXUXUXUXUXUXUXUXUXUXUXUXUX| ] _ ] { UXUXUXUXUX-.>.) ,.1.UXUXUXUXUX{ ^ ) ^ ] UXUXUXUXUXUXUXUXUXUXUXUXUXUXUXUXUXUXUXUX",
"UXUXUXUXUXUXUXUXUXUXUXUXUXUXUXUXUXUXUX] _ >.] -.UXUXUXUXUX-.>.>.>.<.UXUXUXUXUX-.>.] { ..UXUXUXUXUXUXUXUXUXUXUXUXUXUXUXUXUXUXUXUX",
"UXUXUXUXUXUXUXUXUXUXUXUXUXUXUXUXUXUXUX] >._ ] ;.UXUXUXUXUX-.>.,.,.<.UXUXUXUXUX;.,.>.{ 1.UXUXUXUXUXUXUXUXUXUXUXUXUXUXUXUXUXUXUXUX",
"UXUXUXUXUXUXUXUXUXUXUXUXUXUXUXUXUXUXUX] ,.>.| ;.UXUXUXUXUXUX;.,.1.UXUXUXUXUXUX;.>.,.>.<.UXUXUXUXUXUXUXUXUXUXUXUXUXUXUXUXUXUXUXUX",
"UXUXUXUXUXUXUXUXUXUXUXUXUXUXUXUXUXUXUX<.>.,.>.-.UXUXUXUXUXUX-.>.1.UXUXUXUXUXUX-.;.,.>.<.UXUXUXUXUXUXUXUXUXUXUXUXUXUXUXUXUXUXUXUX",
"UXUXUXUXUXUXUXUXUXUXUXUXUXUXUXUXUXUXUX1.,.;.>.-.UXUXUXUXUXUX;.,.<.UXUXUXUXUXUX-.;.>.,.1.UXUXUXUXUXUXUXUXUXUXUXUXUXUXUXUXUXUXUXUX",
"UXUXUXUXUXUXUXUXUXUXUXUXUXUXUXUXUXUXUXUX<.>.;.UXUXUXUXUXUXUX;.,.<.UXUXUXUXUXUXUX;.,.<.UXUXUXUXUXUXUXUXUXUXUXUXUXUXUXUXUXUXUXUXUX",
"UXUXUXUXUXUXUXUXUXUXUXUXUXUXUXUXUXUXUXUX1.>.-.UXUXUXUXUXUXUX-.,.1.UXUXUXUXUXUXUX-.>.1.UXUXUXUXUXUXUXUXUXUXUXUXUXUXUXUXUXUXUXUXUX",
"UXUXUXUXUXUXUXUXUXUXUXUXUXUXUXUXUXUXUXUX1.>.;.-.UXUXUXUXUXUX-.>.1.UXUXUXUXUXUX-.>.,.1.UXUXUXUXUXUXUXUXUXUXUXUXUXUXUXUXUXUXUXUXUX",
"UXUXUXUXUXUXUXUXUXUXUXUXUXUXUXUXUXUXUXUXUX1.>.;.;.-.-.-.-.;.;.,.<.;.-.-.;.-.-.;.,.<.UXUXUXUXUXUXUXUXUXUXUXUXUXUXUXUXUXUXUXUXUXUX",
"UXUXUXUXUXUXUXUXUXUXUXUXUXUXUXUXUXUXUXUXUXUX<.,.,.,.>.>.,.,.,.>.1.,.>.,.>.>.,.,.1.UXUXUXUXUXUXUXUXUXUXUXUXUXUXUXUXUXUXUXUXUXUXUX",
"UXUXUXUXUXUXUXUXUXUXUXUXUXUXUXUXUXUXUXUXUXUXUX<.1.<.<.<.<.1.1.<.1.1.<.1.1.1.<.<.UXUXUXUXUXUXUXUXUXUXUXUXUXUXUXUXUXUXUXUXUXUXUXUX",
"UXUXUXUXUXUXUXUXUXUXUXUXUXUXUXUXUXUXUXUXUXUXUXUXUXUXUXUXUXUX-.,.<.UXUXUXUXUXUXUXUXUXUXUXUXUXUXUXUXUXUXUXUXUXUXUXUXUXUXUXUXUXUXUX",
"UXUXUXUXUXUXUXUXUXUXUXUXUXUXUXUXUXUXUXUXUXUXUXUXUXUXUXUXUXUX;.,.,.UXUXUXUXUXUXUXUXUXUXUXUXUXUXUXUXUXUXUXUXUXUXUXUXUXUXUXUXUXUXUX",
"UXUXUXUXUXUXUXUXUXUXUXUXUXUXUXUXUXUXUXUXUXUXUXUXUXUXUXUXUXUX-.>.<.UXUXUXUXUXUXUXUXUXUXUXUXUXUXUXUXUXUXUXUXUXUXUXUXUXUXUXUXUXUXUX",
"UXUXUXUXUXUXUXUXUXUXUXUXUXUXUXUXUXUXUXUXUXUXUXUXUXUXUXUXUXUX;.,.,.UXUXUXUXUXUXUXUXUXUXUXUXUXUXUXUXUXUXUXUXUXUXUXUXUXUXUXUXUXUXUX",
"UXUXUXUXUXUXUXUXUXUXUXUXUXUXUXUXUXUXUXUXUXUXUXUXUXUXUXUXUXUX;.,.<.UXUXUXUXUXUXUXUXUXUXUXUXUXUXUXUXUXUXUXUXUXUXUXUXUXUXUXUXUXUXUX",
"UXUXUXUXUXUXUXUXUXUXUXUXUXUXUXUXUXUXUXUXUXUXUXUXUXUXUXUXUXUX;.,.<.UXUXUXUXUXUXUXUXUXUXUXUXUXUXUXUXUXUXUXUXUXUXUXUXUXUXUXUXUXUXUX",
"UXUXUXUXUXUXUXUXUXUXUXUXUXUXUXUXUXUXUXUXUXUXUXUXUXUXUXUXUXUX-.>.<.UXUXUXUXUXUXUXUXUXUXUXUXUXUXUXUXUXUXUXUXUXUXUXUXUXUXUXUXUXUXUX",
"UXUXUXUXUXUXUXUXUXUXUXUXUXUXUXUXUXUXUXUXUXUXUXUXUXUXUXUXUXUX-.>.<.UXUXUXUXUXUXUXUXUXUXUXUXUXUXUXUXUXUXUXUXUXUXUXUXUXUXUXUXUXUXUX",
"UXUXUXUXUXUXUXUXUXUXUXUXUXUXUXUXUXUXUXUXUXUXUXUXUXUXUXUXUXUX-.>.<.UXUXUXUXUXUXUXUXUXUXUXUXUXUXUXUXUXUXUXUXUXUXUXUXUXUXUXUXUXUXUX",
"UXUXUXUXUXUXUXUXUXUXUXUXUXUXUXUXUXUXUXUXUXUXUXUXUXUXUXUXUXUX;.>.1.UXUXUXUXUXUXUXUXUXUXUXUXUXUXUXUXUXUXUXUXUXUXUXUXUXUXUXUXUXUXUX",
"UXUXUXUXUXUXUXUXUXUXUXUXUXUXUXUXUXUXUXUXUXUXUXUXUXUXUXUXUXUX;.,.1.UXUXUXUXUXUXUXUXUXUXUXUXUXUXUXUXUXUXUXUXUXUXUXUXUXUXUXUXUXUXUX",
"UXUXUXUXUXUXUXUXUXUXUXUXUXUXUXUXUXUXUXUXUXUXUXUXUXUXUXUXUXUX-.,.<.UXUXUXUXUXUXUXUXUXUXUXUXUXUXUXUXUXUXUXUXUXUXUXUXUXUXUXUXUXUXUX",
"UXUXUXUXUXUXUXUXUXUXUXUXUXUXUXUXUXUXUXUXUXUXUXUXUXUXUXUXUXUX-.,.<.UXUXUXUXUXUXUXUXUXUXUXUXUXUXUXUXUXUXUXUXUXUXUXUXUXUXUXUXUXUXUX",
"UXUXUXUXUXUXUXUXUXUXUXUXUXUXUXUXUXUXUXUXUXUXUXUXUXUXUXUXUXUX-.,.1.UXUXUXUXUXUXUXUXUXUXUXUXUXUXUXUXUXUXUXUXUXUXUXUXUXUXUXUXUXUXUX",
"UXUXUXUXUXUXUXUXUXUXUXUXUXUXUXUXUXUXUXUXUXUXUXUXUXUXUXUXUXUX;.>.1.UXUXUXUXUXUXUXUXUXUXUXUXUXUXUXUXUXUXUXUXUXUXUXUXUXUXUXUXUXUXUX",
"UXUXUXUXUXUXUXUXUXUXUXUXUXUXUXUXUXUXUXUXUXUXUXUXUXUXUXUXUXUX;.>.1.UXUXUXUXUXUXUXUXUXUXUXUXUXUXUXUXUXUXUXUXUXUXUXUXUXUXUXUXUXUXUX",
"UXUXUXUXUXUXUXUXUXUXUXUXUXUXUXUXUXUXUXUXUXUXUXUXUXUXUXUXUXUX-.>.,.UXUXUXUXUXUXUXUXUXUXUXUXUXUXUXUXUXUXUXUXUXUXUXUXUXUXUXUXUXUXUX",
"UXUXUXUXUXUXUXUXUXUXUXUXUXUXUXUXUXUXUXUXUXUXUXUXUXUXUXUXUXUX-.>.<.UXUXUXUXUXUXUXUXUXUXUXUXUXUXUXUXUXUXUXUXUXUXUXUXUXUXUXUXUXUXUX",
"UXUXUXUXUXUXUXUXUXUXUXUXUXUXUXUXUXUXUXUXUXUXUXUXUXUXUXUXUXUX-.>.<.UXUXUXUXUXUXUXUXUXUXUXUXUXUXUXUXUXUXUXUXUXUXUXUXUXUXUXUXUXUXUX",
"UXUXUXUXUXUXUXUXUXUXUXUXUXUXUXUXUXUXUXUXUXUXUXUXUXUXUXUXUXUX;.,.<.UXUXUXUXUXUXUXUXUXUXUXUXUXUXUXUXUXUXUXUXUXUXUXUXUXUXUXUXUXUXUX",
"UXUXUXUXUXUXUXUXUXUXUXUXUXUXUXUXUXUXUXUXUXUXUXUXUXUXUXUXUXUX;.,.1.UXUXUXUXUXUXUXUXUXUXUXUXUXUXUXUXUXUXUXUXUXUXUXUXUXUXUXUXUXUXUX",
"UXUXUXUXUXUXUXUXUXUXUXUXUXUXUXUXUXUXUXUXUXUXUXUXUXUXUXUXUXUX;.>.1.UXUXUXUXUXUXUXUXUXUXUXUXUXUXUXUXUXUXUXUXUXUXUXUXUXUXUXUXUXUXUX",
"UXUXUXUXUXUXUXUXUXUXUXUXUXUXUXUXUXUXUXUXUXUXUXUXUXUXUXUXUXUX-.>.1.UXUXUXUXUXUXUXUXUXUXUXUXUXUXUXUXUXUXUXUXUXUXUXUXUXUXUXUXUXUXUX",
"UXUXUXUXUXUXUXUXUXUXUXUXUXUXUXUXUXUXUXUXUXUXUXUXUXUXUXUX;.;.;.,.1.;.-.UXUXUXUXUXUXUXUXUXUXUXUXUXUXUXUXUXUXUXUXUXUXUXUXUXUXUXUXUX",
"UXUXUXUXUXUXUXUXUXUXUXUXUXUXUXUXUXUXUXUXUXUXUXUXUXUX;.-.>.,.,.>.<.,.,.;.;.UXUXUXUXUXUXUXUXUXUXUXUXUXUXUXUXUXUXUXUXUXUXUXUXUXUXUX",
"UXUXUXUXUXUXUXUXUXUXUXUXUXUXUXUXUXUXUXUXUXUXUXUXUX-.-.>.1.<.<.1.1.1.1.,.>.-.UXUXUXUXUXUXUXUXUXUXUXUXUXUXUXUXUXUXUXUXUXUXUXUXUXUX",
"UXUXUXUXUXUXUXUXUXUXUXUXUXUXUXUXUXUXUXUXUXUXUXUX-.>.>.<.UXUX;.,.1.UXUX1.,.;.;.UXUXUXUXUXUXUXUXUXUXUXUXUXUXUXUXUXUXUXUXUXUXUXUXUX",
"UXUXUXUXUXUXUXUXUXUXUXUXUXUXUXUXUXUXUXUXUXUXUXUX;.,.1.UXUXUX-.>.1.UXUXUX<.>.-.UXUXUXUXUXUXUXUXUXUXUXUXUXUXUXUXUXUXUXUXUXUXUXUXUX",
"UXUXUXUXUXUXUXUXUXUXUXUXUXUXUXUXUXUXUXUXUXUXUX;.,.<.UXUXUXUX;.,.<.UXUXUXUX1.,.;.UXUXUXUXUXUXUXUXUXUXUXUXUXUXUXUXUXUXUXUXUXUXUXUX",
"UXUXUXUXUXUXUXUXUXUXUXUXUXUXUXUXUXUXUXUXUXUX;.>.1.<.UXUXUX-.;.;.>.1.UXUXUX1.>.;.-.UXUXUXUXUXUXUXUXUXUXUXUXUXUXUXUXUXUXUXUXUXUXUX",
"UXUXUXUXUXUXUXUXUXUXUXUXUXUXUXUXUXUXUXUXUXUX-.;.1.<.UXUXUX;.-.>.,.<.UXUXUX<.,.>.;.UXUXUXUXUXUXUXUXUXUXUXUXUXUXUXUXUXUXUXUXUXUXUX"
};
