/* XPM */
static char *bd4371138c414fe190b6d6edb9c38491Szz22a2dRXI08V15[] = {
/* columns rows colors chars-per-pixel */
"64 64 256 2 ",
"   c black",
".  c #0000A8",
"X  c #00A800",
"o  c #00A8A8",
"O  c #A80000",
"+  c #A800A8",
"@  c #A85400",
"#  c gray66",
"$  c gray33",
"%  c #5454FC",
"&  c #54FC54",
"*  c #54FCFC",
"=  c #FC5454",
"-  c #FC54FC",
";  c #FCFC54",
":  c gray99",
">  c #ECECEC",
",  c gainsboro",
"<  c #D0D0D0",
"1  c #C0C0C0",
"2  c #B4B4B4",
"3  c gray66",
"4  c #989898",
"5  c gray55",
"6  c #7C7C7C",
"7  c gray44",
"8  c #646464",
"9  c gray33",
"0  c #484848",
"q  c gray22",
"w  c #2C2C2C",
"e  c #202020",
"r  c #FC0000",
"t  c #EC0000",
"y  c #E00000",
"u  c #D40000",
"i  c #C80000",
"p  c #BC0000",
"a  c #B00000",
"s  c #A40000",
"d  c #980000",
"f  c #880000",
"g  c #7C0000",
"h  c #700000",
"j  c #640000",
"k  c #580000",
"l  c #4C0000",
"z  c #400000",
"x  c #FCD8D8",
"c  c #FCB8B8",
"v  c #FC9C9C",
"b  c #FC7C7C",
"n  c #FC5C5C",
"m  c #FC4040",
"M  c #FC2020",
"N  c #FC0000",
"B  c #FCA85C",
"V  c #FC9840",
"C  c #FC8820",
"Z  c #FC7800",
"A  c #E46C00",
"S  c #CC6000",
"D  c #B45400",
"F  c #9C4C00",
"G  c #FCFCD8",
"H  c #FCFCB8",
"J  c #FCFC9C",
"K  c #FCFC7C",
"L  c #FCF85C",
"P  c #FCF440",
"I  c #FCF420",
"U  c #FCF400",
"Y  c #E4D800",
"T  c #CCC400",
"R  c #B4AC00",
"E  c #9C9C00",
"W  c #848400",
"Q  c #706C00",
"!  c #585400",
"~  c #404000",
"^  c #D0FC5C",
"/  c #C4FC40",
"(  c #B4FC20",
")  c #A0FC00",
"_  c #90E400",
"`  c #80CC00",
"'  c #74B400",
"]  c #609C00",
"[  c #D8FCD8",
"{  c #BCFCB8",
"}  c #9CFC9C",
"|  c #80FC7C",
" . c #60FC5C",
".. c #40FC40",
"X. c #20FC20",
"o. c #00FC00",
"O. c #00FC00",
"+. c #00EC00",
"@. c #00E000",
"#. c #00D400",
"$. c #04C800",
"%. c #04BC00",
"&. c #04B000",
"*. c #04A400",
"=. c #049800",
"-. c #048800",
";. c #047C00",
":. c #047000",
">. c #046400",
",. c #045800",
"<. c #044C00",
"1. c #044000",
"2. c #D8FCFC",
"3. c #B8FCFC",
"4. c #9CFCFC",
"5. c #7CFCF8",
"6. c #5CFCFC",
"7. c #40FCFC",
"8. c #20FCFC",
"9. c #00FCFC",
"0. c #00E4E4",
"q. c #00CCCC",
"w. c #00B4B4",
"e. c #009C9C",
"r. c #008484",
"t. c #007070",
"y. c #005858",
"u. c #004040",
"i. c #5CBCFC",
"p. c #40B0FC",
"a. c #20A8FC",
"s. c #009CFC",
"d. c #008CE4",
"f. c #007CCC",
"g. c #006CB4",
"h. c #005C9C",
"j. c #D8D8FC",
"k. c #B8BCFC",
"l. c #9C9CFC",
"z. c #7C80FC",
"x. c #5C60FC",
"c. c #4040FC",
"v. c #2024FC",
"b. c #0004FC",
"n. c #0000FC",
"m. c #0000EC",
"M. c #0000E0",
"N. c #0000D4",
"B. c #0000C8",
"V. c #0000BC",
"C. c #0000B0",
"Z. c #0000A4",
"A. c #000098",
"S. c #000088",
"D. c #00007C",
"F. c #000070",
"G. c #000064",
"H. c #000058",
"J. c #00004C",
"K. c #000040",
"L. c #282828",
"P. c #FCE034",
"I. c #FCD424",
"U. c #FCCC18",
"Y. c #FCC008",
"T. c #FCB400",
"R. c #B420FC",
"E. c #A800FC",
"W. c #9800E4",
"Q. c #8000CC",
"!. c #7400B4",
"~. c #60009C",
"^. c #500084",
"/. c #440070",
"(. c #340058",
"). c #280040",
"_. c #FCD8FC",
"`. c #FCB8FC",
"'. c #FC9CFC",
"]. c #FC7CFC",
"[. c #FC5CFC",
"{. c #FC40FC",
"}. c #FC20FC",
"|. c #FC00FC",
" X c #E000E4",
".X c #C800CC",
"XX c #B400B4",
"oX c #9C009C",
"OX c #840084",
"+X c #6C0070",
"@X c #580058",
"#X c #400040",
"$X c #FCE8DC",
"%X c #FCE0D0",
"&X c #FCD8C4",
"*X c #FCD4BC",
"=X c #FCCCB0",
"-X c #FCC4A4",
";X c #FCBC9C",
":X c #FCB890",
">X c #FCB080",
",X c #FCA470",
"<X c #FC9C60",
"1X c #F0945C",
"2X c #E88C58",
"3X c #DC8854",
"4X c #D08050",
"5X c #C87C4C",
"6X c #BC7848",
"7X c #B47044",
"8X c #A86840",
"9X c #A0643C",
"0X c #9C6038",
"qX c #905C34",
"wX c #885830",
"eX c #80502C",
"rX c #744C28",
"tX c #6C4824",
"yX c #5C4020",
"uX c #543C1C",
"iX c #483818",
"pX c #403018",
"aX c #382C14",
"sX c #28200C",
"dX c #600064",
"fX c #006464",
"gX c #006060",
"hX c #00001C",
"jX c #00002C",
"kX c #302410",
"lX c #480048",
"zX c #500050",
"xX c #000034",
"cX c gray11",
"vX c #4C4C4C",
"bX c gray36",
"nX c gray25",
"mX c gray19",
"MX c #343434",
"NX c #D8F4F4",
"BX c #B8E8E8",
"VX c #9CDCDC",
"CX c #74C8C8",
"ZX c #48C0C0",
"AX c #20B4B4",
"SX c #20B0B0",
"DX c #00A4A4",
"FX c #009898",
"GX c #008C8C",
"HX c #008484",
"JX c #007C7C",
"KX c #007878",
"LX c #007474",
"PX c #007070",
"IX c #006C6C",
"UX c #980088",
/* pixels */
"9X8X8XqX8XwXwXqXqXqXqXqXqX8X8X6XqXrXrXwXqXwXqX9X6X9XqX9X9X8X9X9X9XqX9XqXwX9XqXwXwXqXqXqX8X9X9X8XqXwXqX8X8XqX9X9XrXwXwXwXrXqXqXwX",
"6X8X8X8X9X9X6X6X6X6X6X6X6X6X6X6X9XrXwX9X9XrXwX6X6X8X6X6X6X3X6X6X6X6X9X6XqX9X9XwXqX9X8XqX9X8X8X3X9XqXqX8X8XqX9X9XqX8XwX9XwX9XqX9X",
"6X8XqXqXqXwX9XqX9X9X6XqX9X6X6X6X9XwXqXqX9XwXqX8X6X8XqX8X8X8X9X9XqXqX9X6X6X9X9X6X9X6X9XqX9X8X6X6X9XwXqXwXqXwXqXqXwXrXwX9XrXrXwX9X",
"8X9XrXqXqXqXqXqXqXqX6X8X9X8XqX6X9XwXrX9XqXrXqX8X9X6X9X9XqX8X8XqXqX9X9X9X9X9X9XqXqXwXwXqXqXqX8X6XqXwXrXwXqXtXqXqXwXwXwXqXqXwXwX8X",
"8X9XrX9X9X9XwX9XqX8X8X6X6XqX9X6XqXrXrXwXwXrXqX9X8X9XqXqXqXwXqX9X9X9X9X9X9X9X8X9XqXrX9XqXwXqXqX8X9XwXrXrXqXwXqXqXwXqX8X9X8XqXwXqX",
"qXqXwX9X9XqXqXqX9X8X8X8XqX9X9X6XqXrXrXwXrXrXtXqX9X9XqXqXqXwXqX8X9X8X8X8X8X8X9X9XwX9X9XqXwXwX9X8XqXwXwXqX9X9X9XqXqX9XqX8X8XqXqXqX",
"9XqXqX9XqXqX8X9X9X9X8X9XqXqXqX8XwXrXwXqXqXrXwXrX9XqX9X9XqXqXqXqXqX8X8X9X8X8X9XqX9X9XqXqXqXqX9X6X8X9X9X9X8X9X8XqXwX9X9X8X8X9XwXqX",
"qXrXwXwX9X8X9X9X9X8X9XwXqXrXwX9XrXwXwX9X9XqXwXtX9XqXqX9X9X9XqXqXqX9X6X9X9XqXqXqX9XqXqXqXrXqX9X6X9X9X9X9X9X8X8X9XrXqX9X9X9XqXwX8X",
"qXwXwXwX8X8X8X9X9X9X9XwXwXrXrX9XrXrXwXqXwXqXwXrXqXqXqX9X9X9XqXqX9X9X9XqXqXqXqX9XqXqXqXwXwXqX9X6X8XwXwX9X9X6X8X9XrXwXqX9X8XqXwXqX",
"qXwXqXqX8X8X8XqXrX9X9XrXwXrXrX9XrXtXrXqXrXwXwXqXqXqXwXqX9X9XqX9X9X9XwXwXqXwXqX9XqXqXwXwX9X8X9X6X9XrXwXqXqX6X8X9XwXwXwXqX9X9XqXqX",
"qXqX8X9X8X9X8XrXqXqXqXwXwXqXrX9XrXtXtXrXrXrXrXqXwXqXwXqX9X9X9X8X8XqXqXqX9XwXqXqX9X9XrXqXqXwX9X6X9XyXrXwX9X9X9X8XqXwXwXqX8X9XwXwX",
"9X9X8X8XqX8X8XwXqXqXwXwXqXqXwX8XrXtXrXrXrXwXwXqXqX9XwXwXqX9X9X8XqXwXqXqX9XqXqXqXqX8XrXwXqX9X6X3XqXrXrXrX9X9XqX8XqXqXqXqX9XrXqXqX",
"9X8XqX8XqX8X9X8X9XrXqXqXwXqXqXqXqXrXrXwXqXtXwXwXwXqXwXqXqXqX9X9XwXtXqXwXqXqXqX9X9X9XwXwXwX9X9X6XqXtXwXwX6X6X9X9X9XqXtXtXwXwXqXqX",
"9XqXqX9X9X8X9X8X9XqXqXqXrXqXqX9XqXqXwXqXwXwXqXqXqXqXwXqXqXqXqX9XwXrXrXrX9XqXwXqXwX9XqXwXqXqX9X6X9XrXwXwX6X8X9X9X9XqXqXrXrXqX9XwX",
"9XqX9XwX8X8XqX8X8X9XqXqXqXrXqXqXqXwXrXwXrXwXqXqXrXwXwX9XqX9XqXqXrXrXwXrXqXqX9X9XrXqX8XwXwXqXqX6X9XrXwXwX9X9X9X9X8X8XqXwXqXwXqXwX",
"qX9X9XqX8X8X9X8X8X8X9X9XqXwXqX8X9XqXwXwXrXwXqXqXwXrXrXqXqX9XwXqXwX9XqXwXwXqX8X9XwXqX8XwXqXwX9X9XqXwXrXrXqXqX9X9X9X9X9X9X9XqXwXrX",
"9X9XqX9X9X9XqX8X9X9X9X9X9XqXqX6X9XwXwXqXwXqXqXwXrXrXtXrXwXqX9X9XqX9XqXwXwXwXqXqXwX9X9XqXqXqX9X9XqXrXwXwXqXwXqX9X8X9XwX9X8X9XwXwX",
"9X8X9X8X8X9XwXqXqX9XqX9X9X9X9X8X8XwXqX8XwXqXwXwXrXrXtXrXrXqX9X9XwXqXqXqXqXwXqXwXqXqX9XwX8X8XwXqXqXrXwXqXwXqX9X8X9X9XqX8X8XqX9X8X",
"9X9X9X8X8X8XqXwXwX8X8X9X8X9X8X8X8XwXwX8XwXwXwXqXwXqXrXrXrXqX8X8XwX9X9XqXqXqXqXwXqXqX9XqX8X8XrXwXrXrXrXqXwX9X9X8X8X9X9X8XqXqX9X9X",
"9X9XqX9X6X8X9XqXqX8X8X8X9X8X9X6X8XwXwXqXqXwXqXqXqXwXqXwXrXwX8XqX9X8XqXqXwX9X9XqXqXqXqX9X9X8XqXrXrXrXrXqXwX9XqX9X8X9XqX8X9XqX9X9X",
"9XqXwX9X6X8X8XqXqX9X9X8X9XqX8X6X8XwXwX9XwXwXqXqX9XwXqXqXwXqX9XqX8X9X9XqX8X9X9XqXqXqXqX9XwX8X6X9XrXrXqX9XwXwX9X9X9X9XwX9X9X9X8X9X",
"9XwX9X9X9XqXqXqX9X9X8X9XqX9X9X6X8XwXwXqXwXwX9X8X8XqXqXqXwXqXwX9X9X9X9XqXqXqXqXqXqXqXqXqXwX6X6X6XwXwXwX8XwXqXqX8X8XwXwX9X8XrX8X6X",
"wXwX9X9X9XqX9X9X9X9X9XqXqX8XqX8X9XwX8XwXwXqXqX9X9X8XqXwXwXrXrXqX9X9X9XwXqXqXqX9XqXqXqXqXwX6X8X6X9XwXwX9XwXqXqX8X8XwX8X9X9XrX8X9X",
"qX9X8X9XqXqX9X9X9X8X9X9X9X8X9X8XqXwXwXwXwX8X9X9X9X9XqXwXqXqXqXwXqX9X9XwXqXwXqXqXqXqXqXqXqX6XwX6XqXrXwXwXwX9XqX8X9XwXqX8XqXqX9XqX",
"9X9X9X9XwXwXwXqX9XqXqXqX8X8X9X8XwXwXrXwXwX8X9XqXqX9XwXrXqX8X9XrXrXqX9X8XeXrXwXwXqXqXwXwXqX6XwX6X9XrXwXwXqX8X9X8XqXwX8X6X9X9XqXqX",
"9X9XqXqXwXrXwXqX9X9XqXqX9X9XqX8XwXwXrXwXwX9XqXqXqXwXrXwXqX9XqXwXwXrXqXwXwXrXwXqXqXqXqXwXrX9X9X6X9XwXwXqX8X8X9X8XwXqX6X6X8XqXqXqX",
"9XqXqXqXwXqXwX9X8X9XwXwXqXwXqX9XwXrXwXqXwXqXqXqXqXrXwXqXqXqXqXwXrXrXwXtXtXwXqX9X9XqX9XqXwX6X8X6X9XwXwX9X9X8X8X8XwXqX8X6X8XqXwXqX",
"8XtXqXqXqX9XqX8X9X9XqXqXwXqXwXwXrXrXwXqXwX9XqXwXrXwXwXqX9XqX9XrXwXwXtXrXrXrXwXwX9X8X9X9XrX9X9X6X9XwXqX8X8X8X8XqXwX9X9X9X8X8XqXwX",
"rXrXqX9X9X9X9X8X9X8XqX9XrXwXrXwXrXwXrXqXwXqXrXqXrXwXqXqX9XqXrXqXrXrXrXqXrXwXrXeXqX9XqXwXwXqXqX9XwXwXwX9X8X8X8X9XqXqX9X9X9XqXqXqX",
"rXqX9XqX9X8X9XqX8XqX9XwXrXrXtXwXrXwXwXrXwXwXwXwXwXwXqXwXwXqXrXwXwXrXrXwXrXrXtXtXrXrXrXrXwXqXqXrXrXrXqXqXwX9X9X9X9XqXqXqXqXwXwXwX",
"rXrXwXwXqX8XqXqXqXwXrXrXtXyXyXrXrXrXrXrXrXrXwXwXrXrXrXrXrXwXwXwXrXtXwXrXrXrXyXyXyXtXyXtXtXwXrXtXrXrXqX8XwXqXwXwXtXwXrXqXwXrXrXrX",
"rXrXwXwX9X9XqXqXqXrXrXwXtXtXtXrXtXrXwXwXtXtXwXwXrXtXtXrXwXqXrXwXrXtXrXrXrXrXyXtXyXwXtXtXtXrXwXwXqXtXrXwXwXqXwXwXwXwXrXwXwXwXrXrX",
"qX9X9X9X9X9X9XqX9X9X9X9XqXwXqXqXwXrXwXwXrXrX9X9XqXqXqXqX8X9X9X8X8X9XqX9X9X6XqX9X9XqX9XqXqX8X8X8X9XwXqXwX9X8X8X9X9X9XqXqX9X8XqXqX",
"6X6X6X8XqX6X3X6X6X6X6X6X9XqXqX8XqXwXwXwXqXqX8X9X9X9X6X9X6X5X6X6X6X6X6X6X6X8X9X9X6X9X9X6XqX6X8X6X8XwXqXqX9X6X6X6X9X9X6X8X6X8X9X8X",
"9X8X8X8X9XqX8X6X9X6X9X8X6X6X6X8XwXrXwXwX9X9X8XqXqXqXqXwX9X9X8X8X6X8X9XqXqX9XqX8X8X9XwXwX6X6X6X6X8XwXqX9X9X8XqXqX9XqX8X9X9X8X9XwX",
"qX9XqXqX9XwXqX9X9XqXqX9X6X9X6X8XwXrXrXqX9X9X9XwXwXwX9XrX9X9X8X8X8X9XqX8XqX9XqX9X9X8X9XqX9X9X8X6X6XwXwXqX9XqXqXqX9X8X8XqX9XqXqXqX",
"qX9XwXqX9XqXqX9XqXqX9X9X9X9X6XqXqXrXrX9X9X8XqXrXwXwXqXwX9X8X9X8X9X9XwX9XqX9X9XqX9X9X9X9XqXqX8X8X9XwXqXqXqXqXqX8X8X9X9XrXqXqXqXqX",
"tXqXwX9X9XqXwX8XqXqXqXqXqX9X9XqXqXrXwX9XqX9XwXwXwXqXqXwXqX8X9X9X9XwXwXqXrXqXqXwX8XqXqX9XqXqX9XqXqXrXqX9X9X9XqXqX8X8X8XwXwXqXqXqX",
"tXqXwXqXqXqXqXwXwX9X9XqXwXrXqX9XqXwXrXqXqXqXwXqXwXwXqXrX9X9X8XqX8X9XwX8XrXwXqXqX9XwX9X9XqX9X9XqXqXrXqXqXwXqXqX9X8X8X9XqX9XqXwXwX",
"wXqXqXwXwX8X9XqXwXwX9XqX8XrXqX9X8XwXwXwXrXrXwX8XqXqXwXrXqXqX8XqX8X8X8X8XwXqXqXqXqXrXqX9XqXqXqXqXwXtXqXqXqXqXqXqXqX9XqX9X8X9XwXwX",
"qXqX9XwXwX8XwX9XwXwX8X8XwXwXwX9X9XqXqX9XqXqXqX8X9XqXqXrXqXqX8X9X8X9X8X8XqXqXqX9XwXrX9XqXwXqXqX6XwXrXwX9XqXqXqXqXqXwXqX9XqX9XwXqX",
"rXqX9X8XqXwXwXqXwXtXrX9XwXwX9X6XqXrXqX9X9XrXwXqXqXqXqXwXwX9X9X9X9XrXqX9XqX9X9XqXwXqXqX9XrXqXqX6XqXrXwX9XqXqXqXqXwXqXwX9XqX9XwX9X",
"rXqXqX9X9XqXwXwXwXrXtXqXwXqX6X6XqXrXwX9X8XrXrXrXqX9X9XqXqXqX9X9XqXrXqXqXqXqXqXqXrXqXqXqXqX9XqX6XwXrXwXqX9XqXqXqXqXqXwXqXqX8X9XwX",
"wXqXqX9X9X6XqXwXrXeXtXqXwXqX6X8XqXrXwX9X9XqXrXwXqX9X9X8XwXqX8X8X9X9X9X9XqXqX9X9XqXqXwXwXqX9X9X6XqXtXrX9X9XwXwXwXqXwXqXwXqX8X9XwX",
"wX9X8X9X9X9X9XwXrXtXtXrXqXqX6X8XqXwXwXqX9XqXrXqXqX8XqX9XqX9X6X8X9X8X9X9X8X8X9XqXwXqX9XqXqXqX8X6XwXrXwXqXqXrXwXqX9XqX9XqXwX8XqXqX",
"qX8X8X8X9X9X9XwXwXtXtXrXqX9X9X8XqXrXwX9XwXwXwXrXqX9X9X9XqX9X6X9X9X8X8X9X9X9XqXwXqX8X9X8XqXqX8X6XqXrXwXrXwXrXwXwXwXwXwXqXqX9X9X9X",
"wX9X8X8X9X8XqXqXtXrXwX9X6X8X9X8XqXwXwX9XwXwXqXwXqX9X9X9XwXqXqX9X9X9X8X8X9X8X9XwX9X8XqX8XwXqX9X8X9XrXwXwXrXqXwXqXqXqXqXqX9X9X9X8X",
"wX9X9X9X8X9XqXqXrXrX9X9X8X9X8X8XqXrXwXqXwXwX9XqX8XqX9X9XqXqXqXqXqXqX9X8X9X9XqXwXqXqXwXqXqXqX9XqX9XrXwXwXqXqXqXqXqXqX9X9XqX9XwXwX",
"wXqX9X9X9XqX8XwXwXqX9X9X8XqXqX6XqXrXwXwXwXwX9X9XqXwX9XqXwXqX9XwXwXqXqX8X9X8XwXqXqXwXqXqXwX9X9XqX9XrXwXqXqX9XqX9XqX9X8X9X9XrXwXwX",
"qXqXqX8X6XtXwXrXwX9X9X9X9X9XwX8XqXwXrXwXwXwX9X9XwXqXqXqXwXwX9XqXwXwXrX8XqXtXqXqXqXwXwXqXwXwX9X6X9XrXwX9X9XwXwXqX9X9X8XqXwXqXwXwX",
"qXqXqX8X8XtXqXtXwXqX9XqXqXwX9X6X8XrX8XwXwXwXqX9X9XqXwXwX9XqXqXqXwXqXwXwXwXtX9X9X9XqXqX9X9X9X9X6X8XrXwXqXqXrXqX9XrXqXqXqXrXwXwXrX",
"9XqX9X8X9X8X8XqXrXqXqXwXqXqX9X6X9XrXwXwXqXrXqXwXqXwX9XqXqX8XqXqXwXqXrXrXqXwXqXqXqXqX8XqX9X9X8X6XqXwXrXwXwXrXqXqXrX9XqXqXqXwXqXrX",
"9XqXwXtX9X9X9XqXtXqXwXwXqXqXwX8X9XrXrXwX9XwXwXwX9XwX8X8XqX8XqXqXqXrXwXrXwXqXrXrXtXwX9X9XwX9XqX9XqXwXrXqXqXwXwXqXqXqX9XqXqXwXrXwX",
"qXqXqXqX6X8X9X9XqXrXtXrXqXqXrX9XwXwXwX9XwXqXwXwXqX9X9X8XqXqX9XqX9XwXwXrXwXrXwXrXeXwX9XwXqXwXqXqXrXrXqXqXqXqXqX9X9X9XqXqXqXwXwXqX",
"9XqX9X8X9X8X8X9XwXrXrXrXrXqXwX9XqXwXwX8X9XwX9X9X9X8XqX9XqXqXqXqXqX9XwXqXrXrX9XqXwXwXqXwXrXrXqXqXrXwXqX9XqXqXwXqXqXqXqXqXwXrXwXqX",
"8X9X8X9X8X9X8X9XwXtXtXrXrXwXqX9XqXwXwX8X9XwX8X8XqX9XqX8X9XqX8XqX9XqXrX9XqXqX9X9XqXwXqXrXtXwXqXqXqXwXqX9XqXwXqXqXrXwXwXrXrXtXtXwX",
"8X9X8XqXwXqX8X8XwXtXtXrXrXqX9X8XqXrXrXqXqXwX9X8XqX9X9X9X8X9X8X9XqXqXqXqX9X8X9X8XwXwXwXwXrXqXwX8XrXrXwXqXwXqXwX9XrXrXrXrXeXrXwXqX",
"8X6XqXqX8X9X8XqXrXrXrXrXwXqXqX8XqXtXrXqX8X9X9X9XqXqXqX9X9X9X8X9XqXqXqXwXqX9X8XqXqXrXrXqXwXrXrXtXrXrXwXqXrXrXwXwXwXrXwXwXwX8X8X9X",
"8X9X9XqX9X9XqXqXqXrXrXtXqXqXqX6X9XrXwXqX8XqX8X8X9XqXqXqX9X8X9XtX9X9XwXrXqX8X9XqXwXrXrXqXqXrXrX8XwXyXrXwXrXtXqXqXtXrXwXwXwXqX9XqX",
"qX9X6X9X9XqX9XqXqXrXwXtX8X9X8X6X9XwXrX9XqX9X8X9XqXqX9X9X8X6X9X8X8X9XqXrXrXrXwXwXrXrXrXqXwXwXrX9XrXrXwXwXwXrXwXrXeXrXrXwXwX9XqXqX",
"qX9X9XqX9XwXqXqX9X9XrXrX9X8X8X3X9XwXrX9XqX8X8X9XwXqX8X9X9X9XqX9X8X9XqXrXtXtXqXwXrXwXwXwXwXqX9X6XqXrXrXrXwXwXrXrXrXtXwXqXwXqXwXwX",
"qX6X9XqXqXrXqXqX9X9XrXrXqX8X9X6XqXrXrXqXqX9X9XqXwXqX9X9XqX9XwXwXwXqXqXtXrXrXwXqXrXrXrXwXwXqX8X8XqXtXrXrXrXrXtXtXeXtXwXqXrXwXwX8X",
"qXqXqXqXwXrXwXwXrXrXtXrXwXqXwXqXqXrXrXwXwXqXqXwXwXwXwXqXwXrXrXwXwXqXwXtXtXtXrXtXrXtXtXrXrXwX9XqXqXtXrXtXtXtXtXtXtXtXrXrXtXrXrXwX",
"wXrXwXrXwXqXwXrXrXrXrXwXwXqXwXqXwXwXrXwXqXqXwXrXrXwXwXrXrXrXwXwXwX9X9XwXrXrXrXrXrXwXrXrXwX9X9X9XqXtXrXrXrXrXtXrXqXrXrXrXrXwXwX9X"
};
