/* XPM */
static char *_d9ebcdb2e8342c0fa900be72c68fdc9a3CJJlPcnk5vRw6Y[] = {
/* columns rows colors chars-per-pixel */
"64 64 256 2 ",
"   c black",
".  c #0000A8",
"X  c #00A800",
"o  c #00A8A8",
"O  c #A80000",
"+  c #A800A8",
"@  c #A85400",
"#  c gray66",
"$  c gray33",
"%  c #5454FC",
"&  c #54FC54",
"*  c #54FCFC",
"=  c #FC5454",
"-  c #FC54FC",
";  c #FCFC54",
":  c gray99",
">  c #ECECEC",
",  c gainsboro",
"<  c #D0D0D0",
"1  c #C0C0C0",
"2  c #B4B4B4",
"3  c gray66",
"4  c #989898",
"5  c gray55",
"6  c #7C7C7C",
"7  c gray44",
"8  c #646464",
"9  c gray33",
"0  c #484848",
"q  c gray22",
"w  c #2C2C2C",
"e  c #202020",
"r  c #FC0000",
"t  c #EC0000",
"y  c #E00000",
"u  c #D40000",
"i  c #C80000",
"p  c #BC0000",
"a  c #B00000",
"s  c #A40000",
"d  c #980000",
"f  c #880000",
"g  c #7C0000",
"h  c #700000",
"j  c #640000",
"k  c #580000",
"l  c #4C0000",
"z  c #400000",
"x  c #FCD8D8",
"c  c #FCB8B8",
"v  c #FC9C9C",
"b  c #FC7C7C",
"n  c #FC5C5C",
"m  c #FC4040",
"M  c #FC2020",
"N  c #FC0000",
"B  c #FCA85C",
"V  c #FC9840",
"C  c #FC8820",
"Z  c #FC7800",
"A  c #E46C00",
"S  c #CC6000",
"D  c #B45400",
"F  c #9C4C00",
"G  c #FCFCD8",
"H  c #FCFCB8",
"J  c #FCFC9C",
"K  c #FCFC7C",
"L  c #FCF85C",
"P  c #FCF440",
"I  c #FCF420",
"U  c #FCF400",
"Y  c #E4D800",
"T  c #CCC400",
"R  c #B4AC00",
"E  c #9C9C00",
"W  c #848400",
"Q  c #706C00",
"!  c #585400",
"~  c #404000",
"^  c #D0FC5C",
"/  c #C4FC40",
"(  c #B4FC20",
")  c #A0FC00",
"_  c #90E400",
"`  c #80CC00",
"'  c #74B400",
"]  c #609C00",
"[  c #D8FCD8",
"{  c #BCFCB8",
"}  c #9CFC9C",
"|  c #80FC7C",
" . c #60FC5C",
".. c #40FC40",
"X. c #20FC20",
"o. c #00FC00",
"O. c #00FC00",
"+. c #00EC00",
"@. c #00E000",
"#. c #00D400",
"$. c #04C800",
"%. c #04BC00",
"&. c #04B000",
"*. c #04A400",
"=. c #049800",
"-. c #048800",
";. c #047C00",
":. c #047000",
">. c #046400",
",. c #045800",
"<. c #044C00",
"1. c #044000",
"2. c #D8FCFC",
"3. c #B8FCFC",
"4. c #9CFCFC",
"5. c #7CFCF8",
"6. c #5CFCFC",
"7. c #40FCFC",
"8. c #20FCFC",
"9. c #00FCFC",
"0. c #00E4E4",
"q. c #00CCCC",
"w. c #00B4B4",
"e. c #009C9C",
"r. c #008484",
"t. c #007070",
"y. c #005858",
"u. c #004040",
"i. c #5CBCFC",
"p. c #40B0FC",
"a. c #20A8FC",
"s. c #009CFC",
"d. c #008CE4",
"f. c #007CCC",
"g. c #006CB4",
"h. c #005C9C",
"j. c #D8D8FC",
"k. c #B8BCFC",
"l. c #9C9CFC",
"z. c #7C80FC",
"x. c #5C60FC",
"c. c #4040FC",
"v. c #2024FC",
"b. c #0004FC",
"n. c #0000FC",
"m. c #0000EC",
"M. c #0000E0",
"N. c #0000D4",
"B. c #0000C8",
"V. c #0000BC",
"C. c #0000B0",
"Z. c #0000A4",
"A. c #000098",
"S. c #000088",
"D. c #00007C",
"F. c #000070",
"G. c #000064",
"H. c #000058",
"J. c #00004C",
"K. c #000040",
"L. c #282828",
"P. c #FCE034",
"I. c #FCD424",
"U. c #FCCC18",
"Y. c #FCC008",
"T. c #FCB400",
"R. c #B420FC",
"E. c #A800FC",
"W. c #9800E4",
"Q. c #8000CC",
"!. c #7400B4",
"~. c #60009C",
"^. c #500084",
"/. c #440070",
"(. c #340058",
"). c #280040",
"_. c #FCD8FC",
"`. c #FCB8FC",
"'. c #FC9CFC",
"]. c #FC7CFC",
"[. c #FC5CFC",
"{. c #FC40FC",
"}. c #FC20FC",
"|. c #FC00FC",
" X c #E000E4",
".X c #C800CC",
"XX c #B400B4",
"oX c #9C009C",
"OX c #840084",
"+X c #6C0070",
"@X c #580058",
"#X c #400040",
"$X c #FCE8DC",
"%X c #FCE0D0",
"&X c #FCD8C4",
"*X c #FCD4BC",
"=X c #FCCCB0",
"-X c #FCC4A4",
";X c #FCBC9C",
":X c #FCB890",
">X c #FCB080",
",X c #FCA470",
"<X c #FC9C60",
"1X c #F0945C",
"2X c #E88C58",
"3X c #DC8854",
"4X c #D08050",
"5X c #C87C4C",
"6X c #BC7848",
"7X c #B47044",
"8X c #A86840",
"9X c #A0643C",
"0X c #9C6038",
"qX c #905C34",
"wX c #885830",
"eX c #80502C",
"rX c #744C28",
"tX c #6C4824",
"yX c #5C4020",
"uX c #543C1C",
"iX c #483818",
"pX c #403018",
"aX c #382C14",
"sX c #28200C",
"dX c #600064",
"fX c #006464",
"gX c #006060",
"hX c #00001C",
"jX c #00002C",
"kX c #302410",
"lX c #480048",
"zX c #500050",
"xX c #000034",
"cX c gray11",
"vX c #4C4C4C",
"bX c gray36",
"nX c gray25",
"mX c gray19",
"MX c #343434",
"NX c #D8F4F4",
"BX c #B8E8E8",
"VX c #9CDCDC",
"CX c #74C8C8",
"ZX c #48C0C0",
"AX c #20B4B4",
"SX c #20B0B0",
"DX c #00A4A4",
"FX c #009898",
"GX c #008C8C",
"HX c #008484",
"JX c #007C7C",
"KX c #007878",
"LX c #007474",
"PX c #007070",
"IX c #006C6C",
"UX c #980088",
/* pixels */
"qXwXeXqX9XwX9X8XqXwXqXqXwXqXqXqX9X9XqXwXqX9X9X9X9X9XqXwXqX9X8XiXiXqXeXwXwXqX9X9X9X9XqXqXqXqX9XqXwXwXwXwXwXqX9X9X9XwXqXqXqX9XiXiX",
"eXrXwXqXqX9X8X9XwXqXqXwXqXwXwX9X9XqXqXqXqXqX9X9X9XwXwXqX9X9XiXiXqXwXeXwXwX9X9X9X9X9XqXqXqX9X9XqXqXqXwXwXqX9X9XqXqXwXqXwXqXiXiX8X",
"tXqX9XwX9X8X9XwXwXqXqXqXwXwX9X9X9XqXqXqXqXqX9X9XwXwXqX9X9XiXiXqXwXwXwXwXqX9XqX9XqXqXwXqX9X9X9XqXqXwXwXqX8X8XqXqXwXwXwXqXiXiX9XrX",
"wX9XwX9X8XqXqXqXqXqX9XwXwX9X9X9XqXqXqXwXwX9X8XwXeXqX9XqXiXiX9XwXwXwXwXqX9X9X9X9XwXwXqXqXqX9X9XqXwXwXqX9X8X9XqXwXwXeXwXiXiX9XrXrX",
"9XwX9X9XqXwX9XqXqX9XwXwXqX9XqXqX9XqXeXeXqX9XqXeXqX9X9XiXiX9XwXwXwXwXqXqXqX9XqXqXeXwXqXwXqXqX9XqXwXqX8X9XqXqXwXeXwXeXiXiXqXrXrXeX",
"wX9X8XwXwXqX9XqX9XwXwXqXqXqX9XqXqXwXeXqX8XqXwXqX9XqXiXiX9XwXwXwXqX9XqXqX9XqXwXwXeXqXwXwXwX9XqXqX9X9X9XqXqXwXeXrXwXiXiXqXrXeXwXqX",
"9XqXrXwXqX9XqXqXwXqX9XqXqX9X9XqXwXeXqX8XqXwXqX9XqXiXiX9XqXwXqXwX9XqXwX9XqXwXwXwXqXqXqXwXwXqXwX9X9XqXqXqXeXeXeXwXiXiXqXrXeXqXqXwX",
"qXrXwXqX9XqXqXwXqX9XqXqXqXqXwXeXeXqX8X9XwX9X9XwXiXiX9XqXwXqXqX9XqXeXqXqXwXeXqXqX9XqXwXwXqXqXqX9XqX9XqXeXeXeXwXiXiXqXrXeX9XqXwX9X",
"rXeXqX9XwXqXwXqX9XqXqXqXwXwXeXeXqX8XqXwX9X9XqXiXiX9X9XwXqXqX9X9XwXqXqXwXeXwXqX9XqXeXwXqXqX9X9XqXqX9XwXwXeXwXiXiXwXeXeX8X9X9X9XqX",
"rXqX9XwXwXqXqXqXwXqX9XwXwXeXeXqX8X9XqXqX9XwXiXiX9X8XqXqXqXqX9XwXwXqXwXeXwXqX9X9XeXeXqXqX9XqXqX9X9XwXqXwXeXiXiXwXeXwX8X9XqX8XqXrX",
"qX9XwXwXqXqX9XwXqX9XqXeXeXwXqX8X9XqXqXqXwXiXiX9X8X9XqX9X9XqXwXwXqXwXeXwXqXqXqXeXrXqX9XqXwXwX9X9XwXwXqXeXiXiXqXwXwX9X9XqX9XqXrXrX",
"9XeXwXqXqXqXwXqX9XqXeXrXwX9X8XqXqXqXqXwXiXiXqX8X9XwXqX9XqXwXqXqXeXeXwXwXqXqXwXrXwX9XqXwXeXqX9XwXwXwXeXiXiX9XqXqX9XqXwXqXqXrXrXqX",
"eXrXwX9XqXwXwXqXqXwXeXwX9X8XqXqXqXwXwXiXiXqX9X8XwXwX8XqXwXqX9XwXeXwXqXqXqXeXeXwXqXqXwXeXqXqXwXqXqXeXiXiX9XqXqXqXqXqX9X9XrXwXqX9X",
"rXwX9X9XwXqXwXwXwXwXwX9X9XwXqXqXwXwXiXiXwX9X9XqXwX8X9XeXwX9XwXwXwXqX9X9XeXrXwX9XqXwXwXqXqXwX9X9XwXiXiX9XqXqX9XwXqX9X9XwXwXqX9X9X",
"wX9XqXqX9XwXwXwXwXqXqXqXwXqXqXeXwXiXiXwX9X9XqXqX9X8XwXwX9XwXwXqXqX9X9XwXeXwX9XqXwXeXqXqXwXqX9XwXiXiX9X9XqXqXwXqX8X9XwXwXqX9X9XeX",
"9XqXqX9XwXwXqXqXqXqXqXqXqXqXeXwXiXiXwXqX8XqXqX8X8XwXwX9XqXrXqX9X9X9XwXwXwXqXqXeXwXwXqXwXqXqXwXiXiXqX9X9XqXwXqX8XqXwXwXqXqX9XwXrX",
"qXqX9XwXqXqXqXqXqXqXqX9X9XeXwXiXiXwXqX8XqXqX8X9XqXwX9XqXrXwX9X9XqXqXwXqX9XqXeXeXwXqXwXqXqXwXiXiXqX9X9XqXwXqX8XwXeXwXqXqXqXwXrXwX",
"qX9XwX9X9XqXqXqXqXqX9X9XeXeXiXiXwXwX9XqXqX9XqXwXwX9XqXrXeX9XqXqXqXwXqXqXqXwXrXqXqXwXeXqXqXiXiXqX9X9XqXwXqX8XwXeXqXqXwXqXqXeXwXwX",
"9XwX8X9XqXqXwXqXqX9X9XwXrXiXiXwXwX9XqXwX8XqXqXwX9XqXrXeXqXqXwXwXqXqX8XqXwXeXwXqXwXeXwXqXiXiXqX9X9XqXwX9X9XqXeXwX9XqXqXqXeXqXqXqX",
"wX8X8XqXwXeXwXqX9X9XeXrXiXiXwXwX9XqXqX9XqXwXwXqX9XrXeXqX9XwXwXqXqX8X9XwXwXqXqXwXwXeX9XiXiXwXqX9XwXwX9X9XwXeXwX9XqX9X9XwXqXqXqX9X",
"9X9XqXwXeXeX9X9X9XeXeXiXiXqXwXqX9XqX9XqXwXwXwXqXrXrX9X9XqXwXqX9X8X9XwXwXqXwXwXqXwXqXiXiXwXqX9XqXwX9X9XwXwXwX9XqXqX9XqXqXqXqX9XwX",
"8XwXeXwXwX9X9XqXwXeXiXiXwXwXwX9XqX9XqXqXwXeXwXrXeXqX9XqXwXqX9X6X9XwXwXqXwXwXwXqXqXiXiXwXqX9XqXwXqXqXeXeXqXqXqX9XqXwXqXqXqX9XwXwX",
"qXeXwXqXqXwXwXwXwXiXiXwXwXwXqXqX9XwXqXqXwXwXrXeXqX9XqXqXqX8X6X8XwXwXqXwXwXwXwXqXiXiXeXwXqXqXwXwXqXeXwXwXqXqX9X9XwXqXqXwX9X8XeX8X",
"eXqXqXqX9XwXwXwXiXiXwXeXwXqXqX9XwXqX9XeXwXeXeX9X9XwXwXqX9X6X9XwXqXqXwXwXwXwXqXiXiXeXwXwXqXwXqXwXeXeXwXwXqX9XqXwXqXqXwX6X8XeXeXwX",
"9X9XwXqXwXwXwXiXiXqXeXwXwXwXqXeXwX8XeXwXwXeXqX9XqXwXqX9X6X9XwXqXqXwXwXqXqXqXiXiXwXwXwXqXqXqXwXeXeXwXwXqX9XqXwXqXqXwX8X8XwXwXwXeX",
"9XeXwXwXwXqXiXiXqXwXwXqXwXqXwXwX8XqXeXwXwX9X9XqXwXqX9X8X9XqXqXqXwXwXwXqX9XiXiXwXwXwXwX9XqXwXeXeXeXwXqX9XqXwX9XqXqX9X8XwXwXwXeX9X",
"rXeXwXeXqXiXiXqXeXwXqXqXqXwXqX8XwXwXwXwX9X9X9XwXqX9X8X9XwX9XqXwXwXqXqXqXiXiXeXwXwXwXwXqXeXeXeXeXwXqX9XqXwXqXqXwX9X8XqXwXwXeX9XwX",
"rXwXeXqXiXiX9XwXeXqXqXqXwXwX8XwXwXwXwX9X9X9XqXwX9X9X9XqX9XqXwXwXwXqX9XiXiXeXeXeXwXwXqXeXrXeXrXeXqX9XqXwXwXwXeX9X9XqXwXwXqX9XwXrX",
"wXeXqXiXiX9XwXwXqXqXqXqXwX9XwXrXqXwXqX9X9XqXeXqX9XqXwX9XqXwXeXwX9X9XiXiXeXwXrXwXwXwXwXeXeXrXeXqX9XwXwXwXwXwX9X9XqXqXeXqXqXwXrXrX",
"eXwXiXiX9XeXwXwXqXqXqXqX9XwXeXwXqX9XqXqXqXeXwXwXqXwXqX9XwXwXeXqX8XiXiXrXeXrXeXqXqXwXeXeXrXeXqX9XwXeXwXwXwXqX9XwXqXwXwXqXwXeXrXwX",
"eXiXiX9XwXwXqXwXwXqXwX9XqXeXwXwX9XqXwXwXeXeXwXwXqX9XqXwXwXeXqX8XiXiXrXrXrXrXwX9XqXeXeXeXwXqXqXqXeXwXeXwX9X9XqXqXwXwXwXeXeXeX9XqX",
"iXiX9XwXwXqXwXqXqXwXqXqXeXwXwXqXqXwXwXeXrXwXwXqX9XqXwXeXeXwX8XiXiXeXeXrXrXeXqXqXwXrXwXwXqXqXwXeXeXeXwX9X9XqXqXqXwXqXeXeXeX9XwXeX",
"iX9XwXqX9XqXwXqXwXqX9XeXeXqXqXqXwXwXwXeXeXwXwX8X9XwXeXeXwX9XiXiXeXwXeXrXrXqX9XwXwXeXqXwX9XqXwXeXrXwXqX9XqXqXqXqXqXeXeX9X8XqXeXiX",
"9XwXqX9XwXwX9XwXwX9XwXeXwX9XqXqXwXwXeXwXwXqX9X9XwXeXeXwX9XiXiXeXwXrXrXeXwX9XwXwXeXqXqXqXqXqXwXrXwXqX9XqXqXwXqXwXeXeXqX8XqXeXiXiX",
"wXqX9XwXwXqXqXwXwXwXrXwXqXqXwXwXwXeXeXqXwXqX9XwXeXeXwX9XiXiXeXwXeXeXrXwX9XqXqXwXqXqXqX9XqXwXrXeX9X9XqXqXqXqXwXrXrXqX8XqXwXiXiXwX",
"qXqXeXeXqXqXwXqXwXeXwXqXwXeXwXwXwXeXqXwXqXqXwXeXwXwX9XiXiXeXwXeXeXeXwX9XqXwXwXqXqXqXqXwXwXtXwXqX9XwXqXqXqXqXrXeXqX8XqXwXiXiXqXeX",
"qXeXeXwXqXqXwXwXwXqX9XwXwXwXwXwXwXqXqXwXqXwXeXqX9X9XiXiXeXeXwXwXwXwX9XqXwXwXqXqXqXqXqXwXrXwXqX9XqXwXqXqX9XeXeXqX8XqXwXiXiXqXwXrX",
"eXrXwXwXqXqXqXeXqX8XqXwXqXwXwXwXqXqXwXqXwXwXwX9X9XiXiXeXwXwXwXwXqX9XqXwXwXqXwXwX9XqXwXrXeXqX9X9XwXwXwX9XeXeXqX8X9XwXiXiXqXwXrXqX",
"rXeXeXqXrXqXwXwX8X9XwXqXqXqXqXqXqXwXwXwXeXqXqXqXiXiXwXwXqXqXwXwX9XqXwXwXqXwXwXqXqXwXeXeXqX9X9XqXwXqX9XeXeX9X8X9XqXiXiXqXwXeXqXeX",
"eXqXwXrXrXwXwX9XqXqXqX9XqXqX9XwXwXqXwXeXqXqXqXiXiXqXqXqX9XwXwXqX9XwXwX9XqXwXqXqXwXeXeXqX8X9X9XqXqX8XwXeXqX8X9XwXiXiXqXwXwXqXeXeX",
"qXwXrXqXeXwX9XqXqX9X9X9XqXqXwXeXqXwXwXqX9XqXiXiXwXqXqX9XqXwXqXqXwXwX9XqXqXqXqXwXeXwX9X8X9XqXqXqX9XqXeXqX9X9XwXiXiXqXqXwXqXeXeXqX",
"eXrX9XwXwX9XwXqX8X9X9XqXqXwXeXwXwXeXqX9XqXiXiXqXwXqX9XqXwXqXqXwXeXqXqXwXqXqXwXeXwX9X8X9XqXqXwX9XqXwXqX9XqXwXiXiXqXqXqXwXeXeXqXqX",
"rXqX8XwX9XqXwX8X8X9XwXqXwXeXwXwXeXwX9XqXiXiXqXeXqX9XqXwXwXwXwXwXqXqXwXqXwXqXwXwX9X9X9XwX9XwXqXqXwXqXqXqXwXiXiXqXqXwXqXqXqXqXqXrX",
"9X8XqX8XwXwX8X8XqXqXwXqXeXwXqXwXqXqXqXiXiXwXwXqX9XqXwXqXqXwXeXqXqXwXwXwXwXwXqX9X9XqXqXqXwXqX9XwXqXqXqXwXiXiXwXwXwXwXqX9XqX9XeXtX",
"8X9X8XqXwX8X8XqXqXwXqXwXwXqXwXwX9XqXiXiXqXwXqX9XwXwXqXqXqXwXqXqXwXwXwXwXqXqX9XqX9XqXqXwXwX9XwXqXqXqXqXiXiXqXwXeXeXwX9XqX9XwXrX9X",
"9XqXwXeX8X6XwXwXqXqXqXwXqXwXwXwXwXiXiXqXwXqXqXwXwXqXqXqXwXqXqXeXwXwXqXqXqXqXqXqX9XqXwXwXqXwXwX9XqXqXiXiXwXwXwXeXwX9X9XqXwXrX9X8X",
"qXeXeX9X6XqXwXwXqXwXwXqXwXqXwXwXiXiX9XwXqX9XwXeX9XwXqXqXqXqXwXwXeXwXqX9X9XwXwX9X9XwXwXqXwXqX9XqXqXiXiXqXwXwXwXwX9X8XqXwXrX9X8X9X",
"eXeX9X8XqXeXwXwXwXwXqXqXqXqXqXiXiXqXwXqXqXqXwX9XqXwXqXqXqXqXeXwXwXqX9X9XqXwXqXqXqXwXqXqXqX9XqXwXiXiXqXqXwXwXwX9X9XqXwXeX9X8X9XqX",
"rX8X9XqXwXwXqXwXeXqX9XqXqXwXiXiXqXwXqXqXwXwXqXqXqXqXwXwXwXwXwXqXqXqX9XqXwXqXqXwXwXqXqX9X9XqX9XiXiXqXwXwXwXwX9X9XqXeXwXqX8X9XqXwX",
"8X9XwXwXqXqXwXwX9X9X9XwXwXiXiXqXwXqXqXwXwXqXqXqXqXwXeXwXwXeX9XqXwX9XqXqXqXqXwXeXqX9XqX8XqX9XiXiXwXwXwXeXwX9X9XqXeXrX9X8X8XwX9XwX",
"9XwXqXqX9XqXwX9X9X9XwXwXiXiXqXwXwXwXqXqX9XqXqXqXqXwXwXwXeXqXqXqX9XqXwX9XqXqXeXqXqXqX9X9X9XiXiXqXqXwXeXeXqX9XqXeXrXqX8XqXwXqXwX8X",
"wX9XqX9XqXwX9X9X9XqXwXiXiX9XwXqXwXqX9X9XqXqXqXqXqXqXwXeXqXqXqX9X9XwXqXqXqXwXqXqXqX9XqX9XiXiXqXqXwXrXeXqX9XqXwXeXqX8XqXqXqXwX8X9X",
"qXqX9X9XwXqX9XqXqXqXiXiX9XwXqXwXwX9X9XqXwX9XqXqXqXqXeXqXwXqX8X9XqXqX9XqXeXqX9X9X9XqX9XiXiXqXqXwXeXeXqXqXqXwXwX9X8XqXqXqXwX8X9X8X",
"qX8X9XeXqX9XqXwXqXiXiX8XqXqXqXqX9X9XqXwXqX9X9X9XwXeXqXwXwX8X9XqXqXqXqXwXqX9X9X9X9X9XiXiXqX9XwXwXwXqX9XqXwXeX9X8XwXwXqXwX8X9X8XwX",
"8X9XeXwX8XqXqXqXiXiX8XqXqXqXqX8X9XqXqXqX8X9X9XwXeXwXwXwX8X9XwXwXqXqXwXqX8X9X9XqX8XiXiXqXqXwXeXqX9XqXqXqXwXqX9XwXeXqXwX8XqX9XwXeX",
"9XrXwX8X9XqXqXiXiX9XqXqXqXqX8X9XqXwXwX9X9X9XqXrXqXwXwX9X8XqXqXqXqXwXqX9X9X9X9X9XiXiXqXqXeXeXqX9XqXqX9XwX9X9XeXrXwXwXqXqXqXwXeXqX",
"rXeXwX9XqXqXiXiX9XwXwXqXqX8X9XwXqXwX9X8X9XqXrXwXqXwX9XqXqXqX9X9XwXqX9X9XqXwX9XiXiXqXqXeXwXqXqXqXqX9XqXqXqXeXrXwXwXwXqXwXwXeXqX9X",
"rXwX9X9X9XiXiX9XqXwXqXqX8X9XeXqXwXqX8X8XqXrXwX9XwXqXqXqXqXqX9XqXwX9XqXqXwX9XiXiXqXqXeXwX9X9XqX9X9XqXqXqXrXrXeXqXqXqXwXwXeXqX9XeX",
"wX9X8X8XiXiX9XqXqXqXqX9X9XwXwXqXqX8X9XqXeXeX9XqXqXqXwXqXqX9XqXwXqX9XqXwXqXiXiXwXqXwXwX9X9XqX8X8XqXwXqXeXrXwXqXqXqXwXwXwXwX9XeXwX",
"9X8X6XiXiX9XwXqXqXwXqXqXwXwXqXwX9X8XqXeXeX8XqXqXqXwXqXqX9XqXqXwXqXqXqXqXiXiXqXqXwXqX8X8X9X9X8XqXwXwXrXrXqXqX9X9XwXwXwXqX9XeXwXwX",
"8X6XiXiXqXwXqXwXwXqXwXwXqXqXwX9X8XqXwXeX8X9XqXwXwXqX9X9X9XwXqXwXqXqXqXiXiXwXwXeXqX8X8X9X9X8XqXwXwXeXrXqXqXqXqXqXwXwXqX9X9XqXwX9X",
"6XiXiXwXwXwXwXwXwXqXeXqXqXwXqX8X9XwXwX8X9XqXqXwXqXqX8X9XqXwXwXqXwXqXiXiXwXqXwXwX9X8X8X8X8XqXwXwXeXrXwX9XqXqXwXqXqXqX9X9XwXeXwX9X",
"iXiXwXeXqXwXwXwXwXeXwXqXwXwX9X9XqXwX8X9XqX9XwXqX9X9X9XqXqXwXqXwXwXiXiXeXwXwXwXqX9X8X8X8X9XwXqXwXeXwXqXqXqXwXqX9XqX9XqXwXeXeX9X9X",
"iXeXeXwXeXwXwXwXeXwXwXeXqX9XqXwXqX9X9XqXqXqX9X9X9X9XqXwXwXwXwXwXiXiXwXwXeXwXqXqX9X8X8X9XwXwXqXeXwXqXqXqXwXwX9X9X9XqXwXwXeXqX9XqX"
};
