/* XPM */
static char *result[] = {
/* columns rows colors chars-per-pixel */
"50 125 71 1 ",
"  c black",
". c #F6F6F6",
"X c #F6F6F6",
"o c #F6F6F6",
"O c #E20000",
"+ c #F6F6F6",
"@ c #F6F6F6",
"# c #F6F6F6",
"$ c #F80000",
"% c #E40000",
"& c #F6F6F6",
"* c #1C0000",
"= c #F80000",
"- c #F6F6F6",
"; c #330000",
": c #D20101",
"> c #C70101",
", c #750000",
"< c #B90202",
"1 c #F6F6F6",
"2 c #D90000",
"3 c #100000",
"4 c #F6F6F6",
"5 c #F50000",
"6 c #F10000",
"7 c #6C0000",
"8 c #F6F6F6",
"9 c #F6F6F6",
"0 c #BE0404",
"q c #F6F6F6",
"w c #2B0000",
"e c #4E0000",
"r c #F6F6F6",
"t c #A70404",
"y c #ED0000",
"u c #CB0404",
"i c #080000",
"p c #5E0101",
"a c #F6F6F6",
"s c #B10808",
"d c #9B0303",
"f c #8A0707",
"g c #F6F6F6",
"h c #E80000",
"j c #B81416",
"k c #F6F6F6",
"l c #F6F6F6",
"z c #B61518",
"x c #800000",
"c c #F6F6F6",
"v c #F6F6F6",
"b c #F6F6F6",
"n c #F6F6F6",
"m c #F6F6F6",
"M c #F6F6F6",
"N c #B61313",
"B c #512122",
"V c #F6F6F6",
"C c #F6F6F6",
"Z c #F6F6F6",
"A c #F6F6F6",
"S c #F6F6F6",
"D c #701B1B",
"F c #F6F6F6",
"G c #991B1D",
"H c #F6F6F6",
"J c #673939",
"K c #F6F6F6",
"L c #524F50",
"P c #7E4C4D",
"I c #B49494",
/* pixels */
"............+++++++@..........+++++++&............",
"...........-vggggggF@........+MggggggS&.#.........",
"...........-H      S&..@..##.+C      c&...........",
"@......@@..qi      S&...#...#-C      M+..rr.......",
"@..@...@qkZlwww;wwwIkkk...+kklBwwwwwwMlkk@r.....#.",
".......+v i;GNuuuuse3 1-.&4 iwfNuuuusp* Hl@.......",
"......rnv 3esO5555:p3 3qr&c i;dO55552,*i l@.......",
"....@&nVv3we0%===527w*wZ&nb3*et%====2x;*3F+&@.....",
"...@l4cbJp,f:y==$=Od,7pbcbPp,f>y=$==%tx7pMccS&....",
"@..@X  *702Oy5====6%2:t* 3pN2Oy6====6%2:s;  L+....",
"@.@@Xi3;f25=========56>;3*,25=5========5:ei on....",
"@+-VAw;ed%5==========6:p;efO=======$===527;;JZ--&.",
"+LmmBftsuy===========5%stt>y=======$$===h<ddDBmCS@",
"-1  e0O%y5============6hO%y6============6h2:d*  a&",
"-1  e:5$$=================================6%t*  a&",
"-1  e:5==============$====================6%t*  a&",
"-1  e:5================$==================6ht*  a&",
"-1  e:5===================================6ht*  a&",
"q1  e:5===================================6ht*  a&",
"-1  e:55=======================$$=========6ht*  a&",
"-1  e:55=============================$====6%t*  a&",
"-1  eu65=============$$==================5y%t*  a&",
"-m ietu:O6===========$$=============$===y2>0f*  a&",
"@-qVAw;ed%=====$==================$=====2pwwJZqq&.",
"@..&X  *x:6655======================556y>;  o+....",
"...@X  *,>Ohy5======================5yOOs;  o+....",
"...@X  iexdsO6======================y>tdx*  o+..#.",
"...&X    3;p0h=======$==============2f;w3   o+...r",
"...@X     i;t2y65=============$=56yyu73     o+...r",
"r..@X     i;GNuOy5=$============6%:usp3     o-.rr.",
"r..@X   vXAAee,tO6=$$=======$===y>x7eKAXXH  o+.rr.",
"...@X   4+@V*iwx:y==============%te*3Mn@q1  o+....",
"..@@X   4&.-H 3pN:%y5=======56y%ufw  M&.-1  o+....",
"...@X   4&.+ommDfds2y5======6%>tfDBmCa&#-1  o+....",
"...@X   4&..+-VIwwe<h6======y2xewBZn-&.#-1  o+....",
"...@X   4&...r@ai wt%6======hu7* mnr...@q1  o+....",
"...@X   4&...@&S  *f0:O656y2ute3 m-....rq1  o+....",
"...@X   4&....&lccbDp7fO6h0xpeKbca&.....-1  o+....",
"...@X   4&.....@&&VJ3*e:yOd;33An&&......-1  o+....",
"...@X   4&#.@.....+L  ;uy2d*  X@.@..#...-1  o+....",
"...@X   4&........+L  ;t0s,*  X@.@......-1  o+....",
"...@X   4&....@..#.qkkFwwwKlkk&.......@.-1  o+....",
"...@X   4&..........@@l   v+.rr....#.@@.-1  o+....",
"...@X   4&............k   v+............-1  o+....",
"...@X   4&............kggga&............-1  o+....",
"...@X   4&........@...#+++&..@@.........-1  o+....",
"...@X   4&.............rr....@@.........-1  o+....",
"...@X   4+@................rr.r@@.......-1  o+....",
"...@X   4+@................rr.@@r.......-1  o+....",
"...@X   4&.......@.@.#.r.#..............-1  o+....",
"...@X   4&.............r................-1  o+....",
"...@X   4&..............................-1  o+....",
"...@X   4&..............................-1  o+....",
"...@X   4&..............................-1  o+....",
"...@X   4&..............................-1  o+....",
"...@X   4&..............................-1  o+....",
"...@X   4&..............................-1  o+....",
"...@X   4&..............................-1  o+....",
"...@X   4&..............................-1  o+....",
"...@X   4&..............................-1  o+....",
"...@X   4&..............................-1  o+....",
"...@X   4&..............................-1  o+....",
"...@X   4&..............................-1  o+....",
"...@X   4&..............................-1  o+....",
"...@X   4&..............................-1  o+....",
"...@X   4&..............................-1  o+....",
"...@X   4&..............................-1  o+....",
"...@X   4&.........................@@..#-1  o-@...",
"...@X   c888888888888888888888888888888881  o-@...",
"...@X  ib99999999999999999999999999999999w  o+....",
"...@X  ipGzzzjNjzjNjzjNjzjNjzjNjzjNjzjNzG*  o+....",
"..@@X  37<::::::::::::::::::::::::::::::sw  o+....",
"...@X  *,>O%%%%%%%%%%%%%%%%%%%%%%%%%%%%O<;  o+....",
"...@X  *,>O%%%%%%%%%%%%%%%%%%%%%%%%%%%%O<;  o+....",
"...@X  *,>O%O%%%%%%%%%%%%%%%%%%%%%%%%%OO<;  o-....",
".##@X  *,>O%%%%%%%%%%%%%%%%%%%%%%%%%%%OO<;  o+....",
".##@X  *,>O%%%%%%%%%%%%%%%%%%%%%%%%%%%OO<;  o+....",
"...@X  *,>O%%%%%%%%%%%%%%%%%%%%%%%%%%%OO<;  o+.@@.",
"...@X  *,>O%%%%%%%%%%%%%%%%%%%%%%%%%%%OO<;  o+.@r.",
"...@X  *,>O%%%%%%%%%%%%%%%%%%%%%%%%%%%OO<;  o+...r",
"...@X  *,>O%%%%%%%%%%%%%%%%%%%%%%%%%%%OO<;  o+...r",
"...@X  *,>O%%%%%%%%%%%%%%%%%%%%OO%%%%%OO<;  o+....",
"...@X  *,>O%%%%%%%%%%%%%%%%%%%%OO%%%%%OO<;  o+....",
"...@X  *,>O%%%%%%%%%%%%%%%%%%%%%%%%%%%OO<;  o+....",
"...@X  *,>O%%%%%%%%%%%%%%%%%%%%%%%%%%%OO<;  o+....",
"...@X  *,>O%%%%%%%%%%%%%%%%%%%%%%%%%%%OO<;  o+....",
"...@X  *,>O%%%%%%%%%%%%%%%%%%%%%%%%%%%OO<;  o+....",
"...@X  *,>O%%%%%%%%%%%%%%%%%%%%%%%%%%%OO<;  o+....",
"...@X  *,>O%%%%%%%%%%%%%%%%%%%%%%%%%%%OO<;  o+....",
"...@X  *,>O%%%%%%%%%%%%%%%%%%%%%%%%%%%OO<;  o+....",
"...@X  *,>O%%%%%%%%%%%%%%%%%%%%%%%%%%%OO<;  o+....",
"...@X  *,>O%%%%%%%%%%%%%%%%%%%%%%%%%%%OO<;  o+....",
"...@X  *,>O%%%%%%%%%%%%%%%%%%%%%%%%%%%OO<;  o+....",
"...@X  *,>O%%%%%%%%%%%%%%%%%%%%%%%%%%%OO<;  o+....",
"...@X  *,>O%%%%%%%%%%%%%%%%%%%%%%%%%%%OO<;  o+....",
"...@X  *,>O%%%%%%%%%%%%%%%%%%%%%%%%%%%OO<;  o+....",
"...@X  *,>O%%%%%%%%%%%%%%%%%%%%%%%%%%%OO<;  o+....",
"...@X  *,>O%%%%%%%%%%%%%%%%%%%%%%%%%%%OO<;  o+....",
"...@X  *,>O%%%%%%%%%%%%%%%%%%%%%%%%%%%OO<;  o+....",
"...@X  *,>O%%%%%%%%%%%%%%%%%%%%%%%%%%%OO<;  o+....",
"...@X  *,>O%%%%%%%%%%%%%%%%%%%%%%%%%%%OO<;  o+....",
"...@X  *,>O%%%%%%%%%%%%%%%%%%%%%%%%%%%OO<;  o+....",
"...@X  *,>O%%%%%%%%%%%%%%%%%%%%%%%%%%%OO<;  o+....",
"...@X  *,>O%%%%%%%%%%%%%%%%%%%%%%%%%%%OO<;  o+....",
"...@X  *,>O%%%%%%%%%%%%%%%%%%%%%%%%%%%OO<;  o+....",
"...@X  *,>O%%%%%%%%%%%%%%%%%%%%%%%%%%%OO<;  o+....",
"...@X  *,>O%%%%%%%%%%%%%%%%%%%%%%%%%%%OO<;  o+....",
"...@X  *,>O%%%%%%%%%%%%%%%%%%%%%%%%%%%OO<;  o+....",
"...@X  *,>O%%%%%%%%%%%%%%%%%%%%%%%%%%%OO<;  o+....",
"...@X  *,>O%%%%%%%%%%%%%%%%%%%%%%%%%%%OO<;  o+....",
"...@X  *,>O%%%%%%%%%%%%%%%%%%%%%%%%%%%OO<;  o+....",
"...@X  *,>O%%%%%%%%%%%%%%%%%%%%%%%%%%%OO<;  o+....",
"...@X  *,>O%%%%%%%%%%%%%%%%%%%%%%%%%%%OO<;  o+....",
"...@X  *,>O%%%%%%%%%%%%%%%%%%%%%%%%%%%OO<;  o+....",
"...@X  *,0OOO%%%%%%%%%%%%%%%%%%%%%%%OOO2<;  o+....",
"...&X  *7<22OO%%%%%%%%%%%%%%%%%%%%%%O22:s;  o+....",
"...@FoCBDfts:2%%%%%%%%%%%%%%%%%%%%%%20tdfBCCv+....",
"@..@@++ZK*wes:%%%%%%%%%%%%%%%%%%%%%Oux;**Fq++.....",
"@..@...+v  ;d>2222222222222222222222<p3  l@.@.....",
".#.....-v iwfs0000000000000000000000te3  l@....@..",
"....#..@Xaabep7777777777777777777777pPb4aq........",
"r...@#..@&&Z*i33333333333333333333333Mn&&.##......",
"r..........qi                        M&...........",
"#....@@....-1                        c&...........",
".....@r.....-qqqqqqqqqqqqqqqqqqqqqq--&............"
};
