/* XPM */
static char *result[] = {
/* columns rows colors chars-per-pixel */
"50 125 73 1 ",
"  c #FA0000",
". c #F6F6F6",
"X c #F6F6F6",
"o c #F6F6F6",
"O c #F6F6F6",
"+ c #F6F6F6",
"@ c #F6F6F6",
"# c #F6F6F6",
"$ c black",
"% c #E60000",
"& c #D30000",
"* c #C40101",
"= c #7D0000",
"- c #DB0000",
"; c #530000",
": c #B20606",
"> c #F80000",
", c #E20000",
"< c #BF0505",
"1 c #F6F6F6",
"2 c #DF0000",
"3 c #F6F6F6",
"4 c #D70000",
"5 c #F10000",
"6 c #6C0000",
"7 c #ED0000",
"8 c #F50000",
"9 c #F6F6F6",
"0 c #F6F6F6",
"q c #340202",
"w c #F6F6F6",
"e c #F6F6F6",
"r c #F6F6F6",
"t c #A10202",
"y c #CC0303",
"u c #930303",
"i c #F6F6F6",
"p c #410000",
"a c #C91A1B",
"s c #F6F6F6",
"d c #630000",
"f c #F6F6F6",
"g c #4C0101",
"h c #F6F6F6",
"j c #F6F6F6",
"k c #AA0303",
"l c #B80606",
"z c #770000",
"x c #870304",
"c c #F6F6F6",
"v c #F6F6F6",
"b c #F6F6F6",
"n c #F6F6F6",
"m c #F6F6F6",
"M c #AD1111",
"N c #590000",
"B c #E40000",
"V c #F6F6F6",
"C c #F6F6F6",
"Z c #F6F6F6",
"A c #F6F6F6",
"S c #F6F6F6",
"D c #F6F6F6",
"F c #F6F6F6",
"G c #F6F6F6",
"H c #7B1514",
"J c #F6F6F6",
"K c #9C1112",
"L c #F6F6F6",
"P c #C01C1B",
"I c #AA2626",
"U c #631C1B",
"Y c #F6F6F6",
/* pixels */
"++++++++++++++++++++++e+++++#++++++++e+#++++++++++",
"++++++++++++OOOOOOOe+++++++++e1OOOOOO1++++++++++++",
"+++++++++++OViiiiiibe++ee#+++1riiiiiih1+++++++++++",
"+++++++++++OC$$$$$$h1++++++++1F$$$$$$VO+++++++++++",
"+++++++++++OC$$$$$$h1++++#+++OF$$$$$$VO+++++++e+++",
"++e+++++OccGg999999vZcc+++OccGA999999mZcce++++++++",
"+++#33+Os$$9K<yyy<Md0$oc+1ho$0xl*yy*:z0$oSe++++e++",
"++++33e1s$$9<75887y=0$$c31h$$9t,78874u0$$Se+++e+++",
"+++e+11js@@p*58>>7&xq@@Z1Oh@@qk%5>>72tq@@J111+++++",
"++++crrvANdx&5>>>5,:=d;vvvmNd=*78>>5%<=d;mvrh1++++",
"+++eX$$@zly-7>>>>85%-*Kqo@dMy-78>>>>57-*M;@$fO++++",
"+++eXo$9u47>>>>>>>>8>B<g00=&7>>>>>>>>>>%*d0$Dje+++",
"+OOjJ99gt25>>>>>>>>>>7y6pgu-7>>>>>>>>>>7&=g9nZjO1+",
"OifDUHuk&78>>>>>>>>>>72<kky%5>>>>>>>>>>5B*kuHnDfh1",
"Of$ogM&B78>>>>>>>>>>>877BB758>>>>>>>>>>857Byu9$$r1",
"Of$o;<%>>>>>>>>>>>>>>>>>>>>>>>>>>>>>>>>>>>>2tq$$r1",
"Of$o;<%>>>>>>>>>>>>>>>>>>>>>>>>>>>>>>>>>>>>2tq$$r1",
"Of$o;<%>>>>>>>>>>>>>>>>>>>>>>>>>>>>>>>>>>>>2tq$$r1",
"Of$oN<%>>>>>>>>>>>>>>>>>>>>>>>>>>>>>>> >>>>2tq$$r1",
"Of$o;<%>>>>>>>>>>>>>>>>>>>>>>>>>>>>>>>>>>>>2tq$$rO",
"Of$o;<%>>>>>>>>>>>>>>>>>>>>>>>>>>>>>>>>>>>>2tq$$r1",
"Of$o;<B>>>>>>>>>>>>>>>>>>>>>>>>>>>>>>>>>>>>2tq$$r1",
"Of$o;<B8>>>>>>>>>>>>>>>>>>>>>>>>>>>>>>>>8>82tq$$r1",
"OF$@gK<&B58>>>>>>>>>>>>>>>>>>>>>>>>>>>>872&lxqo$r1",
"+OOjJ99gt25>>>>>>>>>>>>>>>>>>>>>>>>>>>>7&=p0nZjO1+",
"++eeX$$@x&%58>>>>>>>>>>>>>>>>>>>>>>>>85,<N@$.O++++",
"++#+X$$@z<4B5>>>>>>>>>>>>>>>>>>>>>>>87B&Mgo$.O++++",
"+##+X$$og=uk28>>>>>>>>>>>>>>>>>>>>>87ytxzq$$.O++++",
"+++eX$$$o@0g*58>>>>>>>>>>>>>>>>>>>>5,tp0@$$$.O++++",
"+++eX$$$$$$0:,%78>>>>>>>>>>>>>>>>57,yx@$$$$$.O++++",
"+++eX$$$$$$0K<*47>>>>>>>>>>>>>>>87&<Mz0$$$$$.O##++",
"+++eX$$$ibbLdd6u,8>>>>>>>>>>>>>>84=N;AbbbC$$.O##++",
"+++eX$$$sOejq@0d4>>>>>>>>>>>>>>85*p@@mjeO.$$.O++33",
"+++eX$$$sO+OC$$p<,B78>>>>>>>>57,-:0$$VO+O.$$.O++33",
"+++eX$$$sO+OF.Dnxt:y7>>>>>>>>%<ktHn.fr1+O.$$.O#+++",
"+++eX$$$s1+#OOjL9p;tB>>>>>>>>-=pqpZOO1++O.$$.O++++",
"+++eX$$$s1++++ebo@qx->>8>>>>8&d0o0j+33++O.$$.O+e++",
"+++eX$$$s1+e++1b$$0z<4,785%-4:go$CO+33#+O.$$.O++++",
"++#+X$$$sO++++eGrrvAdzu&7%lxzNmrrh1+++++O.$$.O++++",
"++++X$$$sO++333+11ji@9;<%,up0@L11133333+O.$$.O++++",
"++#eX$$$s1333333331i$@gl,-uq@$Le3333333+O.$$.O++++",
"+++eX$$oswwwwwwwwwwA99gM<lxp99YwwwwwwwwwwD$$.O++++",
"++eeX$$o6IPaaaaaaaa<:ku;qp6t::PaaaaaaaaPIp$$.O++++",
"+++eX$$@z*&2222222222ykp@06l&-222222222y:;o$.O++++",
"+++eX$$@=*4,,,,,,,,,,&:g09z<4,,,,,,,,,,&:;o$.O++++",
"+++eX$$@=*-BBBBBBBBBB4<=d6uy-BBBBBBBBBB&:;o$.O++++",
"+++eX$$@=*-BBBBBBBBBB24y**&-,BBB,B,,BBB&:;o$.O++++",
"+++eX$$@=*-BBBBBBBBBBB,,,,,,BBBBBB,,BBB&:;o$.O++++",
"+++eX$$@=*-BBBBBBBBBBBBBBBBBB,BBBBBBBBB&:;o$.O++##",
"+++eX$$@=*-BBBBBBBBBBB,BBBBBBBBBBBBBBBB&:;o$.O++##",
"+++eX$$@=*-BBBBBBBBBBBBBBBBBBBBBBBBBBBB&:;o$.O++++",
"+++eX$$@=*-BBBBBBBBBBB,BBBBB%BBBBBBBBBB&:;o$.O++++",
"+++eX$$@=*-BBBBBBBBBBBBBBBBBBBBBBBBBBBB&:;o$.O++++",
"+++eX$$@=*-BBBBBBBBBBBBBBBBBBBBBBBBBBBB&:;o$.O++++",
"+++eX$$@=*-BBBBBBBBBBBBBBBBBBBBBBBBBBBB&:;o$.O++++",
"+++eX$$@=*-BBBBBBBBBBBBBBBBBBBBBBBBBBBB&:;o$.O++++",
"+++eX$$@=*-BBBBBBBBBBBBBBBBBBBBBBBBBBBB&:;o$.O++++",
"+++eX$$@=*-BBBBBBBBBBBBBBBBBBBBBBBBBBBB&:;o$.O++++",
"+++eX$$@=*-BBBBBBBBBBBBBBBBBBBBBBBBBBBB&:;o$.O++++",
"+++eX$$@=*-BBBBBBBBBBBBBBBBBBBBBBBBBBBB&:;o$.O++++",
"+++eX$$@=*-BBBBBBBBBBBBBBBBBBBBBBBBBBBB&:;o$.O++++",
"+++eX$$@=*-BBBBBBBBBBBBBBBBBBBBBBBBBBBB&:;o$.O++++",
"+++eX$$@=*-BBBBBBBBBBBBBBBBBBBBBBBBBBBB&:;o$.O++++",
"+++eX$$@=*-BBBBBBBBBBBBBBBBBBBBBBBBBBBB&:;o$.O++++",
"+++eX$$@=*-BBBBBBBBBBBBBBBBBBBBBBBBBBBB&:;o$.O++++",
"+++eX$$@=*-BBBBBBBBBBBBBBBBBBBBBBBBBBBB&:;o$.O++++",
"+++eX$$@=*-BBBBBBBBBBBBBBBBBBBBBBBBBBBB&:;o$.O++++",
"+++eX$$@=*-BBBBBBBBBBBBBBBBBBBBBBBBBBBB&:;o$.O++++",
"+++eX$$@=*-BBBBBBBBBBBBBBBBBBBBBBBBBBBB&:;o$.O++++",
"+++eX$$@=*-BBBBBBBBBBBBBBBBBBBBBBBBBBBB&:;o$.O++++",
"+++eX$$@=*-BBBBBBBBBBBBBBBBBBBBBBBBBBBB&:;o$.O++++",
"+++eX$$@=*-BBBBBBBBBBBBBBBBBBBBBBBBBBBB&:;o$.O++++",
"+++eX$$@=*-BBBBBBBBBBBBBBBBBBBBBBBBBBBB&:;o$.O++++",
"+++eX$$@=*-BBBBBBBBBBBBBBBBBBBBBBBBBBBB&:;o$.O++++",
"+++eX$$@=*-BBBBBBBBBBBBBBBBBBBBBBBBBBBB&:;o$.O++++",
"+++eX$$@=*-BBBBBBBBBBBBBBBBBBBBBBBBBBBB&:;o$.O++++",
"+++eX$$@=*-BBBBBBBBBBBBBBBBBBBBBBBBBBBB&:;o$.O++++",
"+++eX$$@=*-BBBBBBBBBBBBBBBBBBBBBBBBBBBB&:;o$.O++++",
"+++eX$$@=*-BBBBBBBBBBBBBBBBBBBBBBBBBBBB&:;o$.O++++",
"+++eX$$@=*-BBBBBBBBBBBBBBBBBBBBBBBBBBBB&:;o$.O++++",
"+++eX$$@=*-BBBBBBBBBBBBBBBBBBBBBBBBBBBB&:;o$.O++++",
"+++eX$$@=*-BBBBBBBBBBBBBBBBBBBBBBBBBBBB&:;o$.O++++",
"+++eX$$@=*-BBBBBBBBBBBBBBBBBBBBBBBBBBBB&:;o$.O++++",
"+++eX$$@=*-BBBBBBBBBBBBBBBBBBBBBBBBBBBB&:;o$.O++++",
"+++eX$$@=*-BBBBBBBBBBBBBBBBBBBBBBBBBBBB&:;o$.O++++",
"+++eX$$@=*-BBBBBBBBBBBBBBBBBBBBBBBBBBBB&:;o$.O++++",
"+++eX$$@=*-BBBBBBBBBBBBBBBBBBBBBBBBBBBB&:;o$.O++++",
"+++eX$$@=*-BBBBBBBBBBBBBBBBBBBBBBBBBBBB&:;o$.O++++",
"+++eX$$@=*-BBBBBBBBBBBBBBBBBBBBBBBBBBBB&:;o$.O++++",
"+++eX$$@=*-BBBBBBBBBBBBBBBBBBBBBBBBBBBB&:;o$.O++++",
"+++eX$$@=*-BBBBBBBBBBBBBBBBBBBBBBBBBBBB&:;o$.O++++",
"+++eX$$@=*-BBBBBBBBBBBBBBBBBBBBBBBBBBBB&:;o$.O++++",
"+++eX$$@=*-BBBBBBBBBBBBBBBBBBBBBBBBBBBB&:;o$.O++++",
"+++eX$$@=*-BBBBBBBBBBBBBBBBBBBBBBBBBBBB&:;o$.O++++",
"+++eX$$@=*-BBBBBBBBBBBBBBBBBBBBBBBBBBBB&:;o$.O++++",
"+++eX$$@=*-BBBBBBBBBBBBBBBBBBBBBBBBBBBB&:;o$.O++++",
"+++eX$$@=*-BBBBBBBBBBBBBBBBBBBBBBBBBBBB&:;o$.O++++",
"+++eX$$@=*-BBBBBBBBBBBBBBBBBBBBBBBBBBBB&:;o$.O++++",
"+++eX$$@=*-BBBBBBBBBBBBBBBBBBBBBBBBBBBB&:;o$.O++++",
"+++eX$$@=*-BBBBBBBBBBBBBBBBBBBBBBBBBBBB&:;o$.O++++",
"+++eX$$@=*-BBBBBBBBBBBBBBBBBBBBBBBBBBBB&:;o$.O++++",
"+++eX$$@=*-BBBBBBBBBBBBBBBBBBBBBBBBBBBB&:;o$.O++++",
"+++eX$$@=*-BBBBBBBBBBBBBBBBBBBBBBBBBBBB&:;o$.O++++",
"+++eX$$@=*-BBBBBBBBBBBBBBBBBBBBBBBBBBBB&:;o$.O++++",
"+++eX$$@=*-BBBBBBBBBBBBBBBBBBBBBBBBBBBB&:;o$.O++++",
"+++eX$$@=*-BBBBBBBBBBBBBBBBBBBBBBBBBBBB&:;o$.O++++",
"+++eX$$@=*-BBBBBBBBBBBBBBBBBBBBBBBBBBBB&:;o$.O++++",
"+++eX$$@=*-BBBBBBBBBBBBBBBBBBBBBBBBBBBB&:;o$.O++++",
"+++eX$$@=*-BBBBBBBBBBBBBBBBBBBBBBBBBBBB&:;o$.O++++",
"+++eX$$@=*-BBBBBBBBBBBBBBBBBBBBBBBBBBBB&:;o$.O++++",
"+++eX$$@=*-BBBBBBBBBBBBBBBBBBBBBBBBBBBB&:;o$.O++++",
"+++eX$$@=*-BBBBBBBBBBBBBBBBBBBBBBBBBBBB&:;o$.O++++",
"+++eX$$@=*-BBBBBBBBBBBBBBBBBBBBBBBBBBBB&:;o$.O++++",
"+++eX$$@=*-BBBBBBBBBBBBBBBBBBBBBBBBBBBB&:;o$.O++++",
"+++eX$$@=*-BBBBBBBBBBBBBBBBBBBBBBBBBBBB&:;o$.O++++",
"+++eX$$@z<42,BBBBBBBBBBBBBBBBBBBBBBB,,2y:;o$.O++++",
"+++eX$$@zly42,BBBBBBBBBBBBBBBBBBBBB,,-4*kgo$.O+#++",
"+++eGFfnHxuk&,,BBBBBBBBBBBBBBBBBBBB,-*ku=UnfiO++++",
"++##eOOjm00pl-,BBBBBBBBBBBBBBBBBBBB-yuq@0JjOO+++++",
"++++#+31s$$0ty&44444444444444444444y<=@$$Se+++++++",
"+++++#+1s$$0ull<<<<<<<<<<<<<<<<<<<<lk6@$$Se#++++##",
"++++##+eShhv666666666666666666666666dAvhhc#+++++##",
"++++++++e11jq@@@@@@@@@@@@@@@@@@@@@@@@mj11+++++++++",
"+++e+++++++OC$$$$$$$$$$$$$$$$$$$$$$$$VO++e++++++++",
"+++++++++++O.$$$$$$$$$$$$$$$$$$$$$$$$V1+++++++++++"
};
