/* XPM */
static char *result[] = {
/* columns rows colors chars-per-pixel */
"50 125 48 1 ",
"  c #F80000",
". c #C90101",
"X c #DF0000",
"o c #1F0000",
"O c #E20000",
"+ c #F6F6F6",
"@ c #F6F6F6",
"# c black",
"$ c #F6F6F6",
"% c #E40000",
"& c #250000",
"* c #B50102",
"= c #F6F6F6",
"- c #850101",
"; c #F6F6F6",
": c #D80000",
"> c #F6F6F6",
", c #BE0404",
"< c #F30000",
"1 c #100000",
"2 c #6D0000",
"3 c #320000",
"4 c #D20101",
"5 c #610000",
"6 c #ED0000",
"7 c #F6F6F6",
"8 c #A10404",
"9 c #7A0000",
"0 c #530000",
"q c #AE0808",
"w c #0B0000",
"e c #420000",
"r c #F6F6F6",
"t c #F6F6F6",
"y c #F6F6F6",
"u c #F6F6F6",
"i c #F6F6F6",
"p c #F6F6F6",
"a c #F6F6F6",
"s c #F6F6F6",
"d c #F6F6F6",
"f c #F6F6F6",
"g c #F6F6F6",
"h c #F6F6F6",
"j c #6A1818",
"k c #F6F6F6",
"l c #F6F6F6",
"z c #F6F6F6",
/* pixels */
"$$$$$$$$$$$$+@@@@@@@$$$$$$$$$$$@@@@@@@$$$$$$$$$$$$",
"$$$$$$$$$$$+h;ppppp;@$$$$$$$$$a;ppppp;r$$$$$$$$$$$",
"$$$$$$$$$$$+=######l>$$$$$$$$$h#######a$$$$$$$$$$$",
"$$$$$$$$$$$+=######l>$$$$$$$$+h#######a$$$$$$$$$$$",
"$$$$$$$$$rrri&3333&3arr>$$$>rry3333&&&hrr>$$$$$$$$",
"$$$$$$$$>lt10q....,73w#s@$@utteq....,8e1#f@$$$$$$$",
"$$$$$$$$>w#154<<<<Oqew#s@$@u#te.<<<<%,01#f@$$$$$$$",
"$$$$$+@+roo32:<   %*0&1s>@rg1o54<   6.53wfr@@$$$$$",
"$$$$+yddi5298O    64795zidij527X    6:895zidda$$$$",
"$$$$@;##&q4:%<    <6O:,2oto7.4X6    <6%:,-&t#=+$$$",
"$$$$@;tt3.<<         <X-313*6<          X831t=+$$$",
"$+>>rs3354<           O80e0,6<          %q5e3ir>@$",
"+huugj78*%            6.q8*X<           64*8-jguu>",
"+y##1-.:%<            <6%%%6<           <6%O,0w##>",
"+y##o7X6                                    45w##>",
"+y##o7X6                                    45w##>",
"+y##o7X<                                    45w##>",
"+y##o7X6                                    45w##>",
"+y##o7X6                                   <45w##>",
"$y##o7X6                                    45w##>",
"+y##o7X6                                  <<45w##>",
"+y##o7X6<                                 <<45w##>",
"+yt#o9*.46                              <%:.q01tk>",
"$$>>rs&&04<                             Oq03&ir>>$",
"$$$$@;##&,66<                        <<6:73t#=+$$$",
"$$$$@;##oqXO%<                      <66O.-&##=+$$$",
"$$$$@;##1978,6                      <O*8-01##=+$$$",
"$$$$@;###1o39:                      6.531t###=+$$$",
"$$$$@;####wo5.666<               <<6:*0o#####=+$$$",
"$$$$@;###o335q.4O6              <6O4,q03ow###=+$$$",
"$$$$@;##t2--9529,6              <%*955--90w##=+$$$",
"$$$$@;##o8,,-3oe8O              6:73oe7,*9o##=+$$$",
"$$$$@;##o*:473o37.O66<       <6%:.-&oe84.-&##=+$$$",
"$$$$@;##o*X:q205-78,X6       <X*879059*:.-&##=+$$$",
"$$$$@;##o*X:4,q85ee2.6      <6.03e98*,4X.-&##=+$$$",
"$$$$@;##o*XXX:.q5oo0,%      <6*31&2,4:XO.-&##=+$$$",
"$$$$@;##o*XOO%:,93&0q.X%6<6O:483&3-.O%%O.-&##=+$$$",
"$$$$@;##o*XO%%X4q7-9229*O6O79229-7*:%%%O.-&##=+$$$",
"$$$$@;##o*XO%%OX:.,7e&37:645&&eq.4:X%%%O.-&##=+$$$",
"$$$$@;##o*X%%%OOXX.831o-4%401we*::XO%%%O.-&##=+$$$",
"$$$$@;##o*XO%%%%%%4q0339*,q0335.OO%%%%%O.-&##=+$$$",
"$$$$@;##o*XO%%%%%%X4,*89e3e7q*,:O%%%%%%O.-&##=+$$$",
"$$$$@;##o*XOO%%%%%OOXX.9&w&84:OO%%%%%%%O.-&##=+$$$",
"$$$$@;##o*XOO%%%%%%OOO.93o38:XO%%%%%%%%O.-&##=+$$$",
"$$$$@;##o*XOO%%%%%%%%O48252*:O%%%%%%%%%O.-&##=+$$$",
"$$$$@;##o*XO%%%OO%%%%OX4.,.:OO%%%%%%%%%O.-&##=+$$$",
"$$$$@;##o*XO%%%OO%%%%%%OOOO%%%%%%%%%%%%O.-&##=+$$$",
"$$$$@;##o*XO%%%%%%%%%%%%O%%%%%%%%%%%%%%O.-&##=+$$$",
"$$$$@;##o*XO%%%%%%%%%%%%%%%%%%%%%%%%%%%O.-&##=+$$$",
"$$$$@;##o*XO%%%%%%%%%%%%%%%%O%%%%%%%%%%O.-&##=+$$$",
"$$$$@;##o*XO%%%%%%%%%%%%%%%%O%%%%%%%%%%O.-&##=+$$$",
"$$$$@;##o*XO%%%%%%%%%%%%%%%%%%%%%%%%%%%O.-&##=+$$$",
"$$$$@;##o*XO%%%%%%%%%%%%%%%%%%%%%%%%%%%O.-&##=+$$$",
"$$$$@;##o*XO%%%%%%%%%%%%%%%%%%%%%%%%%%%O.-&##=+$$$",
"$$$$@;##o*XO%%%%%%%%%%%%%%%%%%%%%%%%%%%O.-&##=+$$$",
"$$$$@;##o*XO%%%%%%%%%%%%%%%%%%%%%%%%%%%O.-&##=+$$$",
"$$$$@;##o*XO%%%%%%%%%%%%%%%%%%%%%%%%%%%O.-&##=+$$$",
"$$$$@;##o*XO%%%%%%%%%%%%%%%%%%%%%%%%%%%O.-&##=+$$$",
"$$$$@;##o*XO%%%%%%%%%%%%%%%%%%%%%%%%%%%O.-&##=+$$$",
"$$$$@;##o*XO%%%%%%%%%%%%%%%%%%%%%%%%%%%O.-&##=+$$$",
"$$$$@;##o*XO%%%%%%%%%%%%%%%%%%%%%%%%%%%O.-&##=+$$$",
"$$$$@;##o*XO%%%%%%%%%%%%%%%%%%%%%%%%%%%O.-&##=+$$$",
"$$$$@;##o*XO%%%%%%%%%%%%%%%%%%%%%%%%%%%O.-&##=+$$$",
"$$$$@;##o*XO%%%%%%%%%%%%%%%%%%%%%%%%%%%O.-&##=+$$$",
"$$$$@;##o*XO%%%%%%%%%%%%%%%%%%%%%%%%%%%O.-&##=+$$$",
"$$$$@;##o*XO%%%%%%%%%%%%%%%%%%%%%%%%%%%O.-&##=+$$$",
"$$$$@;##o*XO%%%%%%%%%%%%%%%%%%%%%%%%%%%O.-&##=+$$$",
"$$$$@;##o*XO%%%%%%%%%%%%%%%%%%%%%%%%%%%O.-&##=+$$$",
"$$$$@;##o*XO%%%%%%%%%%%%%%%%%%%%%%%%%%%O.-&##=+$$$",
"$$$$@;##o*XO%%%%%%%%%%%%%%%%%%%%%%%%%%%O.-&##=+$$$",
"$$$$@;##o*XO%%%%%%%%%%%%%%%%%%%%%%%%%%%O.-&##=+$$$",
"$$$$@;##o*XO%%%%%%%%%%%%%%%%%%%%%%%%%%%O.-&##=+$$$",
"$$$$@;##o*XO%%%%%%%%%%%%%%%%%%%%%%%%%%%O.-&##=+$$$",
"$$$$@;##o*XO%%%%%%%%%%%%%%%%%%%%%%%%%%%O.-&##=+$$$",
"$$$$@;##o*XO%%%%%%%%%%%%%%%%%%%%%%%%%%%O.-&##=+$$$",
"$$$$@;##o*XO%%%%%%%%%%%%%%%%%%%%%%%%%%%O.-&##=+$$$",
"$$$$@;##o*XO%%%%%%%%%%%%%%%%%%%%%%%%%%%O.-&##=+$$$",
"$$$$@;##o*XO%%%%%%%%%%%%%%%%%%%%%%%%%%%O.-&##=+$$$",
"$$$$@;##o*XO%%%%%%%%%%%%%%%%%%%%%%%%%%%O.-&##=+$$$",
"$$$$@;##o*XO%%%%%%%%%%%%%%%%%%%%%%%%%%%O.-&##=+$$$",
"$$$$@;##o*XO%%%%%%%%%%%%%%%%%%%%%%%%%%%O.-&##=+$$$",
"$$$$@;##o*XO%%%%%%%%%%%%%%%%%%%%%%%%%%%O.-&##=+$$$",
"$$$$@;##o*XO%%%%%%%%%%%%%%%%%%%%%%%%%%%O.-&##=+$$$",
"$$$$@;##o*XO%%%%%%%%%%%%%%%%%%%%%%%%%%%O.-&##=+$$$",
"$$$$@;##o*XO%%%%%%%%%%%%%%%%%%%%%%%%%%%O.-&##=+$$$",
"$$$$@;##o*XO%%%%%%%%%%%%%%%%%%%%%%%%%%%O.-&##=+$$$",
"$$$$@;##o*XO%%%%%%%%%%%%%%%%%%%%%%%%%%%O.-&##=+$$$",
"$$$$@;##o*XO%%%%%%%%%%%%%%%%%%%%%%%%%%%O.-&##=+$$$",
"$$$$@;##o*XO%%%%%%%%%%%%%%%%%%%%%%%%%%%O.-&##=+$$$",
"$$$$@;##o*XO%%%%%%%%%%%%%%%%%%%%%%%%%%%O.-&##=+$$$",
"$$$$@;##o*XO%%%%%%%%%%%%%%%%%%%%%%%%%%%O.-&##=+$$$",
"$$$$@;##o*XO%%%%%%%%%%%%%%%%%%%%%%%%%%%O.-&##=+$$$",
"$$$$@;##o*XO%%%%%%%%%%%%%%%%%%%%%%%%%%%O.-&##=+$$$",
"$$$$@;##o*XO%%%%%%%%%%%%%%%%%%%%%%%%%%%O.-&##=+$$$",
"$$$$@;##o*XO%%%%%%%%%%%%%%%%%%%%%%%%%%%O.-&##=+$$$",
"$$$$@;##o*XO%%%%%%%%%%%%%%%%%%%%%%%%%%%O.-&##=+$$$",
"$$$$@;##o*XO%%%%%%%%%%%%%%%%%%%%%%%%%%%O.-&##=+$$$",
"$$$$@;##o*XO%%%%%%%%%%%%%%%%%%%%%%%%%%%O.-&##=+$$$",
"$$$$@;##o*XO%%%%%%%%%%%%%%%%%%%%%%%%%%%O.-&##=+$$$",
"$$$$@;##o*XO%%%%%%%%%%%%%%%%%%%%%%%%%%%O.-&##=+$$$",
"$$$$@;##o*XO%%%%%%%%%%%%%%%%%%%%%%%%%%%O.-&##=+$$$",
"$$$$@;##o*XO%%%%%%%%%%%%%%%%%%%%%%%%%%%O.-&##=+$$$",
"$$$$@;##o*XO%%%%%%%%%%%%%%%%%%%%%%%%%%%O.-&##=+$$$",
"$$$$@;##o*XO%%%%%%%%%%%%%%%%%%%%%%%%%%%O.-&##=+$$$",
"$$$$@;##o*XO%%%%%%%%%%%%%%%%%%%%%%%%%%%O.-&##=+$$$",
"$$$$@;##o*XO%%%%%%%%%%%%%%%%%%%%%%%%%%%O.-&##=+$$$",
"$$$$@;##o*XO%%%%%%%%%%%%%%%%%%%%%%%%%%%O.-&##=+$$$",
"$$$$@;##o*XO%%%%%%%%%%%%%%%%%%%%%%%%%%%O.-&##=+$$$",
"$$$$@;##o*XO%%%%%%%%%%%%%%%%%%%%%%%%%%%O.-&##=+$$$",
"$$$$@;##o*XO%%%%%%%%%%%%%%%%%%%%%%%%%%%O.-&##=+$$$",
"$$$$@;##o*XO%%%%%%%%%%%%%%%%%%%%%%%%%%%O.-&##=+$$$",
"$$$$@;##o*XO%%%%%%%%%%%%%%%%%%%%%%%%%%%O.-&##=+$$$",
"$$$$@;##o*XO%%%%%%%%%%%%%%%%%%%%%%%%%%%O.-&##=+$$$",
"$$$$@;##o*XO%%%%%%%%%%%%%%%%%%%%%%%%%%%O.-&##=+$$$",
"$$$$@;##oq:XOO%%%%%%%%%%%%%%%%%%%%%%%OOX.-&##=+$$$",
"$$$$@;##oq4::O%%%%%%%%%%%%%%%%%%%%%%OX::,9o##=@$$$",
"$$$$@duug-88*:%%%%%%%%%%%%%%%%%%%%%%X4*87jguuy+$$$",
"$$$$$@@@r&&32.O%%%%%%%%%%%%%%%%%%%%%:*53ofr@@+$$$$",
"$$$$$$$$>t#t0*::::::::::::::::::::::.8et#f@$$$$$$$",
"$$$$$$$$>k#we8,,,,,,,,,,,,,,,,,,,,,,q7ew#f@$$$$$$$",
"$$$$$$$$+==is5222222222222222222222250ii=y+$$$$$$$",
"$$$$$$$$$@+@=11111111111111111111111w1a@++$$$$$$$$",
"$$$$$$$$$$$+=#########################a$$$$$$$$$$$",
"$$$$$$$$$$$$=t#######################ka$$$$$$$$$$$",
"$$$$$$$$$$$$$>>>>>>>>>>>>>>>>>>>>>>>>>$$$$$$$$$$$$"
};
