/* XPM */
static char *result[] = {
/* columns rows colors chars-per-pixel */
"50 125 74 1 ",
"  c #F90000",
". c #F80000",
"X c #F6F6F6",
"o c #8C0000",
"O c #F6F6F6",
"+ c #F6F6F6",
"@ c #F6F6F6",
"# c black",
"$ c #F6F6F6",
"% c #E40000",
"& c #F6F6F6",
"* c #150000",
"= c #DD0000",
"- c #F6F6F6",
"; c #410000",
": c #D20000",
"> c #CC0000",
", c #AA0808",
"< c #F6F6F6",
"1 c #F6F6F6",
"2 c #F6F6F6",
"3 c #F6F6F6",
"4 c #F10000",
"5 c #CC0405",
"6 c #DA0000",
"7 c #6C0000",
"8 c #BF0505",
"9 c #F6F6F6",
"0 c #F6F6F6",
"q c #D70000",
"w c #EB0000",
"e c #F6F6F6",
"r c #F6F6F6",
"t c #F6F6F6",
"y c #F6F6F6",
"u c #260000",
"i c #600000",
"p c #F6F6F6",
"a c #E20000",
"s c #2D0101",
"d c #F6F6F6",
"f c #C70506",
"g c #F6F6F6",
"h c #F6F6F6",
"j c #9C0404",
"k c #7C0000",
"l c #F6F6F6",
"z c #F6F6F6",
"x c #360000",
"c c #AF0101",
"v c #F6F6F6",
"b c #F6F6F6",
"n c #530000",
"m c #F6F6F6",
"M c #A61010",
"N c #B70201",
"B c #F6F6F6",
"V c #B50D0E",
"C c #F6F6F6",
"Z c #F6F6F6",
"A c #621D1D",
"S c #7D0E0E",
"D c #F6F6F6",
"F c #4A0605",
"G c #F6F6F6",
"H c #9C1516",
"J c #F6F6F6",
"K c #F6F6F6",
"L c #F6F6F6",
"P c #F6F6F6",
"I c #F6F6F6",
"U c #F6F6F6",
"Y c #F6F6F6",
"T c #F6F6F6",
/* pixels */
"----------+-<OOOOOOO---------++OOOOOOO00---+------",
"---------+-<bppppppGO--------+DpppppppO--0--------",
"-----------Od######B1-----+--<b#######9-----------",
"------000--Od######B1-----00-<b#######9---------0-",
"---+--00+hhCvuussssFChhO--09hhKuusssssChh9--------",
"------++he#*7M855f8ju#&dO-1B#*nM8555fMu##pO-------",
"-----+-3h&#gk:w..4wNs##PO31g#g7fw...45x##pO-------",
"-----<OOC22xoqw..4w8;22P1Ozs2sk5w....:;*2J9OO+----",
"$---<@ddvnikNa4...4:kiiYvdvAik,=4....=o7iYvddC+---",
"0---OX#&;Hf6w4.....4=5V7*&xHf6%4.....4=:8og##@<---",
"---3OX&gn8%..........wqou*;c%..........4ajs&&@+--+",
"-<11zJs;75w..........4ajn;i8w..........4wcnssKz1O-",
"<bmBZAo,8=4..........4w:c,N64..........446cjSAZBXO",
"<l##ukf%w4..  ..  ....4w%%w4............44%:Vi&#e1",
"<l##uo=.....  ..  ......... ...............wf72#e1",
"<l##uo=....................................w572#e1",
"<l##uo=.................... ...............w572#e1",
"<l##uo=................................... w572#e1",
"<l##uo=4.................................. w572#e1",
"<l##uo=................................ ...w572#e1",
"<l##uo6............................... ....wf72#e1",
"<l##uo64....  ..  ................ .......4wf72#e1",
"+l&&uSV:=w4.  ..  ................  ....4w:8Mi*#B1",
"-<99zJu;75w............................4%cFuuKz99+",
"----1X#&;V=44.........................4w6jg##@<++-",
"---0OX#&xM5%w4.......................4%qfo*##@<---",
"----OX##u7o,>w4......................wcooi&##@+---",
"----OX###2*xo64.......    ..... .....:Fg*&###@<---",
"----OX#####2kf=w4.....    .......44ww8u######@<---",
"----OX#####*iM8:w4.............. w65fHu######@<---",
"----OX##&bbbUnik>4...............%j7inKbbG###@<---",
"----OX##e9+Ov22;Nw4.. ......... .6ks**z+Oy###@<---",
"----OX##e1-Od##gjq=w4........4wwa8n&##9-<y###@<---",
"--0-OX##e1-<lmBZSjjNw....... w:N,oAZBm9-<y###@<---",
"--0-OX##e1--<11zAx;76........wci;svz11--<y###@<---",
"----OX##e1-----OZ&2n:........ajx*&y<3---<y###@<---",
"----OX##e1-----Om##xVq=%44wa68Su&#y<----<y###@<---",
"----OX##e1----+<lddPi7kc%wqjkiAvddD+--33<y###@<---",
"----OX##e1----0-<OOL*gxo=wfis2mzOO+---33<y###@<---",
"----OX##e1------0++D#&ukq%8n*#mO3-------<y###@<---",
"----OX##e1--------+D&&giV8HF2#XO--0-----<y###@<---",
"----OX##e1------33-<hhCUuuuLhh9---------<y###@<---",
"----OX##e1------33----OG###D+-----+-++--<y###@<---",
"----OX##e1------------OG##&D+-----------<y###@<---",
"----OX##e1-----+------<lppph-----------+<y###@<---",
"----OX##e1-------------<OOO-------------<y###@<---",
"----OX##e1-------------------0----------<y###@<---",
"----OX##e1--------------------33------33<y###@<---",
"----OX##e1-----------------+--33------33<y###@<---",
"----OX##e1------00----00--0--+----------<y###@<---",
"----OX##e1------00----00--+--+----------<y###@<---",
"----OX##e1--0---------------------------<y###@<---",
"----OX##e9----------------------------0-<y###@<---",
"----OX##e933333333333333333333--33333333<y###@<---",
"----OX##gzrrrrrrrrrrrrrrrrrrrrrrrrrrrrrrry###@<---",
"----OX##sTtttttttttttttttttttttttttttttttI&##@<---",
"----OX##xH855555555555555555555555555558Vk2##@<---",
"----OX#&xM>6666666666666666666666666666:fo*##@<---",
"----OX#&;,:%a%%%%%%%%%%%%%%%%%%%%%%%%%%=>o*##@<---",
"----OX#&;,:%%%%%%%%%%%%%%%%%%%%%%%%%%%%=>o*##@<---",
"----OX#&;,:%%%%%%%%%%%%%%%%%%%%%%%%%%%%=>o*##@<---",
"----OX#&;,:%%a%%%%%%%%%%%%%%%%%%%%%%%%a6>o*##@<---",
"----OX#&;,:%%a%%%%%%%%%%%%%%%%%%%%%%%%a6>o*##@<---",
"----OX#&;,:%%%%%%%%%%%%%%%%%%%%%%%%%%%%=>o*##@<---",
"----OX#&;,:%%%%%%%%%%%%%%%%%%%%%%%%%%%%=>o*##@<---",
"----OX#&;,:%%%%%%%%%%%%%%%%%%%%%%%%%%%%=>o*##@<---",
"-+--OX#&;,:%%%%%%%%%%%%%%%%%%%%%%%%%%%%=>o*##@<---",
"----OX#&;,:%%%%%%%%%%%%%%%%%%%%%%%%%%%%=>o*##@<---",
"----OX#&;,:%%%%%%%%%%%%%%%%%%%%%%%%%%%%=>o*##@<---",
"----OX#&;,:%%%%%%%%%%%%%%%%%%%%%%%%%%%%=>o*##@<---",
"----OX#&;,:%%%%%%%%%%%%%%%%%%%%%%%%%%%%=>o*##@<---",
"----OX#&;,:%%%%%%%%%%%%%%%%%%%%%%%%%%%%=>o*##@<---",
"----OX#&;,:%%%%%%%%%%%%%%%%%%%%%%%%%%%%=>o*##@<---",
"----OX#&;,:%%%%%%%%%%%%%%%%%%%%%%%%%%%%=>o*##@<---",
"----OX#&;,:%%%%%%%%%%%%%%%%%%%%%%%%%%%%=>o*##@<---",
"----OX#&;,:%%%%%%%%%%%%%%%%%%%%%%%%%%%%=>o*##@<---",
"----OX#&;,:%%%%%%%%%%%%%%%%%%%%%%%%%%%%=>o*##@<---",
"----OX#&;,:%%%%%%%%%%%%%%%%%%%%%%%%%%%%=>o*##@<---",
"----OX#&;,:%%%%%%%%%%%%%%%%%%%%%%%%%%%%=>o*##@<---",
"----OX#&;,:%%%%%%%%%%%%%%%%%%%%%%%%%%%%=>o*##@<---",
"----OX#&;,:%%%%%%%%%%%%%%%%%%%%%%%%%%%%=>o*##@<---",
"----OX#&;,:%%%%%%%%%%%%%%%%%%%%%%%%%%%%=>o*##@<---",
"----OX#&;,:%%%%%%%%%%%%%%%%%%%%%%%%%%%%=>o*##@<---",
"----OX#&;,:%%%%%%%%%%%%%%%%%%%%%%%%%%%%=>o*##@<---",
"----OX#&;,:%%%%%%%%%%%%%%%%%%%%%%%%%%%%=>o*##@<---",
"----OX#&;,:%%%%%%%%%%%%%%%%%%%%%%%%%%%%=>o*##@<---",
"----OX#&;,:%%%%%%%%%%%%%%%%%%%%%%%%%%%%=>o*##@<---",
"----OX#&;,:%%%%%%%%%%%%%%%%%%%%%%%%%%%%=>o*##@<---",
"----OX#&;,:%%%%%%%%%%%%%%%%%%%%%%%%%%%%=>o*##@<---",
"----OX#&;,:%%%%%%%%%%%%%%%%%%%%%%%%%%%%=>o*##@<---",
"----OX#&;,:%%%%%%%%%%%%%%%%%%%%%%%%%%%%=>o*##@<---",
"----OX#&;,:%%%%%%%%%%%%%%%%%%%%%%%%%%%%=>o*##@<---",
"----OX#&;,:%%%%%%%%%%%%%%%%%%%%%%%%%%%%=>o*##@<---",
"----OX#&;,:%%%%%%%%%%%%%%%%%%%%%%%%%%%%=>o*##@<---",
"----OX#&;,:%%%%%%%%%%%%%%%%%%%%%%%%%%%%=>o*##@<---",
"----OX#&;,:%%%%%%%%%%%%%%%%%%%%%%%%%%%%=>o*##@<---",
"----OX#&;,:%%%%%%%%%%%%%%%%%%%%%%%%%%%%=>o*##@<---",
"----OX#&;,:%%%%%%%%%%%%%%%%%%%%%%%%%%%%=>o*##@<---",
"----OX#&;,:%%%%%%%%%%%%%%%%%%%%%%%%%%%%=>o*##@<---",
"----OX#&;,:%%%%%%%%%%%%%%%%%%%%%%%%%%%%=>o*##@<---",
"----OX#&;,:%%%%%%%%%%%%%%%%%%%%%%%%%%%%=>o*##@<---",
"----OX#&;,:%%%%%%%%%%%%%%%%%%%%%%%%%%%%=>o*##@<---",
"----OX#&;,:%%%%%%%%%%%%%%%%%%%%%%%%%%%%=>o*##@<---",
"----OX#&;,:%%%%%%%%%%%%%%%%%%%%%%%%%%%%=>o*##@<---",
"----OX#&;,:%%%%%%%%%%%%%%%%%%%%%%%%%%%%=>o*##@<---",
"----OX#&;,:%%%%%%%%%%%%%%%%%%%%%%%%%%%%=>o*##@<---",
"----OX#&;,:%%%%%%%%%%%%%%%%%%%%%%%%%%%%=>o*##@<---",
"----OX#&;,:%%%%%%%%%%%%%%%%%%%%%%%%%%%%=>o*##@<---",
"----OX#&;,:%%%%%%%%%%%%%%%%%%%%%%%%%%%%=>o*##@<---",
"----OX#&;,:%%%%%%%%%%%%%%%%%%%%%%%%%%%%=>o*##@<---",
"----OX#&;,:%%%%%%%%%%%%%%%%%%%%%%%%%%%%=>o*##@<---",
"----OX#&;,:%%%%%%%%%%%%%%%%%%%%%%%%%%%%=>o*##@<---",
"----OX#&;,:%%%%%%%%%%%%%%%%%%%%%%%%%%%%=>o*##@<---",
"----OX#&;,:%%%%%%%%%%%%%%%%%%%%%%%%%%%%=>o*##@<---",
"----OX#&;,>=aa%%%%%%%%%%%%%%%%%%%%%%%a=qfo*##@<---",
"----OX#&;jfq=aa%%%%%%%%%%%%%%%%%aa%%%=q>8o*##@<--+",
"----OGmZASo,8q=%%%%%%%%%%%%%%%%%aaa%aqcjoSZmmL+---",
"----$OO1Cg*xof6%%%%%%%%%%%%%%%%%%%%aa8FggJzOO++---",
"---0----h##27N>qqqqqqqqqqqqqqqqqqqqq:cu##pO-------",
"----33-+h&#2iMN8888888888888888888888ju##pO-0-----",
"----33--1yddIi77777777777777777777777ivdyb<-------",
"--33----+O<1v222222222222222222222222*zO<<--------",
"--330------Od#########################9-----------",
"--------+--<d&#######################e9--0--------",
"------------O9999999999999999999999999------------"
};
