/* XPM */
static char *result[] = {
/* columns rows colors chars-per-pixel */
"50 125 69 1 ",
"  c #F6F6F6",
". c #CF0101",
"X c #030000",
"o c #F6F6F6",
"O c #F6F6F6",
"+ c #F6F6F6",
"@ c #DE0000",
"# c black",
"$ c #F90000",
"% c #E40000",
"& c #1A0000",
"* c #D20000",
"= c #F6F6F6",
"- c #F80000",
"; c #990000",
": c #A20808",
"> c #350000",
", c #100000",
"< c #D90000",
"1 c #F6F6F6",
"2 c #F6F6F6",
"3 c #C00404",
"4 c #6C0000",
"5 c #EE0000",
"6 c #F40000",
"7 c #E20000",
"8 c #2B0000",
"9 c #AC0202",
"0 c #C80303",
"q c #200000",
"w c #7F0101",
"e c #600000",
"r c #E90000",
"t c #B90606",
"y c #770101",
"u c #510000",
"i c #8C0000",
"p c #F6F6F6",
"a c #F6F6F6",
"s c #410000",
"d c #F6F6F6",
"f c #F6F6F6",
"g c #310000",
"h c #F6F6F6",
"j c #F6F6F6",
"k c #AA100F",
"l c #F6F6F6",
"z c #3C0000",
"x c #9C1010",
"c c #F6F6F6",
"v c #F6F6F6",
"b c #F6F6F6",
"n c #F6F6F6",
"m c #F6F6F6",
"M c #F6F6F6",
"N c #F6F6F6",
"B c #661F1E",
"V c #F6F6F6",
"C c #F6F6F6",
"Z c #F6F6F6",
"A c #F6F6F6",
"S c #8A1313",
"D c #F6F6F6",
"F c #F6F6F6",
"G c #F6F6F6",
"H c #F6F6F6",
"J c #F6F6F6",
"K c #F6F6F6",
"L c #F6F6F6",
/* pixels */
"            OOOOOOO11         OOOOOOO1            ",
"          1jJhhhhh=f11       ODhhhhhhV1           ",
"      1   1f#######V11       pC######l+  1        ",
"           f#######V1        p,######l+     1 1   ",
"        2jjV8888888Kdj2   pjjfz888888ldjj       1 ",
"       OmXXgk00..3xu,#mO ODX#q:00003ke&#Cp      11",
"       Om#Xs.5666%3e,#cO OD##835666r.y&#,2      11",
"   11O+2G,&u*6---5048,Ad+2D,,s056--5*wg,&d+++     ",
"   1fNnvBe4i@----5<;yeBvnnZeew<6---5@9weuvnNa+    ",
"   +o##qi0*@5----65%<3S8X&w3.@5--$-65r@0x>X#=O  1 ",
"   +oXXg9r5----------7:z,8;@5----------%tu&XJO    ",
" ppdv88ut56---$$-----%tesu9%5----------r0es8ZdOp1 ",
"pccABS;9<56---$$-----5*t99*56----------5@t9SBAccV1",
"2##,4t<r56-----------65r7%56-----------65r%0y&##a1",
"2##,y.5$-----------------------------$-----@wq##a1",
"2##,y.5-------------------------------$$$--<wq##a1",
"2##,y.5-------------------------------$$$--<wq##a1",
"2##,y.5--$---------------------------------<wq##a1",
"2##,y.5---------------------------------$--<wq##a1",
"2##,y.5-------------$$---------------------<wq##a+",
"2##,y.5------------------------------------<wq##a1",
"2##,y.r--$-------------------------------66<wq##a1",
"2C#,ek3*r6-----------------------------6r<.k4qXXa1",
"122dvqqutr6----------------------------r3ezqZd221 ",
"   +o##q:@556------------------------65@kzX#=O    ",
"   +o##&;.<%5----------------------6657.xgX#=O    ",
"   +o##,ei;9r----------------------6r3:i4&##=O    ",
"   +o###X&qe*6--$------------------5*wz,X###=O    ",
"   +o######>3%r56----------------65@34,#####=O    ",
"   +o#####Xgk0.@5---$$---------66%*tke,#####=O    ",
"   +o###naaluey9r---$$---------650yeuvKab###=O    ",
"   +o###b++f,&gw@--------------6r9z,,l++j###=O    ",
"   +o###bFFf&,8y0%r56--------5r@.;8,,lFFdX##=O    ",
"   +o##XLMMMeuuy;9t<5--------%t:;ieuuLMMM,##=O    ",
"   +o##,wHHt99:yssetr-------6<ezze:99ttHSq##=O    ",
"   +o##,i3.**.twq&s97--$---66.s,&ut****3x8X#=O    ",
"   +o##&;*@%%<.i>qs;0<r565%<*tsq8e07%%%.:>X#=O    ",
"   +o##&;*@%%@<tiwwy4w:@5%9w44wii9*%%%%.:>X#=O    ",
"   +o##&;*@%%7@<.3:u8gy.r<w>q>:00*@%%%%.:>X#=O    ",
"   +o##&;*@%%%77@.9u,&e0r*4qX89<<@7%%%%.:>X#=O    ",
"   +o##&;*@%%%%%%<34>gek3t4>8st@7%%%%%%.:>X#=O    ",
"   +o##&;*@%%%%%%@<0t9iu>sw993<7%%%%%%%.:>X#=O    ",
"   +o##&;*@%%%%%%%77@0i>,qi0<@7%%%%%%%%.:>X#=O    ",
"   +o##&;*@%%%%%%%%77.;sq8i0<7%%%%%%%%%.:>X#=O    ",
"   +o##&;*@%%%%%%%%%7*9ye49*@%%%%%%%%%%.:>X#=O    ",
"   +o##&;*@%%%%%%%%%%@*000*@7%%%%%%%%%%.:>X#=O    ",
"   +o##&;*@%%%%%%%%%7%7777%%%%%%%%%%%%%.:>X#=O    ",
"   +o##&;*@%%%%%%%%%7%%%%%%%%%%%%%%%%%%.:>X#=O    ",
"   +o##&;*@%%%%%%%%%%%%%%%%%%%%%%%%%%%%.:>X#=O    ",
"   +o##&;*@%%%%%%%%%%%%%%%%%%%%%%%%%%%%.:>X#=O    ",
"   +o##&;*@%%%%%%%%%%%%%%%%%%%%%%%%%%%%.:>X#=O    ",
"   +o##&;*@%%%%%%%%%%%%%%%%%%%%%%%%%%%%.:>X#=O    ",
"   +o##&;*@%%%%%%%%%%%%%%%%%%%%%%%%%%%%.:>X#=O    ",
"   +o##&;*@%%%%%%%%%%%%%%%%%%%%%%%%%%%%.:>X#=O    ",
"   +o##&;*@%%%%%%%%%%%%%%%%%%%%%%%%%%%%.:>X#=O    ",
"   +o##&;*@%%%%%%%%%%%%%%%%%%%%%%%%%%%%.:>X#=O    ",
"   +o##&;*@%%%%%%%%%%%%%%%%%%%%%%%%%%%%.:>X#=O    ",
"   +o##&;*@%%%%%%%%%%%%%%%%%%%%%%%%%%%%.:>X#=O    ",
"   +o##&;*@%%%%%%%%%%%%%%%%%%%%%%%%%%%%.:>X#=O    ",
"   +o##&;*@%%%%%%%%%%%%%%%%%%%%%%%%%%%%.:>X#=O    ",
"   +o##&;*@%%%%%%%%%%%%%%%%%%%%%%%%%%%%.:>X#=O    ",
"   +o##&;*@%%%%%%%%%%%%%%%%%%%%%%%%%%%%.:>X#=O    ",
"   +o##&;*@%%%%%%%%%%%%%%%%%%%%%%%%%%%%.:>X#=O    ",
"   +o##&;*@%%%%%%%%%%%%%%%%%%%%%%%%%%%%.:>X#=O    ",
"   +o##&;*@%%%%%%%%%%%%%%%%%%%%%%%%%%%%.:>X#=O    ",
"   +o##&;*@%%%%%%%%%%%%%%%%%%%%%%%%%%%%.:>X#=O    ",
"   +o##&;*@%%%%%%%%%%%%%%%%%%%%%%%%%%%%.:>X#=O    ",
"   +o##&;*@%%%%%%%%%%%%%%%%%%%%%%%%%%%%.:>X#=O    ",
"   +o##&;*@%%%%%%%%%%%%%%%%%%%%%%%%%%%%.:>X#=O    ",
"   +o##&;*@%%%%%%%%%%%%%%%%%%%%%%%%%%%%.:>X#=O    ",
"   +o##&;*@%%%%%%%%%%%%%%%%%%%%%%%%%%%%.:>X#=O    ",
"   +o##&;*@%%%%%%%%%%%%%%%%%%%%%%%%%%%%.:>X#=O    ",
"   +o##&;*@%%%%%%%%%%%%%%%%%%%%%%%%%%%%.:>X#=O    ",
"   +o##&;*@%%%%%%%%%%%%%%%%%%%%%%%%%%%%.:>X#=O    ",
"   +o##&;*@%%%%%%%%%%%%%%%%%%%%%%%%%%%%.:>X#=O    ",
"   +o##&;*@%%%%%%%%%%%%%%%%%%%%%%%%%%%%.:>X#=O    ",
"   +o##&;*@%%%%%%%%%%%%%%%%%%%%%%%%%%%%.:>X#=O    ",
"   +o##&;*@%%%%%%%%%%%%%%%%%%%%%%%%%%%%.:>X#=O    ",
"   +o##&;*@%%%%%%%%%%%%%%%%%%%%%%%%%%%%.:>X#=O    ",
"   +o##&;*@%%%%%%%%%%%%%%%%%%%%%%%%%%%%.:>X#=O    ",
"   +o##&;*@%%%%%%%%%%%%%%%%%%%%%%%%%%%%.:>X#=O    ",
"   +o##&;*@%%%%%%%%%%%%%%%%%%%%%%%%%%%%.:>X#=O    ",
"   +o##&;*@%%%%%%%%%%%%%%%%%%%%%%%%%%%%.:>X#=O    ",
"   +o##&;*@%%%%%%%%%%%%%%%%%%%%%%%%%%%%.:>X#=O    ",
"   +o##&;*@%%%%%%%%%%%%%%%%%%%%%%%%%%%%.:>X#=O    ",
"   +o##&;*@%%%%%%%%%%%%%%%%%%%%%%%%%%%%.:>X#=O    ",
"   +o##&;*@%%%%%%%%%%%%%%%%%%%%%%%%%%%%.:>X#=O    ",
"   +o##&;*@%%%%%%%%%%%%%%%%%%%%%%%%%%%%.:>X#=O    ",
"   +o##&;*@%%%%%%%%%%%%%%%%%%%%%%%%%%%%.:>X#=O    ",
"   +o##&;*@%%%%%%%%%%%%%%%%%%%%%%%%%%%%.:>X#=O    ",
"   +o##&;*@%%%%%%%%%%%%%%%%%%%%%%%%%%%%.:>X#=O    ",
"   +o##&;*@%%%%%%%%%%%%%%%%%%%%%%%%%%%%.:>X#=O    ",
"   +o##&;*@%%%%%%%%%%%%%%%%%%%%%%%%%%%%.:>X#=O    ",
"   +o##&;*@%%%%%%%%%%%%%%%%%%%%%%%%%%%%.:>X#=O    ",
"   +o##&;*@%%%%%%%%%%%%%%%%%%%%%%%%%%%%.:>X#=O    ",
"   +o##&;*@%%%%%%%%%%%%%%%%%%%%%%%%%%%%.:>X#=O    ",
"   +o##&;*@%%%%%%%%%%%%%%%%%%%%%%%%%%%%.:>X#=O    ",
"   +o##&;*@%%%%%%%%%%%%%%%%%%%%%%%%%%%%.:>X#=O    ",
"   +o##&;*@%%%%%%%%%%%%%%%%%%%%%%%%%%%%.:>X#=O    ",
"   +o##&;*@%%%%%%%%%%%%%%%%%%%%%%%%%%%%.:>X#=O    ",
"   +o##&;*@%%%%%%%%%%%%%%%%%%%%%%%%%%%%.:>X#=O    ",
"   +o##&;*@%%%%%%%%%%%%%%%%%%%%%%%%%%%%.:>X#=O    ",
"   +o##&;*@%%%%%%%%%%%%%%%%%%%%%%%%%%%%.:>X#=O    ",
"   +o##&;*@%%%%%%%%%%%%%%%%%%%%%%%%%%%%.:>X#=O    ",
"   +o##&;*@%%%%%%%%%%%%%%%%%%%%%%%%%%%%.:>X#=O    ",
"   +o##&;*@%%%%%%%%%%%%%%%%%%%%%%%%%%%%.:>X#=O    ",
"   +o##&;*@%%%%%%%%%%%%%%%%%%%%%%%%%%%%.:>X#=O    ",
"   +o##&;*@%%%%%%%%%%%%%%%%%%%%%%%%%%%%.:>X#=O    ",
"   +o##&;*@%%%%%%%%%%%%%%%%%%%%%%%%%%%%.:>X#=O    ",
"   +o##&;*@%%%%%%%%%%%%%%%%%%%%%%%%%%%%.:>X#=O    ",
"   +o##&;*@%%%%%%%%%%%%%%%%%%%%%%%%%%%%.:>X#=O    ",
"   +o##&;*@%%%%%%%%%%%%%%%%%%%%%%%%%%%%.:>X#=O    ",
"   +o##&;*@%%%%%%%%%%%%%%%%%%%%%%%%%%%%.:>X#=O    ",
"   +o##&;*@%%%%%%%%%%%%%%%%%%%%%%%%%%%%.:>X#=O    ",
"   +o##&;.<77%%%%%%%%%%%%%%%%%%%%%%%77@0:gX#=O    ",
"   +o##&i0.<7%%%%%%%%%%%%%%%%%%%%%%7@@<3xgX#=O1   ",
"   +bmcGw;;9<7%%%%%%%%%%%%%%%%%%%%%@<39iyBAcn+    ",
"    +OOdGqqu377%%%%%%%%%%%%%%%%%%%%<3y>&qdOO+     ",
"      1Om##89*<<<<<<<<<<<<<<<<<<<<<09e,#Xp11      ",
"       Om##8xt33333333t33t33t33t33ttxu,#Cp1     1 ",
"       1boNve4444444444444444444444eeZNNo+        ",
"        ++Of,,,,,,,,,,,,,,,,,,,,,,,,,lO++         ",
"           f#########################l+           ",
"        111fX########################b+           ",
"        11 12222222222222222222222222O  1         "
};
