/* XPM */
static char *result[] = {
/* columns rows colors chars-per-pixel */
"50 125 82 1 ",
"  c black",
". c #F6F6F6",
"X c #C00202",
"o c #D70000",
"O c #100000",
"+ c #F6F6F6",
"@ c #F6F6F6",
"# c #F90000",
"$ c #E40000",
"% c #F6F6F6",
"& c #F6F6F6",
"* c #F80000",
"= c #F6F6F6",
"- c #D60000",
"; c #5F0000",
": c #6F0000",
"> c #B60303",
", c #E20000",
"< c #F6F6F6",
"1 c #F6F6F6",
"2 c #CE0202",
"3 c #F6F6F6",
"4 c #F6F6F6",
"5 c #ED0000",
"6 c #A90707",
"7 c #F6F6F6",
"8 c #F20000",
"9 c #F6F6F6",
"0 c #F6F6F6",
"q c #F6F6F6",
"w c #6D0000",
"e c #450101",
"r c #DE0000",
"t c #380000",
"y c #F6F6F6",
"u c #B90C0C",
"i c #F6F6F6",
"p c #960404",
"a c #F6F6F6",
"s c #CA0303",
"d c #F6F6F6",
"f c #F6F6F6",
"g c #890605",
"h c #7F0202",
"j c #F6F6F6",
"k c #F6F6F6",
"l c #F6F6F6",
"z c #F6F6F6",
"x c #C40707",
"c c #F6F6F6",
"v c #F6F6F6",
"b c #540000",
"n c #650000",
"m c #F6F6F6",
"M c #F6F6F6",
"N c #F6F6F6",
"B c #F6F6F6",
"V c #F6F6F6",
"C c #F6F6F6",
"Z c #F6F6F6",
"A c #E30000",
"S c #F6F6F6",
"D c #B10303",
"F c #561D1D",
"G c #F6F6F6",
"H c #F6F6F6",
"J c #F6F6F6",
"K c #F6F6F6",
"L c #F6F6F6",
"P c #F6F6F6",
"I c #6E0D0C",
"U c #F6F6F6",
"Y c #F6F6F6",
"T c #F6F6F6",
"R c #F6F6F6",
"E c #F6F6F6",
"W c #F6F6F6",
"Q c #F6F6F6",
"! c #F6F6F6",
"~ c #F6F6F6",
"^ c #F6F6F6",
"/ c #F6F6F6",
/* pixels */
"<<<<<<<<<<<<<<<<<<<<<<<<<<<<<<<<<<<<<<<f<<<<<<<<<<",
"<<<<<<<<<<<<.......3<f<<<<<<<<3.......<<<<<<<<<<<<",
"<<<<<<<<<<<.NSaaaaaN3<<<<<<<<3MSaaaaaC.<<<<<<<<<<<",
"<<<<<<<<<<<.a      S.<<<<<<<<3C      m+<<<<<<<<<<<",
"<<<<11<<<<4+a      S.<<<44<<<.C      m+<<<<<<f<<<<",
"<<<<11<<.jjJH000000HJjj3443jjJE000000FJjj.<<<<<<<<",
"<<1<<<<3M  yhuxssxuhy  Z3<G  y:6xssxXp0  k.<11<<<<",
"<<11<<<3M  0pr5885rp0  Z3%G  yg-5888$D0  k3<11<<<<",
"<<<<<3..MOOt6$8**8A6tOOZ.3GO=tpr5**85>tOOlV3.<<<<<",
"<<<<3NklPbnhX58**85XhnbPllEb;h>$8**852hn;Hlkk+<<<<",
"<<<<+R O;6sr58****85rs6bO=e6xr588***85rsuwO  @<<<<",
"<<<4zy y:25***#******$swyy;x$**********5-g0  J4<<<",
"<.+VTt0ego5**********5-hee:25**********5rpe00UV+.<",
".kKQFBp6s$8**********8$x66X,8**********8526pBFQKc.",
".c  tps$588*****##***885$$588***********85$26t  v.",
".c  t6,******#**##************************#$ue  v.",
".c  t6,***********************************#$ue  v.",
".c  t6$*#*********************#***********#$ue  v.",
".c  t6$*****##************#****************$ue  v.",
".c  t6$*****#*****************************#$ue  v.",
".c  t6$*******************####************#$ue  v.",
".c  t6,*******************####*****#*******$ue  v.",
".c  t6r8*****************************#****8Aue  v.",
".C =tgu2r58***************************#85A-upeO a.",
"%.+zTt0eg-5****************************5rpe00Uz+.<",
"%%<<+Y Onx,88**#*********************88$shO  @<<<<",
"%%<f+& =;u2$58****##****************88$-uw=  @<<<<",
"%%<<+&  thg6-58***##***************88r6ghe   @<f<<",
"<<<<+&   Oye6$8********************85>eyO    @<f<<",
"<<<<+&     yp2,58****************85$r6y      @<<<<",
"<<<<+&     yhux-5*********#***#**5-xugy      @<<<<",
"<<<<+&  mZWZHb;hr****************,gn;BZWZv   @<<<<",
"<<44+&  i+3VaOOe2***************8-byOLz3+d   @<<<<",
"<<44+&  i.<.a  0ur$58**#*****85$,ut  m+<.d   @<<<<",
"<<<<+&  i.<.CKKFg66X5*#*#****5sD6gFQKS+4.d   @<<<<",
"<<<<+&  i.<<.++Tttegr********,pbt0Wz+.44.d   @<<<<",
"<<<<+Y  i.<<<<<z==0w-88*****8oh0==G%<<<<.d   @<<<<",
"<<<<+Y  i.<<<<<z  Obu-r5885rouny  G<<<<<.d   @<<<<",
"<<<<+&  i.<<<<<+kllP;:gX55sp:;Hllkj<<<<<.d   @<<<<",
"<<<<+&  i.<<<<<<..+kOye6A$Db0OEz..<<<<<<.d   @<<<<",
"<<<<+&  i.<<4444443N =tpr,6t= C.<<<<<<<<.d   @<<<<",
"<<<<+&  i.<<<44444.N  0huugt= C.f<<<<<<<.d   @<<<<",
"<<<<+&  i.<<<<<<44<.jjU~00eUj@+<<<11<<f<.d   @<<<<",
"<<<<+&  i.<<11<<44<<f<+i  R+44<<<<11<<<<.d   @<<<<",
"<<<<+&  i.<<11f<<<<<<<+i  R+%f<<%%<<<<<<.d   @<<<<",
"<<<<+&  i.<<11<<<<<<f<.laac.%%<<%%<<<<<<.d   @<<<<",
"<<<<+&  i.11<<<<<<<<<<<....<<<11<<<<<<<<.d   @<<<<",
"<<<<+&  iV999999999999999999999999999999Vd   @<<<<",
"<<<<+&  ~77777777777777777777777777777777P   @<<<<",
"<<<<+&  e/!qqqqqqqqqqqqqqqqqqqqqqqqqqqq!^F   @<<<<",
"11<<+&  b6x2222222222222222222222222222x6n=  @f<<<",
"11<<+& =;>-,,,,,,,A,,,,,,,,,,,,,,,,,,,,oX:O  @<<<<",
"<<<<+& =;>-$$$$$$$$$$$$$$$$$$$$$$$$$$$$oX:O  @<<<<",
"<<<<+& =;>-$$$$$$$$$$$$$$$$$$$$$$$$$$$$oX:O  @<<<<",
"<<<<+& =;>-$$$$$$$$$$$$$$$$$$$$$$$$$$$$oX:O  @<<<<",
"<<<<+& =;>-$$$$$$$$$$$$$$$$$$$$$$$$$$$$oX:O  @<<<<",
"<<<<+& =;>-$$$$$$$$$$$$$$$$$$$$$$$$$$$$oX:O  @<<<<",
"<<<<+& =;>-$$$$$$$$$$$$$$$$$$$$$$$$$$$$oX:O  @<<<<",
"<<<<+& =;>-$$$$$$$$$$$$$$$$$$$$$$$$$$$$oX:O  @<<<<",
"<<<<+& =;>-$$$$$$$$$$$$$$$$$$$$$$$$$$$$oX:O  @<<<<",
"<<<<+& =;>-$$$$$$$$$$$$$$$$$$$$$$$$$$$$oX:O  @<<<<",
"<<<<+& =;>-$$$$$$$$$$$$$$$$$$$$$$$$$$$$oX:O  @<<<<",
"<<<<+& =;>-$$$$$$$$$$$$$$$$$$$$$$$$$$$$oX:O  @<<<<",
"<<<<+& =;>-$$$$$$$$$$$$$$$$$$$$$$$$$$$$oX:O  @<<<<",
"<<<<+& =;>-$$$$$$$$$$$$$$$$$$$$$$$$$$$$oX:O  @<<<<",
"<<<<+& =;>-$$$$$$$$$$$$$$$$$$$$$$$$$$$$oX:O  @<<<<",
"<<<<+& =;>-$$$$$$$$$$$$$$$$$$$$$$$$$$$$oX:O  @<<<<",
"<<<<+& =;>-$$$$$$$$$$$$$$$$$$$$$$$$$$$$oX:O  @<<<<",
"<<<<+& =;>-$$$$$$$$$$$$$$$$$$$$$$$$$$$$oX:O  @<<<<",
"<<<<+& =;>-$$$$$$$$$$$$$$$$$$$$$$$$$$$$oX:O  @<<<<",
"<<<<+& =;>-$$$$$$$$$$$$$$$$$$$$$$$$$$$$oX:O  @<<<<",
"<<<<+& =;>-$$$$$$$$$$$$$$$$$$$$$$$$$$$$oX:O  @<<<<",
"<<<<+& =;>-$$$$$$$$$$$$$$$$$$$$$$$$$$$$oX:O  @<<<<",
"<<<<+& =;>-$$$$$$$$$$$$$$$$$$$$$$$$$$$$oX:O  @<<<<",
"<<<<+& =;>-$$$$$$$$$$$$$$$$$$$$$$$$$$$$oX:O  @<<<<",
"<<<<+& =;>-$$$$$$$$$$$$$$$$$$$$$$$$$$$$oX:O  @<<<<",
"<<<<+& =;>-$$$$$$$$$$$$$$$$$$$$$$$$$$$$oX:O  @<<<<",
"<<<<+& =;>-$$$$$$$$$$$$$$$$$$$$$$$$$$$$oX:O  @<<<<",
"<<<<+& =;>-$$$$$$$$$$$$$$$$$$$$$$$$$$$$oX:O  @<<<<",
"<<<<+& =;>-$$$$$$$$$$$$$$$$$$$$$$$$$$$$oX:O  @<<<<",
"<<<<+& =;>-$$$$$$$$$$$$$$$$$$$$$$$$$$$$oX:O  @<<<<",
"<<<<+& =;>-$$$$$$$$$$$$$$$$$$$$$$$$$$$$oX:O  @<<<<",
"<<<<+& =;>-$$$$$$$$$$$$$$$$$$$$$$$$$$$$oX:O  @<<<<",
"<<<<+& =;>-$$$$$$$$$$$$$$$$$$$$$$$$$$$$oX:O  @<<<<",
"<<<<+& =;>-$$$$$$$$$$$$$$$$$$$$$$$$$$$$oX:O  @<<<<",
"<<<<+& =;>-$$$$$$$$$$$$$$$$$$$$$$$$$$$$oX:O  @<<<<",
"<<<<+& =;>-$$$$$$$$$$$$$$$$$$$$$$$$$$$$oX:O  @<<<<",
"<<<<+& =;>-$$$$$$$$$$$$$$$$$$$$$$$$$$$$oX:O  @<<<<",
"<<<<+& =;>-$$$$$$$$$$$$$$$$$$$$$$$$$$$$oX:O  @<<<<",
"<<<<+& =;>-$$$$$$$$$$$$$$$$$$$$$$$$$$$$oX:O  @<<<<",
"<<<<+& =;>-$$$$$$$$$$$$$$$$$$$$$$$$$$$$oX:O  @<<<<",
"<<<<+& =;>-$$$$$$$$$$$$$$$$$$$$$$$$$$$$oX:O  @<<<<",
"<<<<+& =;>-$$$$$$$$$$$$$$$$$$$$$$$$$$$$oX:O  @<<<<",
"<<<<+& =;>-$$$$$$$$$$$$$$$$$$$$$$$$$$$$oX:O  @<<<<",
"<<<<+& =;>-$$$$$$$$$$$$$$$$$$$$$$$$$$$$oX:O  @<<<<",
"<<<<+& =;>-$$$$$$$$$$$$$$$$$$$$$$$$$$$$oX:O  @<<<<",
"<<<<+& =;>-$$$$$$$$$$$$$$$$$$$$$$$$$$$$oX:O  @<<<<",
"<<<<+& =;>-$$$$$$$$$$$$$$$$$$$$$$$$$$$$oX:O  @<<<<",
"<<<<+& =;>-$$$$$$$$$$$$$$$$$$$$$$$$$$$$oX:O  @<<<<",
"<<<<+& =;>-$$$$$$$$$$$$$$$$$$$$$$$$$$$$oX:O  @<<<<",
"<<<<+& =;>-$$$$$$$$$$$$$$$$$$$$$$$$$$$$oX:O  @<<<<",
"<<<<+& =;>-$$$$$$$$$$$$$$$$$$$$$$$$$$$$oX:O  @<<<<",
"<<<<+& =;>-$$$$$$$$$$$$$$$$$$$$$$$$$$$$oX:O  @<<<<",
"<<<<+& =;>-$$$$$$$$$$$$$$$$$$$$$$$$$$$$oX:O  @<<<<",
"<<<<+& =;>-$$$$$$$$$$$$$$$$$$$$$$$$$$$$oX:O  @<<<<",
"<<<<+& =;>-$$$$$$$$$$$$$$$$$$$$$$$$$$$$oX:O  @<<<<",
"<<<<+& =;>-$$$$$$$$$$$$$$$$$$$$$$$$$$$$oX:O  @<<<<",
"<<<<+& =;>-$$$$$$$$$$$$$$$$$$$$$$$$$$$$oX:O  @<<<<",
"<<<<+& =;>-$$$$$$$$$$$$$$$$$$$$$$$$$$$$oX:O  @<<<<",
"<<<<+& =;>-$$$$$$$$$$$$$$$$$$$$$$$$$$$$oX:O  @<<<<",
"<<<<+& =;>-$$$$$$$$$$$$$$$$$$$$$$$$$$$$oX:O  @<<<<",
"<<<<+& =;>-$$$$$$$$$$$$$$$$$$$$$$$$$$$$oX:O  @<<<<",
"<<<<+& =;>-$$$$$$$$$$$$$$$$$$$$$$$$$$$$oX:O  @<<<<",
"<<<<+& =;>-$$$$$$$$$$$$$$$$$$$$$$$$$$$$oX:O  @<<<<",
"<<<<+& =;>-$$$$$$$$$$$$$$$$$$$$$$$$$$$$oX:O  @<<<<",
"<<<<+& =;D2r,,$$$$$$$$$$$$$$$$$$$$$$$,r->w=  @<<<<",
"11<<+& =;6sor,,$$$$$$$$$$$$$$$$$$$$A,rosDn=  @<<<<",
"11<<.vmLBhp6sr,$$$$$$$$$$$$$$$$$$$$,r26pgBLmijf<<<",
"<<<<<.+zMyyep2r$$$$$$$$$$$$$$$$$$$$ro6eyylz++<<<<<",
"<<<<<<<3M  OgX2oooooooooooooooooo-o-spy  k.<<<<<<<",
"44<<11<3M  Oh6>XXXXXXXXXXXXXXXXXXXX>Dgy  k.<<<<<<<",
"44<<11<<@NklB;wwwwwwwwwwwwwwwwwwwwwwnBlkNG3f<<<<<<",
"<<<<<<<<333zaO=OOOOOOOOOOOOOOOOOOOO==Lz333<<1<<<<<",
"<<<<<f<<<<%.a                        m+<<<<<11<<<<",
"<<<<<<<<<<<.S                        i+<<<<<<<<<<<"
};
