/* XPM */
static char *result[] = {
/* columns rows colors chars-per-pixel */
"50 125 73 1 ",
"  c #F6F6F6",
". c #010000",
"X c #F6F6F6",
"o c #F6F6F6",
"O c #F6F6F6",
"+ c #F6F6F6",
"@ c #F80000",
"# c #FA0000",
"$ c #E40000",
"% c black",
"& c #F6F6F6",
"* c #F6F6F6",
"= c #CE0101",
"- c #DF0000",
"; c #D70001",
": c #A80100",
"> c #910303",
", c #1F0000",
"< c #F6F6F6",
"1 c #DA0000",
"2 c #E20000",
"3 c #F6F6F6",
"4 c #F6F6F6",
"5 c #F6F6F6",
"6 c #F20000",
"7 c #6C0101",
"8 c #F6F6F6",
"9 c #EB0000",
"0 c #C8090A",
"q c #F6F6F6",
"w c #F6F6F6",
"e c #F6F6F6",
"r c #BE0202",
"t c #F6F6F6",
"y c #F6F6F6",
"u c #5C0202",
"i c #F6F6F6",
"p c #F6F6F6",
"a c #390202",
"s c #C90202",
"d c #880303",
"f c #B50101",
"g c #F6F6F6",
"h c #4B0000",
"j c #9D0303",
"k c #780202",
"l c #F6F6F6",
"z c #F6F6F6",
"x c #F6F6F6",
"c c #BE0B0A",
"v c #F6F6F6",
"b c #F6F6F6",
"n c #F6F6F6",
"m c #F6F6F6",
"M c #AB0F0E",
"N c #F6F6F6",
"B c #F6F6F6",
"V c #F6F6F6",
"C c #F6F6F6",
"Z c #F6F6F6",
"A c #F6F6F6",
"S c #F6F6F6",
"D c #F6F6F6",
"F c #F6F6F6",
"G c #F6F6F6",
"H c #F6F6F6",
"J c #F6F6F6",
"K c #F6F6F6",
"L c #800E0D",
"P c #F6F6F6",
"I c #F6F6F6",
"U c #F6F6F6",
"Y c #F6F6F6",
/* pixels */
"           <<3333333           3333O3O<           ",
"           <zpppppppl         3pppppppq<          ",
"         5<<8.%%%%%.z     <<  l.%%%%%.x+          ",
"    <   55 <8.%%%%%.z<        l.%%%%%%x+55<       ",
"        5llgx*******Nll35  3lgz,******IHll    5   ",
"        3m.4hZcssssM*.%p3 3p.iaZcssssMhi.n3&<     ",
"    5   3n%yu0$6666=a..K3 Op%4hc$6666=ui.n3  <   5",
"     <OvgAi*7s9@@@6;hy4K3vgK4*uc9@@@6;7,4agOO<    ",
"    <8bbBGukj16@@@@-d7uUBbBUuk>;9@@@@$jk7uBbb8<   ",
"5555+o..*dc1$96@@@@6-=0>y.,kc;296@@@@62;=j,%.YO   ",
"555 vo.4a:2@@@@@@@@@@6$:*4a>-6@@@@@@@@@66ra..Xv   ",
"  33gB*auf9@@@@@@@@@@69fuau:$@@@@@@@@@@66su**Dg33<",
" HmnAGd:f;9@@@@@@@@@@661f:f=9@@@@@@@@@@@6-fjd7A33z",
"<z.%4uc2996@@@@@@@@@@@66$2996@@@@@@@@@@@@69;ck4%%N",
" z%%47;@@@@@@@@@@@@@@@@@@@@@@@@@@@@@@@@@@@@9;dy%%N",
"<z%%47;@@@@@@@@@@@@@@@@@@@@@@@@@@@@@@@@@@@@9;dy%%N",
"<z%%47;@@@@@@@@@@@@@@@@@@@@@@@@@@@@@@@@@@@@9;dy%%N",
"<z%%47;@@@@@@@@@@@@@@@@@@@@@@@@@@@@@@@@@@@@6;dy%%N",
"<z%%47;@@@@@@@@@@@@@@@@@@@@@@@@@@@@@@@@@@@@6;dy%%N",
"<z%%47;@@@@@@@@@@@@@@@@@@@@@@@@@@@@@@@@@@@@9;dy%%N",
"<z%%47;@@@@@@@@@@@@@@@@@@@@@@@@@@@@@@@@@@@@9;dy%%N",
"<z%%47;66@@@@@@@@@@@@@@@@@@@@@@@@@@@@@@@@@69;dy%%N",
"<zi.yuM=;$6@@@@@@@@@@@@@@@@@@@@@@@@@@@@@69;cMky.iN",
" <33gB,auf9@@@@@@@@@@@@@@@@@@@@@@@@@@@@66sh*,Dg33<",
"   &Oo%.*j1666@@@@@@@@@@@@@@@@@@@@@@@@699f,%%XO   ",
"    Oo%.*>02966@@@@@@@@@@@@@@@@@@@@@@69-;:y%%XO  <",
"    Oo%%4udjr$6@@@@@@@@@@@@@@@@@@@@@@9fj>7i%%XO   ",
"    Oo%%%i4ak=9@@@@@@@@#@@@@@@@@@@@@@17*,i%%%XO   ",
"    Oo%%%%%iuc1966@@@@@@@@@@@@@@@66990h.%%%%%XO   ",
"    Oo%%%%%ihZc=$66@@@@@@@@@@@@@@6-=0Mai.%%%%XO   ",
"    +o%%%FxJShukf96@@@@@@@@@@@@@@9fk7hBxxF%%%XO   ",
"    Oo%%%8OvJ4iaj-6@@@@@@@@@@@@@@->ay4xv+N%%%XO   ",
"    Oo%%%8<<8%%4d0;96@@@@@@@@@6920ky.%x+<q%%%XO   ",
"    Oo%%%8<<NmnA7>jf$6@@@@@@@9-r:>GAnm8<<q%%%XO   ",
"    Oo%%%8< <33gP**u=6@@@@@@@9s7h*Pg33< <q%%%XO   ",
"    Oo%%%8< <  OD..as66@@@@@@$chy.pv    <q%%%XO   ",
"    Oo%%%8<    OX.%,M=;2666$10Zai%p3    <q%%%XO   ",
"    Oo%%%8<    <xbbBu7kj29-:kuuBbbx+    <q%%%XO   ",
"    Oo%%%8<     <OOg*y*7;9=d*iygvO+     <q%%%XO   ",
"    Oo%%%8<    5   3y.4u=9=ky%i3&& 5    <q%%%XO   ",
"    Oo%%%8<        3n.ihMcMu4.43&&      <q%%%XO   ",
"    Oo%%%8<     5 5 llHI***SHll 5       <q%%%XO   ",
"    Oo%%%8< < 5   55  +V%%%F+           <q%%%XO   ",
"    Oo%%%8<           &V.%%V+  <      &&<q%%%XO   ",
"    Oo%%%8<           <8ppp8<         &&<q%%%XO   ",
"    Oo%%%8<            &333<            <q%%%XO   ",
"    Oo%%%8<            5 5  5           <q%%%XO   ",
"    Oo%%%8< &&  &&&&                    <q%%%XO   ",
"    Oo%%%8< &&  &&&&        <           <q%%%XO   ",
"    Oo%%%8<             5               <q%%%XO   ",
"    Oo%%%8<             < 5             <q%%%XO   ",
"    Oo%%%8<         55                  &q%%%XO   ",
"    Oo%%%8<         55                  &q%%%XO   ",
"    Oo%%%8<                             <q%%%XO   ",
"    Oo%%%8<                             <q%%%XO   ",
"    Oo%%%8<                   5  &      &q%%%XO   ",
"    Oo%%%8<                   5  &      &q%%%XO   ",
"    Oo%%%8<                             <q%%%XO   ",
"    Oo%%%8<                             <q%%%XO   ",
"    Oo%%%8<5                55       5  <q%%%XO   ",
"    Oo%%.8wwwwwwwwwwwwwwwwwwwwwwwwwwwwwwwN%%%XO   ",
"&&  Oo%%.JeeeeeeeeeeeeeeeeeeeeeeeeeeeeeeeN.%%XO   ",
"&&  Oo%%iSCCtCtCtCtCtCtCtCtCtCtttttttCtCCSi%%XO   ",
"    Oo%.,LM00000000000000000000000000000cZ4%%XO   ",
"    Oo%.*>s2222222222222222222222222222-;:y%%XO   ",
"    Oo%.*>=2$2$2$2$2$2$2$2$2$2$$$$$$$22-;:y%%XO   ",
"    Oo%.*>=$$$$$$$$$$$$$$$$$$$$$$$$$$$2-;:,%%XO   ",
"    Oo%.*>=$$$$$$$$$$$$$$$$$$$$$$$$$$$$-;:,%%XO   ",
"    Oo%.*>=$$$$$$$$$$$$$$$$$$$$$$$$$$$$-1:,%%XO   ",
"    Oo%.*>=$$$$$$$$$$$$$$$$$$$$$$$$$$$$-1:,%%XO   ",
"    Oo%.*>=$$$$$$$$$$$$$$$$$$$$$$$$$$$$-1:,%%XO   ",
"    Oo%.*>=$$$$$$$$$$$$$$$$$$$$$$$$$$$$-1:,%%XO   ",
"    Oo%.*>=$$$$$$$$$$$$$$$$$$$$$$$$$$$$-1:,%%XO   ",
"    Oo%.*>=$$$$$$$$$$$$$$$$$$$$$$$$$$$$-1:,%%XO   ",
"    Oo%.*>=$$$$$$$$$$$$$$$$$$$$$$$$$$$$-1:,%%XO   ",
"    Oo%.*>=$$$$$$$$$$$$$$$$$$$$$$$$$$$$-1:,%%XO   ",
"    Oo%.*>=$$$$$$$$$$$$$$$$$$$$$$$$$$$$-1:,%%XO   ",
"    Oo%.*>=$$$$$$$$$$$$$$$$$$$$$$$$$$$$-1:,%%XO   ",
"    Oo%.*>=$$$$$$$$$$$$$$$$$$$$$$$$$$$$-1:,%%XO   ",
"    Oo%.*>=$$$$$$$$$$$$$$$$$$$$$$$$$$$$-1:,%%XO   ",
"    Oo%.*>=$$$$$$$$$$$$$$$$$$$$$$$$$$$$-1:,%%XO   ",
"    Oo%.*>=$$$$$$$$$$$$$$$$$$$$$$$$$$$$-1:,%%XO   ",
"    Oo%.*>=$$$$$$$$$$$$$$$$$$$$$$$$$$$$-1:,%%XO   ",
"    Oo%.*>=$$$$$$$$$$$$$$$$$$$$$$$$$$$$-1:,%%XO   ",
"    Oo%.*>=$$$$$$$$$$$$$$$$$$$$$$$$$$$$-1:,%%XO   ",
"    Oo%.*>=$$$$$$$$$$$$$$$$$$$$$$$$$$$$-1:,%%XO   ",
"    Oo%.*>=$$$$$$$$$$$$$$$$$$$$$$$$$$$$-1:,%%XO   ",
"    Oo%.*>=$$$$$$$$$$$$$$$$$$$$$$$$$$$$-1:,%%XO   ",
"    Oo%.*>=$$$$$$$$$$$$$$$$$$$$$$$$$$$$-1:,%%XO   ",
"    Oo%.*>=$$$$$$$$$$$$$$$$$$$$$$$$$$$$-1:,%%XO   ",
"    Oo%.*>=$$$$$$$$$$$$$$$$$$$$$$$$$$$$-1:,%%XO   ",
"    Oo%.*>=$$$$$$$$$$$$$$$$$$$$$$$$$$$$-1:,%%XO   ",
"    Oo%.*>=$$$$$$$$$$$$$$$$$$$$$$$$$$$$-1:,%%XO   ",
"    Oo%.*>=$$$$$$$$$$$$$$$$$$$$$$$$$$$$-1:,%%XO   ",
"    Oo%.*>=$$$$$$$$$$$$$$$$$$$$$$$$$$$$-1:,%%XO   ",
"    Oo%.*>=$$$$$$$$$$$$$$$$$$$$$$$$$$$$-1:,%%XO   ",
"    Oo%.*>=$$$$$$$$$$$$$$$$$$$$$$$$$$$$-1:,%%XO   ",
"    Oo%.*>=$$$$$$$$$$$$$$$$$$$$$$$$$$$$-1:,%%XO   ",
"    Oo%.*>=$$$$$$$$$$$$$$$$$$$$$$$$$$$$-1:,%%XO   ",
"    Oo%.*>=$$$$$$$$$$$$$$$$$$$$$$$$$$$$-1:,%%XO   ",
"    Oo%.*>=$$$$$$$$$$$$$$$$$$$$$$$$$$$$-1:,%%XO   ",
"    Oo%.*>=$$$$$$$$$$$$$$$$$$$$$$$$$$$$-1:,%%XO   ",
"    Oo%.*>=$$$$$$$$$$$$$$$$$$$$$$$$$$$$-1:,%%XO   ",
"    Oo%.*>=$$$$$$$$$$$$$$$$$$$$$$$$$$$$-1:,%%XO   ",
"    Oo%.*>=$$$$$$$$$$$$$$$$$$$$$$$$$$$$-1:,%%XO   ",
"    Oo%.*>=$$$$$$$$$$$$$$$$$$$$$$$$$$$$-1:,%%XO   ",
"    Oo%.*>=$$$$$$$$$$$$$$$$$$$$$$$$$$$$-1:,%%XO   ",
"    Oo%.*>=$$$$$$$$$$$$$$$$$$$$$$$$$$$$-1:,%%XO   ",
"    Oo%.*>=$$$$$$$$$$$$$$$$$$$$$$$$$$$$-1:,%%XO   ",
"    Oo%.*>=$$$$$$$$$$$$$$$$$$$$$$$$$$$$-1:,%%XO   ",
"    Oo%.*>=$$$$$$$$$$$$$$$$$$$$$$$$$$$$-1:,%%XO   ",
"    Oo%.*>=$$$$$$$$$$$$$$$$$$$$$$$$$$$$-1:,%%XO   ",
"    Oo%.*>=$$$$$$$$$$$$$$$$$$$$$$$$$$$$-1:,%%XO   ",
"    Oo%.*>=$$$$$$$$$$$$$$$$$$$$$$$$$$$$-1:,%%XO   ",
"    Oo%.*>s-22$$$$$$$$$$$$$$$$$$$$$$$221;:y%%XO   ",
"  &&Oo%.*dr;1-2$$$$$$$$$$$$$$$$$$$$$$21;sjy%%XO   ",
"  &&+VmmGk>:f;-$$$$$$$$$$$$$$$$$$$$$$;fjjLGmmF+  5",
"    &+33gAya7r;$$$$$$$$$$$$$$$$$$$$$2su*,ag33+    ",
"       53n%ihMs;;;;;;;;;;;;;;;;;;;;;;fh.%n3<      ",
"        3m%ihZfrrrrrrrrrrrrrrrrrrrrrcja..n3   5   ",
"        +VFbDu77777777777777777777777uDbFV+5      ",
"         ++vJ4i444444444444444444444i4xO+O 5      ",
"         5<<8%%%%%%%%%%%%%%%%%%%%%%%%%x<          ",
"           &8i%%%%%%%%%%%%%%%%%%%%%%%.x+          ",
"            <3333333333333333333333333+           "
};
