/* XPM */
static char *dab8c75b9718462b802ba18aef19fda7Y87r1FVWsMDTQAQs[] = {
/* columns rows colors chars-per-pixel */
"64 64 256 2 ",
"   c black",
".  c #1F170B",
"X  c #170F07",
"o  c #4B4B4B",
"O  c white",
"+  c #1B1B1B",
"@  c #131313",
"#  c #0B0B0B",
"$  c #070707",
"%  c #2F371F",
"&  c #232B0F",
"*  c #171F07",
"=  c #0F1700",
"-  c #4F3B2B",
";  c #473323",
":  c #3F2B1B",
">  c #FFB7B7",
",  c #F7ABAB",
"<  c #F3A3A3",
"1  c #EB9797",
"2  c #E78F8F",
"3  c #DF8787",
"4  c #DB7B7B",
"5  c #D37373",
"6  c #CB6B6B",
"7  c #C76363",
"8  c #BF5B5B",
"9  c #BB5757",
"0  c #B34F4F",
"q  c #AF4747",
"w  c #A73F3F",
"e  c #A33B3B",
"r  c #9B3333",
"t  c #972F2F",
"y  c #8F2B2B",
"u  c #8B2323",
"i  c #831F1F",
"p  c #7F1B1B",
"a  c #771717",
"s  c #731313",
"d  c #6B0F0F",
"f  c #670B0B",
"g  c #5F0707",
"h  c #5B0707",
"j  c #530707",
"k  c #4F0000",
"l  c #470000",
"z  c #430000",
"x  c #FFEBDF",
"c  c #FFE3D3",
"v  c #FFDBC7",
"b  c #FFD3BB",
"n  c #FFCFB3",
"m  c #FFC7A7",
"M  c #FFBF9B",
"N  c #FFBB93",
"B  c #FFB383",
"V  c #F7AB7B",
"C  c #EFA373",
"Z  c #E79B6B",
"A  c #DF9363",
"S  c #D78B5B",
"D  c #CF8353",
"F  c #CB7F4F",
"G  c #BF7B4B",
"H  c #B37347",
"J  c #AB6F43",
"K  c #A36B3F",
"L  c #9B633B",
"P  c #8F5F37",
"I  c #875733",
"U  c #7F532F",
"Y  c #774F2B",
"T  c #6B4727",
"R  c #5F4323",
"E  c #533F1F",
"W  c #4B371B",
"Q  c #3F2F17",
"!  c #332B13",
"~  c #2B230F",
"^  c #EFEFEF",
"/  c #E7E7E7",
"(  c #DFDFDF",
")  c gray86",
"_  c LightGray",
"`  c #CBCBCB",
"'  c gray78",
"]  c gray75",
"[  c #B7B7B7",
"{  c gray70",
"}  c gray67",
"|  c #A7A7A7",
" . c #9F9F9F",
".. c #979797",
"X. c #939393",
"o. c #8B8B8B",
"O. c #838383",
"+. c gray50",
"@. c #777777",
"#. c #6F6F6F",
"$. c gray42",
"%. c gray39",
"&. c #5B5B5B",
"*. c gray34",
"=. c gray31",
"-. c gray28",
";. c #434343",
":. c gray23",
">. c #373737",
",. c #2F2F2F",
"<. c #272727",
"1. c #232323",
"2. c #77FF6F",
"3. c #6FEF67",
"4. c #67DF5F",
"5. c #5FCF57",
"6. c #5BBF4F",
"7. c #53AF47",
"8. c #4B9F3F",
"9. c #439337",
"0. c #3F832F",
"q. c #37732B",
"w. c #2F6323",
"e. c #27531B",
"r. c #1F4317",
"t. c #17330F",
"y. c #13230B",
"u. c #0B1707",
"i. c #BFA78F",
"p. c #B79F87",
"a. c #AF977F",
"s. c #A78F77",
"d. c #9F876F",
"f. c #9B7F6B",
"g. c #937B63",
"h. c #8B735B",
"j. c #836B57",
"k. c #7B634F",
"l. c #775F4B",
"z. c #6F5743",
"x. c #67533F",
"c. c #5F4B37",
"v. c #574333",
"b. c #533F2F",
"n. c #9F8363",
"m. c #8F7753",
"M. c #836B4B",
"N. c #775F3F",
"B. c #675333",
"V. c #5B472B",
"C. c #4F3B23",
"Z. c #43331B",
"A. c #7B7F63",
"S. c #6F7357",
"D. c #676B4F",
"F. c #5B6347",
"G. c #53573B",
"H. c #474F33",
"J. c #3F472B",
"K. c #373F27",
"L. c #FFFF73",
"P. c #EBDB57",
"I. c #D7BB43",
"U. c #C39B2F",
"Y. c #AF7B1F",
"T. c #9B5B13",
"R. c #874307",
"E. c #732B00",
"W. c white",
"Q. c #FFDBDB",
"!. c #FFBBBB",
"~. c #FF9B9B",
"^. c #FF7B7B",
"/. c #FF5F5F",
"(. c #FF3F3F",
"). c #FF1F1F",
"_. c red",
"`. c #EF0000",
"'. c #E30000",
"]. c #D70000",
"[. c #CB0000",
"{. c #BF0000",
"}. c #B30000",
"|. c #A70000",
" X c #9B0000",
".X c #8B0000",
"XX c #7F0000",
"oX c #730000",
"OX c #670000",
"+X c #5B0000",
"@X c #4F0000",
"#X c #430000",
"$X c #E7E7FF",
"%X c #C7C7FF",
"&X c #ABABFF",
"*X c #8F8FFF",
"=X c #7373FF",
"-X c #5353FF",
";X c #3737FF",
":X c #1B1BFF",
">X c blue",
",X c #0000E3",
"<X c #0000CB",
"1X c #0000B3",
"2X c #00009B",
"3X c #000083",
"4X c #00006B",
"5X c #000053",
"6X c white",
"7X c #FFEBDB",
"8X c #FFD7BB",
"9X c #FFC79B",
"0X c #FFB37B",
"qX c #FFA35B",
"wX c #FF8F3B",
"eX c #FF7F1B",
"rX c #F37317",
"tX c #EB6F0F",
"yX c #DF670F",
"uX c #D75F0B",
"iX c #CB5707",
"pX c #C34F00",
"aX c #B74700",
"sX c #AF4300",
"dX c white",
"fX c #FFFFD7",
"gX c #FFFFB3",
"hX c #FFFF8F",
"jX c #FFFF6B",
"kX c #FFFF47",
"lX c #FFFF23",
"zX c yellow",
"xX c #A73F00",
"cX c #9F3700",
"vX c #932F00",
"bX c #872300",
"nX c #4F3B27",
"mX c #432F1B",
"MX c #372313",
"NX c #2F1B0B",
"BX c #000053",
"VX c #000047",
"CX c #00003B",
"ZX c #00002F",
"AX c #000023",
"SX c #000017",
"DX c #00000B",
"FX c black",
"GX c #FF9F43",
"HX c #FFE74B",
"JX c #FF7BFF",
"KX c magenta",
"LX c #CF00CF",
"PX c #9F009B",
"IX c #6F006B",
"UX c #980088",
/* pixels */
"  j.x.z.z.x.x.v.  j.z.x.z.x.z.v.  B.C.Z.C.Z.Z.C.  j.x.z.x.z.x.v.  j.z.z.x.z.z.v.  j.z.x.x.x.x.v.  M.B.B.V.B.V.Z.  k.x.x.x.z.z.v.",
"  k.z.z.x.z.l.c.  k.l.x.x.x.z.c.                  k.z.z.l.z.x.c.  k.z.x.z.x.z.v.  k.x.z.x.l.z.c.  m.V.B.B.B.V.C.  j.z.z.l.z.z.c.",
"  k.z.z.x.z.x.c.  k.x.z.x.x.x.c.  m.M.m.m.M.m.B.  k.z.x.z.z.z.c.  k.x.l.z.x.z.c.  k.z.z.x.z.z.c.  M.V.N.B.V.V.C.  k.x.z.x.z.x.c.",
"  k.x.z.x.x.x.v.  j.x.z.z.x.x.c.  M.V.B.B.V.V.Z.  j.x.x.z.x.x.c.  k.z.z.x.z.z.c.  j.z.x.x.z.x.v.  M.B.V.B.V.V.C.  j.x.x.z.x.z.c.",
"  j.x.z.x.x.z.v.  j.z.x.z.x.x.v.  m.B.V.B.B.B.C.  j.z.z.x.z.x.v.  j.x.z.x.z.x.c.  j.x.z.x.z.z.v.  m.V.V.V.B.V.Z.  j.x.z.x.z.x.v.",
"  j.x.x.z.x.z.v.  j.x.x.z.x.x.v.  M.V.V.B.V.V.C.  j.x.z.x.z.x.v.  j.x.z.x.x.x.c.  j.x.z.x.z.x.v.  m.V.B.V.V.V.Z.  k.x.x.z.z.x.v.",
"  j.z.x.x.x.x.v.  k.x.z.z.x.x.c.  M.B.B.B.B.V.Z.  k.x.z.z.x.z.v.  j.x.x.x.x.z.v.  j.z.z.z.x.z.v.  m.V.V.V.V.V.Z.  k.z.x.x.z.x.v.",
"  j.z.z.x.x.x.c.  k.x.z.x.z.x.c.  m.V.B.V.V.B.Z.  k.x.z.x.z.z.c.  j.x.x.z.x.z.v.  k.x.z.x.z.z.v.  M.B.V.B.B.B.Z.  j.z.x.z.x.x.c.",
"  k.x.z.x.x.x.c.  j.z.z.x.z.x.v.  m.V.B.B.V.V.C.  k.z.x.x.z.x.c.  j.x.x.z.x.z.v.  k.x.z.x.z.x.c.  M.B.B.V.B.V.Z.  j.x.z.z.z.x.c.",
"  k.x.z.x.z.x.c.  j.z.z.x.z.z.v.  m.V.V.N.V.V.C.  j.z.z.z.x.x.v.  j.z.z.x.z.x.c.  k.x.x.x.z.x.c.  M.B.B.V.B.V.C.  j.x.z.x.z.x.c.",
"  j.z.x.x.z.x.v.  j.x.z.x.z.x.v.  m.V.B.V.V.V.Z.  k.x.z.x.z.z.c.  k.z.x.x.z.z.c.  k.z.x.z.z.x.v.  M.B.V.V.B.V.C.  j.x.z.x.z.x.v.",
"  j.z.z.z.x.z.v.  k.x.z.x.z.x.v.  m.B.B.V.B.B.Z.  k.z.l.x.x.z.c.  k.z.z.x.z.x.v.  k.z.x.z.z.x.v.  M.B.B.V.B.B.C.  j.x.z.x.x.z.v.",
"  k.z.x.x.x.z.c.  k.x.x.x.x.x.v.  M.B.V.V.B.V.Z.  z.v.v.c.c.c.v.  k.z.x.x.z.x.v.  j.x.x.x.x.x.v.  m.V.V.V.B.V.C.  j.x.x.z.z.z.v.",
"  k.z.x.x.x.z.c.  k.x.z.x.x.z.v.  M.B.B.V.B.V.Z.                  j.x.z.x.x.z.v.  j.x.x.z.x.x.v.  m.V.B.V.B.B.C.  j.x.x.z.x.z.v.",
"  k.x.z.z.z.z.v.  j.x.z.x.z.z.v.  M.V.B.V.B.B.Z.  j.k.j.j.j.k.z.  j.x.x.x.x.z.v.  j.x.z.x.x.x.c.  m.V.B.N.B.V.C.  j.z.z.x.x.z.c.",
"  j.l.x.x.x.x.v.  j.x.z.x.z.x.v.  m.V.B.B.V.B.Z.  k.z.z.x.z.z.c.  j.x.z.z.x.x.v.  j.z.x.x.z.z.v.  M.V.B.B.B.V.C.  j.x.z.x.x.x.c.",
"  j.z.z.x.z.z.v.  k.z.z.x.z.x.c.  m.V.B.V.B.V.Z.  k.x.z.z.z.x.v.  k.z.x.x.z.x.v.  j.z.x.z.z.x.v.  M.V.V.B.V.V.C.  k.z.x.x.x.x.c.",
"  j.x.z.x.x.z.v.  k.x.x.z.x.x.c.  m.B.V.V.B.V.C.  j.z.z.x.z.x.v.  k.x.z.z.z.x.v.  j.z.l.x.z.z.v.  M.V.B.V.B.V.Z.  k.z.x.x.z.z.c.",
"  k.x.z.x.x.x.c.  k.x.z.z.x.x.c.  m.B.V.V.B.B.C.  j.x.x.z.z.x.c.  k.x.x.x.z.x.v.  j.x.z.x.z.x.v.  M.V.B.B.B.V.Z.  k.z.x.z.z.z.c.",
"  j.x.x.z.z.z.c.  k.x.z.x.x.z.v.  m.V.V.B.B.B.C.  j.x.l.z.x.z.c.  j.x.z.x.z.x.c.  k.x.z.x.z.x.v.  M.B.B.V.B.V.C.  j.x.x.x.z.z.v.",
"  k.z.x.z.x.z.c.  k.z.z.x.x.z.v.  M.V.V.B.V.B.Z.  k.x.z.z.x.z.v.  k.x.x.z.z.z.c.  k.x.z.x.x.x.c.  M.B.B.V.V.V.C.  j.x.l.z.x.x.v.",
"  z.c.v.c.v.v.v.  k.z.x.z.z.x.v.  M.B.V.V.V.B.Z.  j.z.x.x.z.x.c.  k.x.x.z.x.z.v.  k.x.z.x.z.x.c.  M.V.V.B.V.V.C.  j.z.x.x.z.x.v.",
"                  j.z.x.l.z.x.c.  m.B.B.B.V.B.Z.  j.z.z.x.z.x.c.  k.x.x.x.z.z.v.  j.x.z.x.z.x.c.  m.V.V.B.V.V.Z.  k.z.x.z.x.z.c.",
"  j.j.k.k.j.k.z.  j.z.x.z.x.x.c.  m.V.B.B.V.B.C.  j.x.z.x.z.x.c.  k.x.x.x.z.x.v.  k.z.x.x.z.x.v.  m.V.V.V.V.B.Z.  z.c.v.c.c.v.v.",
"  k.x.z.z.x.z.c.  j.x.z.z.x.x.c.  m.V.V.B.V.B.Z.  j.x.z.x.z.x.c.  j.z.x.x.z.x.v.  k.x.x.x.l.x.v.  m.B.N.V.B.B.Z.                ",
"  j.z.z.x.x.x.c.  j.z.z.x.z.z.c.  m.B.V.B.B.V.Z.  j.x.z.x.z.z.c.  j.z.x.x.x.x.c.  k.z.x.x.z.x.v.  M.V.N.V.B.B.C.  k.j.k.k.j.k.z.",
"  j.x.x.z.z.z.v.  j.x.x.x.x.z.v.  M.B.V.V.V.B.Z.  j.z.z.z.x.z.v.  j.z.x.x.z.x.c.  j.x.x.z.z.z.v.  M.V.B.V.B.V.C.  j.z.x.z.x.z.c.",
"  k.z.l.z.x.x.c.  j.x.x.z.x.x.v.  m.B.V.B.V.B.Z.  k.z.x.x.z.x.v.  k.x.x.x.z.z.v.  k.z.z.z.x.x.c.  M.V.B.V.B.V.C.  k.x.z.z.z.x.v.",
"  k.x.z.x.x.x.c.  k.x.z.x.z.x.c.  m.B.V.B.V.B.Z.  k.x.x.x.l.x.v.  k.x.z.x.z.z.v.  k.x.z.x.z.z.c.  M.V.B.B.B.V.Z.  k.z.z.x.z.x.c.",
"  j.x.x.x.z.z.v.  k.x.z.z.z.x.c.  m.B.V.V.V.V.C.  j.x.x.x.z.x.v.  j.x.z.x.x.x.c.  z.c.v.c.v.c.v.  m.V.V.V.V.V.Z.  k.z.x.z.z.x.c.",
"  j.x.x.x.z.z.v.  k.x.z.x.x.x.v.  M.V.B.B.V.V.C.  j.x.z.x.z.x.v.  j.x.z.z.z.z.c.                  m.V.V.B.V.V.Z.  j.z.x.x.x.x.c.",
"  j.x.z.x.z.x.v.  j.x.z.x.x.z.v.  M.B.B.N.B.V.Z.  j.x.z.x.z.z.v.  j.z.x.x.z.x.c.  j.k.k.j.k.k.z.  m.V.B.B.V.B.C.  j.x.x.x.z.x.v.",
"  j.x.z.z.x.x.c.  k.x.z.x.x.x.v.  M.V.V.N.V.B.Z.  k.x.z.x.z.z.v.  j.z.x.z.l.z.v.  k.z.x.z.z.x.c.  m.V.B.V.V.B.C.  j.x.z.x.z.x.v.",
"  j.x.z.x.z.x.c.  k.z.z.z.x.x.v.  m.B.B.V.V.B.Z.  k.x.z.x.x.x.v.  j.x.x.z.x.z.v.  k.z.z.x.z.z.c.  m.B.V.V.B.B.C.  j.x.l.z.x.x.v.",
"  k.x.x.z.x.x.v.  k.z.x.z.x.x.v.  m.B.B.V.B.B.Z.  k.x.z.z.z.x.v.  j.x.x.x.x.z.v.  k.x.z.z.x.z.v.  m.B.V.V.V.B.Z.  k.x.z.x.x.z.c.",
"  k.x.x.z.x.x.v.  k.x.z.x.z.z.v.  m.B.V.V.B.V.Z.  j.x.z.x.z.x.v.  k.x.z.z.z.x.c.  j.x.l.x.z.x.c.  m.V.B.V.B.V.Z.  k.x.z.x.x.z.v.",
"  j.z.x.x.x.x.v.  j.z.z.x.x.z.v.  m.B.V.V.B.V.Z.  j.z.x.x.z.x.v.  k.x.z.x.z.x.c.  j.z.x.x.z.z.c.  M.V.B.V.V.V.Z.  k.x.z.z.x.x.v.",
"  j.x.x.x.x.z.v.  j.x.x.z.x.x.v.  M.B.V.V.B.V.Z.  j.z.x.z.z.z.c.  k.x.x.z.z.x.c.  j.x.x.x.x.z.v.  M.V.B.V.V.B.C.  j.x.x.z.x.x.v.",
"  j.x.x.z.x.z.v.  j.x.x.x.z.z.v.  M.V.V.V.B.V.C.  j.z.z.x.x.z.c.  j.z.z.x.z.z.c.  j.x.z.x.x.z.v.  M.B.B.V.V.V.C.  j.z.x.z.z.x.v.",
"  j.x.x.z.x.z.v.  j.z.x.z.z.z.c.  M.B.V.B.B.B.C.  j.x.z.x.z.z.c.  k.z.x.z.x.z.c.  k.x.z.z.z.z.v.  M.B.B.V.B.B.C.  j.z.x.z.x.x.c.",
"  j.x.z.x.z.x.v.  j.z.x.z.x.x.c.  M.V.B.B.B.B.C.  j.l.z.x.z.z.v.  z.c.v.v.v.c.v.  j.z.z.x.z.x.v.  m.V.V.V.B.V.C.  k.z.x.z.z.x.v.",
"  j.x.z.x.z.l.v.  j.z.x.z.z.x.c.  M.B.B.V.V.V.C.  k.x.z.x.z.x.v.                  j.x.z.z.z.x.v.  m.V.V.B.B.V.C.  k.z.z.x.z.z.v.",
"  j.x.x.x.z.x.v.  j.x.x.x.x.z.c.  M.B.B.V.V.B.C.  k.x.z.x.z.x.c.  j.k.j.j.j.k.z.  j.x.z.x.z.x.c.  m.V.B.B.V.V.C.  j.x.z.x.z.z.v.",
"  j.x.x.x.z.z.v.  k.x.z.z.x.z.v.  m.V.B.V.B.V.C.  k.x.z.x.z.x.c.  j.z.x.z.x.z.c.  j.x.z.x.x.x.c.  M.V.B.V.V.B.Z.  j.x.z.x.z.x.v.",
"  j.z.x.z.z.x.v.  k.x.z.z.x.z.v.  m.V.B.V.B.B.Z.  k.x.z.x.x.x.c.  k.z.z.x.x.z.v.  j.x.x.x.x.z.c.  M.V.B.B.V.B.Z.  j.x.z.x.z.x.c.",
"  j.x.z.x.z.x.c.  k.x.z.x.x.x.v.  M.B.V.B.B.B.Z.  k.z.z.x.x.x.c.  j.x.x.z.x.z.c.  k.z.x.x.z.x.c.  M.B.V.B.B.B.Z.  k.z.z.x.z.x.c.",
"  j.x.z.z.z.x.c.  j.x.z.x.x.z.v.  M.B.V.B.V.V.Z.  k.z.x.x.x.x.c.  j.x.x.z.x.l.c.  j.z.z.x.z.x.v.  M.B.V.B.B.B.Z.  k.z.z.x.l.x.c.",
"  k.x.z.x.z.z.v.  j.x.x.x.z.z.c.  M.B.V.B.V.V.Z.  j.x.z.x.z.x.v.  j.x.z.x.z.z.c.  j.x.z.x.x.x.v.  m.B.V.V.V.B.C.  k.x.z.x.x.x.v.",
"  j.x.x.x.z.x.v.  j.x.x.x.x.z.c.  M.B.B.B.V.V.C.  j.x.z.x.x.x.v.  k.z.z.x.z.x.c.  j.x.z.x.x.x.v.  m.V.V.V.V.B.C.  j.x.z.x.x.z.v.",
"  k.x.z.x.z.x.c.  k.x.z.x.z.x.c.  M.B.V.B.V.V.C.  j.x.z.x.x.z.c.  k.x.x.x.x.x.v.  j.x.z.z.x.x.c.  m.V.V.V.B.B.C.  j.x.x.x.z.z.v.",
"  k.z.z.x.z.z.c.  k.z.z.z.l.x.c.  M.B.B.V.B.B.C.  j.z.z.x.z.z.c.  j.z.x.z.z.x.v.  j.x.z.z.z.x.c.  m.V.V.V.B.V.Z.  j.z.x.x.z.z.v.",
"  j.x.z.x.z.z.v.  j.x.z.x.z.z.v.  m.B.B.V.B.B.Z.  j.z.x.x.z.x.c.  k.z.x.x.z.z.v.  k.z.z.x.z.x.c.  m.V.B.V.V.V.C.  j.x.z.x.x.z.v.",
"  j.x.z.x.x.x.v.  k.z.z.x.z.x.c.  m.B.V.V.B.V.Z.  k.z.z.x.z.x.c.  k.x.x.z.x.z.v.  k.z.z.x.z.x.v.  m.B.B.V.V.V.C.  k.x.z.z.x.z.v.",
"  j.x.z.x.x.x.v.  z.v.c.v.v.c.c.  m.B.B.V.B.V.Z.  k.x.x.x.z.x.c.  j.x.x.x.x.x.c.  j.x.z.x.x.x.v.  m.B.V.N.B.B.C.  k.z.x.x.z.z.v.",
"  k.x.z.x.x.x.c.                  m.V.B.V.B.B.Z.  k.z.x.x.x.z.v.  j.z.z.x.x.z.c.  j.z.z.x.x.z.c.  M.B.V.B.B.B.C.  k.z.x.x.x.x.v.",
"  k.x.z.x.x.z.c.  j.j.j.k.j.k.z.  m.B.B.V.V.B.Z.  k.x.z.z.z.x.c.  j.z.z.x.z.z.c.  j.z.x.x.x.z.c.  M.B.B.B.B.V.C.  j.z.z.x.x.x.v.",
"  j.x.z.z.z.z.c.  k.z.x.z.x.z.c.  M.B.V.B.V.B.Z.  j.x.z.x.z.x.c.  j.x.z.x.z.x.c.  j.z.x.x.x.x.c.  M.V.B.V.V.B.C.  j.x.z.z.z.x.v.",
"  j.z.z.x.x.x.v.  k.x.z.x.z.z.v.  M.B.V.B.V.V.Z.  j.x.x.x.z.x.c.  j.x.z.z.x.x.v.  j.x.x.x.x.x.v.  M.V.V.B.B.V.Z.  k.x.z.x.x.x.v.",
"  j.x.z.x.x.z.v.  j.z.z.l.x.x.c.  M.V.B.B.V.B.Z.  j.z.x.x.z.x.v.  j.z.x.x.x.z.v.  k.x.x.x.z.z.v.  m.B.V.V.B.B.C.  k.x.l.x.x.x.v.",
"  j.x.z.x.x.z.v.  j.x.x.x.z.x.v.  M.V.B.B.V.B.Z.  j.z.x.x.x.z.v.  j.z.l.x.x.x.v.  k.x.z.x.z.z.v.  M.B.V.B.V.B.C.  j.x.x.x.x.z.c.",
"  j.x.x.x.x.z.c.  j.x.z.z.z.x.v.  M.V.B.B.V.B.C.  k.z.x.z.x.x.v.  j.x.z.x.z.x.c.  k.x.z.x.z.x.v.  B.C.Z.C.C.Z.Z.  k.x.z.x.z.x.c.",
"  k.z.z.x.z.z.c.  j.z.x.x.x.x.c.  M.B.V.N.B.V.C.  k.z.z.l.z.x.c.  k.x.x.x.z.x.c.  k.z.z.z.l.x.v.                  j.z.z.x.z.x.c.",
"  k.x.l.x.x.x.v.  j.z.z.x.z.z.c.  m.B.V.V.B.B.Z.  j.x.x.l.z.z.c.  k.z.z.x.z.z.v.  j.z.x.z.z.x.c.  m.M.m.m.m.M.B.  j.x.z.z.z.z.c.",
"  j.x.z.x.z.x.c.  k.x.x.x.x.z.v.  M.V.V.B.V.B.C.  k.z.x.x.z.x.v.  j.x.z.x.x.z.v.  k.x.x.x.x.z.v.  M.B.V.B.V.B.C.  k.z.x.x.x.z.v."
};
